<?xml version="1.0" encoding="UTF-8"?>
<svg id="Layer_2" data-name="Layer 2" xmlns="http://www.w3.org/2000/svg" viewBox="0 0 387.92 387.92">
  <defs>
    <style>
      .cls-1 {
        fill: #f2f1f2;
      }

      .cls-2 {
        fill: #e6e6e6;
      }

      .cls-3 {
        fill: #e7e4e4;
      }

      .cls-4 {
        fill: #e63625;
      }

      .cls-5 {
        fill: #e63828;
      }

      .cls-6 {
        fill: #e03327;
      }

      .cls-7 {
        fill: #db3027;
      }

      .cls-8 {
        fill: #2a3a91;
      }

      .cls-9 {
        fill: #fff;
      }

      .cls-9, .cls-10 {
        stroke: #292929;
        stroke-miterlimit: 10;
        stroke-width: 8px;
      }

      .cls-10 {
        fill: none;
      }
    </style>
  </defs>
  <g id="Layer_1-2" data-name="Layer 1">
    <g>
      <circle class="cls-9" cx="193.96" cy="193.96" r="189.96"/>
      <path class="cls-8" d="M178.49,4.29c3.95,0,7.9,0,11.85,0-.29,.91-.83,1.81-.83,2.72,0,10.7,.06,21.41,.11,32.11,0,11.53,0,23.06,0,34.59,0,11.45-.01,22.89-.02,34.34-.11,.24-.1,.47,.03,.7,0,11.11,0,22.21,0,33.32-.13,.22-.14,.45-.04,.68-.12,11.38-.23,22.77-.35,34.15-.19,.05-.36,.13-.53,.23-25.04-.06-50.08-.13-75.12-.17-36.39-.06-72.78-.11-109.18-.16,1.72-10.32,3.45-20.64,5.17-30.96,2.47,1.2,4.95,2.41,7.42,3.61,.03,.16,.05,.32,.01,.09,.21,.18,.07,.06-.07-.06-.62-2.57-1.23-5.14-1.85-7.75,2.25-1.69,4.35-3.27,6.93-5.21-3.61-.26-6.49-.46-9.36-.67,6.86-14.53,13.71-29.06,20.57-43.58,1.17,.8,2.35,1.6,3.25,2.22-.57,3.13-1.07,5.81-1.56,8.49-.1-.01-.19-.02-.29-.03h.24c2.19-1.56,4.37-3.12,6.65-4.75,2.34,1.61,4.58,3.15,7.47,5.13-1.01-3.33-1.78-5.86-2.63-8.65,2.22-1.64,4.38-3.24,7.54-5.58h-8.88c-1.53-3.07-2.85-5.71-4.17-8.35,8.36-9.09,16.71-18.19,25.07-27.28,.05,.65,.09,1.29,.18,2.41,2.56-1.8,4.66-3.27,6.9-4.83,2.19,1.52,4.37,3.03,7.41,5.14-1.06-3.51-1.82-6.03-2.58-8.59,2.29-1.76,4.4-3.37,6.6-5.05-1.49-.49-2.66-.87-3.83-1.24,5.72-3.73,11.43-7.45,17.15-11.18,.22,3.15,.44,6.3,.66,9.44,1.56-1.09,3.8-2.67,6.06-4.26,2.18,1.53,4.19,2.94,7.09,4.97-.91-3.56-1.54-6-2.17-8.46,2.21-1.71,4.26-3.31,6.09-4.72-2.86-.72-5.59-1.42-8.31-2.11,13.14-4.95,26.07-10.59,39.49-14.62,10.29-3.09,21.19-4.13,31.82-6.09Zm-4.45,35.56c.15,.11,.29,.21,.11,.08,.21,0,.03,0-.15,0-.51-2.7-1.02-5.4-1.56-8.27,2-1.53,4.04-3.09,7.02-5.37h-9.09c-.94-2.68-1.82-5.17-2.98-8.44-1.23,3.35-2.17,5.91-3.18,8.68h-8.59c2.77,2.15,4.84,3.76,6.91,5.37-.84,2.85-1.61,5.43-2.56,8.64,2.9-2.05,5.19-3.66,7.35-5.19,2.44,1.63,4.58,3.06,6.73,4.49Zm-63,94.12c.13,.18,.26,.35,.71,.96-.22-.77-.3-1.05-.37-1.33-.66-2.47-1.32-4.93-2-7.51,2.24-1.71,4.37-3.33,7.39-5.63h-9.33c-.93-2.67-1.8-5.14-2.96-8.44-1.16,3.32-2.03,5.81-3.02,8.64h-9.02c2.82,2.15,4.93,3.76,7.13,5.44-.71,2.63-1.38,5.12-2.3,8.51,2.96-2.02,5.07-3.45,7.14-4.86,2.32,1.48,4.47,2.85,6.62,4.22Zm-76.3-.08c2.38-1.36,4.75-2.73,7.12-4.08,2.27,1.6,4.43,3.12,7.2,5.07-1.03-3.39-1.84-6.05-2.65-8.7,2.34-1.78,4.43-3.38,7.34-5.59h-9.18c-.98-2.82-1.84-5.3-2.98-8.58-1.17,3.39-2.07,5.99-3.02,8.75h-8.89c2.69,2.06,4.81,3.67,6.95,5.3-.63,2.72-1.22,5.31-1.82,7.9-.12,.09-.24,.18-.2,.15-.02,.04,.05-.09,.13-.22Zm126.07-62.83c2.16-1.36,4.33-2.71,6.65-4.17,2.16,1.48,4.32,2.96,7.21,4.93-.98-3.43-1.71-5.97-2.45-8.56,2.31-1.75,4.41-3.34,7.44-5.62h-9.33c-1-2.83-1.87-5.28-3.01-8.48-1.17,3.4-2.04,5.92-2.98,8.63h-9.13c2.95,2.21,5.15,3.86,7.27,5.44-.73,2.77-1.36,5.14-1.98,7.51-.11,.24-.22,.48-.7,1.54,.73-.89,.87-1.06,1.01-1.23Zm-62.93,31.95c2.16-1.59,4.32-3.19,6.53-4.82,2.16,1.46,4.14,2.8,7.16,4.85-.94-3.61-1.56-6-2.2-8.44,2.28-1.69,4.35-3.22,7.42-5.49h-9.3c-.98-2.73-1.85-5.17-3.02-8.42-1.17,3.3-2.05,5.79-3.05,8.61h-8.89c2.92,2.23,5.03,3.84,6.81,5.2-.53,3.18-.97,5.88-1.43,8.56-.16-.06-.31-.12-.23-.08-.1-.02,.05,0,.2,.04Zm-56.19,40.52c-1.25,3.25-2.26,5.9-3.36,8.76h-8.61c2.81,2.1,4.86,3.62,6.99,5.22-.72,2.69-1.41,5.26-2.31,8.64,2.92-2.05,5.01-3.52,7.16-5.04,2.37,1.62,4.61,3.15,7.48,5.11-1.04-3.38-1.82-5.93-2.63-8.57,2.25-1.76,4.36-3.4,7.41-5.78h-9.29c-.92-2.7-1.75-5.14-2.84-8.35Zm122.69,8.55h-9.12c2.88,2.18,4.99,3.78,7.3,5.53-.76,2.44-1.51,4.82-2.6,8.33,2.97-1.89,5.16-3.28,7.45-4.74,2.07,1.35,4.12,2.68,7.15,4.64-.99-3.55-1.64-5.86-2.3-8.23,2.17-1.71,4.21-3.31,7.24-5.7h-9.16c-1.01-2.86-1.88-5.32-3.01-8.51-1.12,3.29-1.94,5.72-2.94,8.66Zm-21.05-64.42c-1.03-3.43-1.82-6.05-2.59-8.64,2.33-1.77,4.4-3.34,7.46-5.67h-9.33c-.98-2.84-1.86-5.39-2.96-8.55-1.16,3.33-2.08,5.96-3.09,8.85h-8.88c2.93,2.18,5.06,3.77,7.19,5.34-.85,2.83-1.6,5.38-2.59,8.67,2.87-2.02,5.06-3.55,7.37-5.18,2.28,1.59,4.47,3.12,7.41,5.17Zm-77.71,.05c3.08-2.16,5.34-3.74,7.44-5.2,2.51,1.73,4.57,3.15,7.36,5.07-1.01-3.43-1.77-5.98-2.53-8.56,2.31-1.77,4.46-3.41,7.49-5.73h-9.41c-.95-2.75-1.85-5.34-2.94-8.49-1.13,3.29-2.04,5.92-3.03,8.8h-8.86c2.81,2.15,4.93,3.77,7.12,5.45-.82,2.71-1.6,5.26-2.63,8.67Zm43.73,69.8c2.35-1.75,4.43-3.29,7.5-5.58h-9.34c-.98-2.69-1.86-5.12-3.02-8.3-1.2,3.29-2.11,5.77-3.14,8.6h-8.85c2.95,2.17,5,3.68,7.23,5.33-.81,2.51-1.57,4.88-2.69,8.39,3.02-1.91,5.29-3.34,7.55-4.77,2.1,1.41,4.06,2.73,7.06,4.74-.96-3.54-1.59-5.84-2.29-8.41Zm-48.47-21.22c3.04,2.3,5.18,3.92,7.37,5.58-.81,2.75-1.57,5.36-2.54,8.66,2.86-2.01,5.05-3.55,7.37-5.18,2.3,1.63,4.47,3.18,7.33,5.21-.98-3.38-1.75-6.03-2.53-8.75,2.31-1.71,4.5-3.32,7.62-5.62h-9.48c-.97-2.74-1.88-5.34-2.99-8.48-1.13,3.26-2.03,5.89-2.96,8.59h-9.18Zm75.04,9.08c2.39,1.65,4.55,3.14,7.44,5.15-1.04-3.4-1.82-5.94-2.63-8.61,2.24-1.72,4.43-3.4,7.38-5.66h-9.22c-.98-2.85-1.86-5.4-2.96-8.59-1.16,3.35-2.07,5.97-3.06,8.83h-8.86c2.82,2.14,4.95,3.75,7.11,5.39-.8,2.74-1.55,5.31-2.52,8.65,2.87-2.02,4.97-3.5,7.32-5.15ZM99.64,63.3c-.81,2.8-1.53,5.27-2.49,8.59,3.04-2.1,5.22-3.61,7.37-5.09,2.24,1.57,4.21,2.94,7.1,4.96-.92-3.5-1.56-5.93-2.23-8.49,2.21-1.69,4.35-3.34,7.33-5.62h-9.23c-.95-2.62-1.84-5.05-3-8.26-1.22,3.32-2.12,5.79-3.09,8.44h-8.92c2.76,2.11,4.86,3.72,7.17,5.49Zm72.59,62.8c2.39-1.81,4.46-3.38,7.32-5.54h-9.16c-.99-2.71-1.92-5.25-3.09-8.47-1.16,3.36-2.04,5.88-3.02,8.73h-8.84c2.78,2.09,4.92,3.7,7.11,5.35-.83,2.72-1.58,5.19-2.59,8.53,2.96-1.99,5.14-3.47,7.41-5,2.19,1.48,4.26,2.87,7.16,4.83-.92-3.38-1.58-5.81-2.29-8.44ZM123.99,42.13c2.83,2.19,5,3.86,7.14,5.51-.83,2.7-1.59,5.17-2.63,8.54,3.07-2.1,5.26-3.6,7.44-5.08,2.31,1.58,4.44,3.05,7.36,5.06-1.06-3.55-1.82-6.08-2.58-8.6,2.3-1.73,4.39-3.3,7.28-5.47h-9.08c-.99-2.84-1.9-5.46-3.01-8.68-1.12,3.24-2.03,5.87-3.01,8.72h-8.91Zm-58.38,77.01c3.09-2.17,5.26-3.7,7.44-5.22,2.31,1.62,4.41,3.1,7.36,5.17-1.08-3.65-1.82-6.19-2.55-8.66,2.28-1.73,4.35-3.3,7.35-5.57h-9.18c-1.01-2.88-1.92-5.47-3.01-8.59-1.13,3.28-2.03,5.92-3.03,8.81h-8.89c2.9,2.18,5.09,3.83,7.17,5.39-.88,2.87-1.62,5.3-2.65,8.67Zm73.36-14.08c-1.03-2.95-1.94-5.53-3.05-8.71-1.18,3.3-2.11,5.93-3.14,8.82h-8.67c2.77,2.08,4.9,3.69,7.02,5.28-.84,2.76-1.6,5.26-2.63,8.65,3.03-2.11,5.23-3.63,7.46-5.18,2.26,1.61,4.39,3.12,7.39,5.25-1.1-3.61-1.87-6.14-2.65-8.71,2.25-1.71,4.34-3.29,7.1-5.39h-8.83Zm23.62-10.28c-.86,2.63-1.59,4.87-2.74,8.4,3.16-2.06,5.34-3.48,7.58-4.94,2.15,1.51,4.18,2.94,7.06,4.95-.92-3.5-1.56-5.95-2.23-8.49,2.12-1.67,4.15-3.27,7.05-5.55h-8.94c-.97-2.71-1.85-5.18-3.01-8.43-1.23,3.36-2.17,5.93-3.2,8.73h-8.54c2.73,2.08,4.74,3.62,6.96,5.32Z"/>
      <path class="cls-3" d="M382.17,176.82c.26,.52,.53,1.04,.79,1.56v32.6c-.28,.3-.56,.6-.84,.9-36.78-.01-73.55-.03-110.33-.04l.08-.28c0-11.42,0-22.84,0-34.27-.01-.13-.02-.27-.03-.4,16.29,.05,32.58,.17,48.87,.15,20.49-.02,40.97-.15,61.46-.23Z"/>
      <path class="cls-6" d="M206.64,4.29c11.16,1.98,22.47,3.38,33.45,6.07,22.49,5.5,43.36,14.81,62.02,28.71-20.22,.06-40.45,.11-60.67,.17-17.27-.04-34.55-.08-51.82-.12-.05-10.7-.12-21.41-.11-32.11,0-.91,.54-1.81,.83-2.72,5.43,0,10.87,0,16.3,0Z"/>
      <path class="cls-4" d="M271.86,177.29c-25.94-.07-51.88-.14-77.82-.22-1.59,0-3.19-.11-4.78-.17,.12-11.38,.23-22.77,.35-34.15,.25,.02,.49-.03,.71-.16,26.18-.01,52.35-.03,78.53-.04,.26,.11,.51,.22,.77,.33,.74,11.34,1.48,22.67,2.22,34.01,0,.13,.02,.27,.03,.4Z"/>
      <path class="cls-4" d="M263.69,107.95c-24.45,.09-48.91,.17-73.36,.26-.22-.12-.46-.18-.71-.16,0-11.45,.01-22.89,.02-34.34,21.95-.11,43.9-.21,65.85-.32,.26,.17,.53,.34,.79,.51,.27,1.69,.44,3.39,.82,5.05,2.17,9.67,4.39,19.33,6.59,28.99Z"/>
      <path class="cls-2" d="M33.26,92.29c2.54-3.84,5.08-7.69,7.62-11.53,1.32,2.64,2.64,5.28,4.17,8.35h8.88c-3.17,2.34-5.33,3.94-7.54,5.58,.85,2.79,1.62,5.32,2.63,8.65-2.89-1.98-5.13-3.52-7.47-5.13-2.28,1.63-4.47,3.18-6.65,4.74l.05,.04c.49-2.68,.98-5.37,1.56-8.49-.9-.62-2.08-1.42-3.25-2.22Z"/>
      <path class="cls-2" d="M41.69,143.53c1.09,3.21,1.92,5.65,2.84,8.35h9.29c-3.04,2.37-5.15,4.02-7.41,5.78,.81,2.64,1.59,5.19,2.63,8.57-2.88-1.96-5.11-3.49-7.48-5.11-2.15,1.51-4.24,2.98-7.16,5.04,.9-3.38,1.59-5.95,2.31-8.64-2.14-1.59-4.18-3.12-6.99-5.22h8.61c1.1-2.86,2.12-5.51,3.36-8.76Z"/>
      <path class="cls-2" d="M164.37,152.08c1-2.94,1.83-5.37,2.94-8.66,1.13,3.19,2,5.65,3.01,8.51h9.16c-3.03,2.39-5.07,3.99-7.24,5.7,.66,2.37,1.31,4.68,2.3,8.23-3.03-1.97-5.08-3.3-7.15-4.64-2.29,1.46-4.47,2.85-7.45,4.74,1.1-3.51,1.84-5.89,2.6-8.33-2.31-1.75-4.42-3.35-7.3-5.53h9.12Z"/>
      <path class="cls-2" d="M143.32,87.67c-2.94-2.05-5.13-3.59-7.41-5.17-2.31,1.62-4.5,3.16-7.37,5.18,.98-3.29,1.74-5.84,2.59-8.67-2.12-1.58-4.26-3.17-7.19-5.34h8.88c1.01-2.9,1.92-5.52,3.09-8.85,1.09,3.16,1.98,5.71,2.96,8.55h9.33c-3.07,2.33-5.13,3.9-7.46,5.67,.78,2.59,1.56,5.21,2.59,8.64Z"/>
      <path class="cls-2" d="M65.61,87.72c1.04-3.42,1.81-5.96,2.63-8.67-2.19-1.67-4.3-3.29-7.12-5.45h8.86c.99-2.88,1.9-5.51,3.03-8.8,1.09,3.15,1.99,5.74,2.94,8.49h9.41c-3.03,2.32-5.18,3.96-7.49,5.73,.76,2.58,1.51,5.12,2.53,8.56-2.79-1.92-4.84-3.34-7.36-5.07-2.1,1.47-4.36,3.05-7.44,5.2Z"/>
      <path class="cls-2" d="M109.33,157.52c.7,2.57,1.33,4.88,2.29,8.41-2.99-2.01-4.95-3.33-7.06-4.74-2.26,1.43-4.53,2.86-7.55,4.77,1.13-3.51,1.89-5.88,2.69-8.39-2.23-1.64-4.28-3.15-7.23-5.33h8.85c1.04-2.84,1.94-5.31,3.14-8.6,1.16,3.18,2.04,5.61,3.02,8.3h9.34c-3.07,2.29-5.15,3.83-7.5,5.58Z"/>
      <path class="cls-2" d="M97.91,103.07c.45-2.7,.89-5.39,1.42-8.58-1.79-1.36-3.89-2.97-6.81-5.2h8.89c1-2.82,1.88-5.3,3.05-8.61,1.16,3.25,2.04,5.69,3.02,8.42h9.3c-3.06,2.27-5.14,3.81-7.42,5.49,.63,2.43,1.26,4.83,2.2,8.44-3.02-2.05-5-3.38-7.16-4.85-2.21,1.63-4.37,3.23-6.53,4.82l.04,.06Z"/>
      <path class="cls-2" d="M60.86,136.3h9.18c.93-2.7,1.84-5.33,2.96-8.59,1.11,3.14,2.02,5.74,2.99,8.48h9.48c-3.12,2.3-5.31,3.92-7.62,5.62,.79,2.72,1.55,5.37,2.53,8.75-2.86-2.03-5.03-3.58-7.33-5.21-2.31,1.63-4.51,3.17-7.37,5.18,.97-3.3,1.73-5.91,2.54-8.66-2.19-1.66-4.32-3.27-7.37-5.58Z"/>
      <path class="cls-2" d="M135.9,145.38c-2.35,1.65-4.45,3.13-7.32,5.15,.97-3.34,1.72-5.91,2.52-8.65-2.15-1.63-4.28-3.25-7.11-5.39h8.86c.99-2.85,1.9-5.47,3.06-8.83,1.1,3.19,1.98,5.75,2.96,8.59h9.22c-2.95,2.26-5.13,3.94-7.38,5.66,.81,2.66,1.59,5.21,2.63,8.61-2.9-2-5.06-3.5-7.44-5.15Z"/>
      <path class="cls-2" d="M160.5,70.74c.63-2.37,1.25-4.74,1.98-7.51-2.12-1.58-4.31-3.23-7.27-5.44h9.13c.94-2.71,1.81-5.24,2.98-8.63,1.13,3.19,2,5.65,3.01,8.48h9.33c-3.03,2.29-5.13,3.88-7.44,5.62,.74,2.6,1.47,5.13,2.45,8.56-2.89-1.97-5.05-3.45-7.21-4.93-2.33,1.46-4.49,2.81-6.65,4.17-.1-.11-.21-.21-.31-.32Z"/>
      <path class="cls-2" d="M99.64,63.3c-2.32-1.77-4.41-3.38-7.17-5.49h8.92c.97-2.65,1.88-5.12,3.09-8.44,1.17,3.21,2.05,5.64,3,8.26h9.23c-2.98,2.29-5.12,3.93-7.33,5.62,.67,2.57,1.31,4.99,2.23,8.49-2.89-2.02-4.86-3.39-7.1-4.96-2.15,1.48-4.33,2.99-7.37,5.09,.96-3.31,1.68-5.78,2.49-8.59Z"/>
      <path class="cls-2" d="M172.23,126.1c.72,2.64,1.37,5.06,2.29,8.44-2.9-1.96-4.97-3.36-7.16-4.83-2.26,1.53-4.45,3-7.41,5,1.02-3.35,1.77-5.81,2.59-8.53-2.19-1.65-4.33-3.25-7.11-5.35h8.84c.99-2.85,1.86-5.37,3.02-8.73,1.18,3.22,2.1,5.76,3.09,8.47h9.16c-2.86,2.16-4.93,3.73-7.32,5.54Z"/>
      <path class="cls-2" d="M34.81,133.96c.6-2.59,1.19-5.18,1.82-7.9-2.14-1.63-4.26-3.25-6.95-5.3h8.89c.95-2.76,1.85-5.36,3.02-8.75,1.14,3.28,2,5.76,2.98,8.58h9.18c-2.91,2.22-5,3.81-7.34,5.59,.81,2.66,1.62,5.31,2.65,8.7-2.78-1.95-4.94-3.47-7.2-5.07-2.37,1.36-4.74,2.72-7.12,4.08,0,0,.07,.07,.07,.07Z"/>
      <path class="cls-2" d="M111.04,133.98c-2.15-1.37-4.3-2.74-6.62-4.22-2.07,1.41-4.17,2.84-7.14,4.86,.91-3.38,1.59-5.88,2.3-8.51-2.2-1.68-4.31-3.29-7.13-5.44h9.02c.99-2.83,1.86-5.32,3.02-8.64,1.16,3.3,2.02,5.78,2.96,8.44h9.33c-3.02,2.3-5.15,3.92-7.39,5.63,.69,2.58,1.35,5.04,2,7.51-.12,.12-.23,.24-.34,.37Z"/>
      <path class="cls-2" d="M123.99,42.13h8.91c.98-2.84,1.89-5.47,3.01-8.72,1.12,3.22,2.03,5.84,3.01,8.68h9.08c-2.89,2.17-4.98,3.74-7.28,5.47,.76,2.52,1.51,5.05,2.58,8.6-2.92-2.01-5.05-3.47-7.36-5.06-2.18,1.49-4.37,2.99-7.44,5.08,1.04-3.37,1.8-5.84,2.63-8.54-2.14-1.65-4.3-3.32-7.14-5.51Z"/>
      <path class="cls-2" d="M65.61,119.14c1.03-3.37,1.77-5.8,2.65-8.67-2.08-1.57-4.27-3.21-7.17-5.39h8.89c.99-2.89,1.9-5.53,3.03-8.81,1.09,3.12,2,5.71,3.01,8.59h9.18c-3,2.27-5.07,3.84-7.35,5.57,.73,2.47,1.48,5.01,2.55,8.66-2.94-2.07-5.05-3.55-7.36-5.17-2.18,1.53-4.36,3.06-7.44,5.22Z"/>
      <path class="cls-2" d="M174.04,39.86c-2.14-1.43-4.28-2.86-6.73-4.5-2.16,1.52-4.45,3.14-7.35,5.19,.95-3.2,1.72-5.79,2.56-8.64-2.07-1.61-4.15-3.22-6.91-5.37h8.59c1.02-2.77,1.96-5.34,3.18-8.68,1.15,3.27,2.03,5.76,2.98,8.44h9.09c-2.98,2.28-5.02,3.84-7.02,5.37,.54,2.87,1.05,5.57,1.56,8.27,0,0,.04-.07,.04-.07Z"/>
      <path class="cls-2" d="M138.98,105.06h8.83c-2.77,2.1-4.86,3.69-7.1,5.39,.78,2.57,1.55,5.11,2.65,8.71-3-2.13-5.13-3.65-7.39-5.25-2.23,1.55-4.43,3.07-7.46,5.18,1.03-3.39,1.79-5.89,2.63-8.65-2.12-1.59-4.26-3.2-7.02-5.28h8.67c1.03-2.9,1.97-5.52,3.14-8.82,1.11,3.18,2.02,5.77,3.05,8.71Z"/>
      <path class="cls-2" d="M162.6,94.79c-2.23-1.7-4.24-3.23-6.96-5.32h8.54c1.03-2.81,1.97-5.37,3.2-8.73,1.16,3.25,2.04,5.73,3.01,8.43h8.94c-2.9,2.28-4.93,3.88-7.05,5.55,.67,2.54,1.31,4.99,2.23,8.49-2.88-2.02-4.91-3.44-7.06-4.95-2.24,1.46-4.42,2.88-7.58,4.94,1.15-3.53,1.88-5.77,2.74-8.4Z"/>
      <path class="cls-2" d="M97.76,30.14c3.14-1.71,6.28-3.43,9.42-5.14,2.73,.69,5.45,1.38,8.31,2.11-1.82,1.41-3.88,3.01-6.09,4.72,.63,2.46,1.26,4.9,2.17,8.46-2.9-2.03-4.91-3.44-7.09-4.97-2.27,1.59-4.51,3.17-6.06,4.26-.22-3.13-.44-6.29-.66-9.44Z"/>
      <path class="cls-3" d="M4.39,177.67c.02-.29,.03-.57,.05-.86,36.39,.05,72.78,.1,109.18,.16,25.04,.04,50.08,.11,75.12,.17-1.31,.18-2.62,.51-3.93,.52-60.14,.02-120.28,.02-180.42,.02Z"/>
      <path class="cls-2" d="M65.95,53.48c4.89-4.06,9.77-8.11,14.66-12.17,1.17,.38,2.34,.76,3.83,1.24-2.2,1.68-4.3,3.29-6.6,5.05,.77,2.56,1.53,5.08,2.58,8.59-3.04-2.11-5.22-3.62-7.41-5.14-2.23,1.56-4.33,3.03-6.9,4.83-.08-1.12-.13-1.76-.18-2.41Z"/>
      <path class="cls-3" d="M9.62,145.85c1.02-3.32,2.05-6.65,3.07-9.97,2.88,.21,5.75,.41,9.36,.67-2.58,1.94-4.67,3.51-6.93,5.21,.62,2.61,1.24,5.18,1.85,7.75,0,0,.05-.04,.05-.04-2.47-1.2-4.95-2.41-7.42-3.61Z"/>
      <path class="cls-2" d="M111.38,133.61c.08,.28,.16,.55,.37,1.33-.45-.61-.58-.78-.71-.96,.11-.12,.23-.25,.34-.37Z"/>
      <path class="cls-2" d="M34.74,133.89c-.08,.13-.15,.26-.13,.22-.04,.03,.08-.06,.2-.15,0,0-.07-.07-.07-.07Z"/>
      <path class="cls-3" d="M189.66,142.07c.22,.17,.45,.35,.67,.52-.22,.13-.45,.18-.71,.16-.1-.23-.09-.46,.04-.68Z"/>
      <path class="cls-3" d="M16.98,149.5c.14,.12,.28,.23,.07,.06,.04,.23,.01,.07-.01-.09,0,0-.05,.04-.05,.04Z"/>
      <path class="cls-3" d="M189.62,108.05c.25-.02,.49,.03,.71,.16-.23,.18-.45,.36-.68,.54-.13-.23-.14-.46-.03-.7Z"/>
      <path class="cls-2" d="M97.88,103.02c-.15-.03-.3-.06-.2-.04-.08-.03,.07,.03,.23,.09,0,0-.03-.05-.03-.05Z"/>
      <path class="cls-2" d="M34.9,102.96h-.24c.09,.01,.19,.02,.29,.04,0,0-.05-.04-.05-.04Z"/>
      <path class="cls-2" d="M160.8,71.06c-.14,.17-.28,.34-1.01,1.23,.48-1.06,.59-1.3,.7-1.55,.1,.1,.2,.21,.31,.32Z"/>
      <path class="cls-2" d="M174,39.93c.18,0,.35,0,.15,0,.18,.13,.04,.03-.11-.08,0,0-.04,.08-.04,.08Z"/>
      <path class="cls-4" d="M4.47,211.88c1.6-.06,3.2-.17,4.8-.17,85.93,0,171.86,0,257.79-.02,1.6,0,3.2-.08,4.81-.13,0,0-.08,.28-.08,.28-.73,11.35-1.45,22.71-2.18,34.06-.25,.19-.51,.38-.76,.56-4.19-.12-8.37-.33-12.56-.33-79.92-.02-159.84-.02-239.77,0-1.59,0-3.18,.19-4.77,.3-2.19-9.57-4.42-19.14-6.55-28.73-.42-1.9-.5-3.88-.73-5.82Z"/>
      <path class="cls-1" d="M11.76,246.42c1.59-.1,3.18-.3,4.77-.3,79.92-.01,159.84-.02,239.77,0,4.19,0,8.37,.22,12.56,.33-1.48,11.35-2.96,22.71-4.43,34.06-.24,.08-.49,.16-.73,.24-2.71-.04-5.42-.12-8.14-.12-76.8-.01-153.6-.01-230.39-.02-4.47-11.4-8.93-22.8-13.4-34.2Z"/>
      <path class="cls-5" d="M25.16,280.62c76.8,0,153.6,0,230.39,.02,2.71,0,5.42,.08,8.14,.12-2.72,11.45-5.43,22.89-8.15,34.34-.25,.13-.5,.26-.75,.39-1.23-.05-2.46-.13-3.69-.13-63.85-.04-127.7-.08-191.55-.11-3.57,0-7.14,.12-10.7,.19-2-2.07-4.41-3.87-5.93-6.24-6.07-9.43-11.86-19.04-17.75-28.58Z"/>
      <path class="cls-7" d="M269.61,245.9c.73-11.35,1.45-22.71,2.18-34.06,36.78,.01,73.55,.03,110.33,.04-2.18,11.37-4.37,22.74-6.55,34.12-35.32-.03-70.64-.06-105.96-.09Z"/>
      <path class="cls-5" d="M85.99,349.55c48.87,.01,97.74,.02,146.61,.05,2.46,0,4.92,.1,7.38,.15-5.4,7.06-9.97,15.03-16.43,20.93-5.78,5.28-13.65,8.28-20.59,12.28-19.85,1.83-39.29-.84-58.43-5.81-19.91-5.17-38.44-13.59-55.57-25.01-1.08-.72-1.98-1.72-2.96-2.58Z"/>
      <path class="cls-3" d="M269.61,245.9c35.32,.03,70.64,.06,105.96,.09-4.69,11.54-9.39,23.08-14.08,34.63-.25,.06-.5,.11-.76,.17-3.44-.04-6.88-.12-10.33-.12-28.66-.06-57.32-.1-85.99-.14,1.48-11.35,2.96-22.71,4.43-34.06,.25-.19,.51-.38,.76-.56Z"/>
      <path class="cls-7" d="M264.42,280.52c28.66,.05,57.32,.09,85.99,.14,3.44,0,6.88,.08,10.33,.12,.03,.5,.05,.99,.08,1.49-7.43,11.05-14.87,22.1-22.3,33.14-1.59-.06-3.18-.18-4.78-.18-26.06-.05-52.13-.09-78.19-.14,2.72-11.45,5.43-22.89,8.15-34.34,.24-.08,.49-.16,.73-.24Z"/>
      <path class="cls-2" d="M255.54,315.1c26.06,.04,52.13,.08,78.19,.14,1.59,0,3.18,.12,4.78,.18-12.61,11.37-25.23,22.75-37.84,34.12-.23,.09-.46,.18-.69,.27-19.51-.12-39.01-.24-58.52-.36,3.82-9.1,7.69-18.17,11.43-27.31,.87-2.12,1.29-4.44,1.91-6.66,.25-.13,.5-.26,.75-.39Z"/>
      <path class="cls-7" d="M241.46,349.46c19.51,.12,39.01,.24,58.52,.36,0,.13,0,.26,0,.39-17.23,12.69-36.4,21.51-57.07,26.48-13.06,3.14-26.61,4.25-39.94,6.27,6.95-4.01,14.81-7,20.59-12.28,6.46-5.9,11.04-13.86,16.43-20.93,.49-.09,.98-.19,1.47-.28Z"/>
      <path class="cls-5" d="M360.81,282.28c-.03-.5-.05-.99-.08-1.49,.25-.06,.5-.11,.76-.17-.23,.55-.45,1.11-.68,1.66Z"/>
      <path class="cls-5" d="M299.97,350.2c0-.13,0-.26,0-.39,.23-.09,.46-.18,.69-.27-.23,.22-.46,.44-.69,.66Z"/>
      <path class="cls-7" d="M271.83,176.9c-.74-11.34-1.48-22.67-2.22-34.01,1.6-.05,3.19-.14,4.79-.14,33.72-.04,67.45-.06,101.17-.09,2.2,11.39,4.39,22.78,6.59,34.16-20.49,.08-40.97,.21-61.46,.23-16.29,.02-32.58-.1-48.87-.15Z"/>
      <path class="cls-3" d="M375.58,142.66c-33.72,.03-67.45,.05-101.17,.09-1.6,0-3.19,.09-4.79,.14l-.77-.33c-1.48-11.44-2.96-22.88-4.44-34.31,1.48-.06,2.95-.16,4.43-.16,31.1-.04,62.19-.06,93.29-.09,4.48,11.56,8.96,23.12,13.44,34.67Z"/>
      <path class="cls-7" d="M362.13,107.99c-31.1,.03-62.19,.06-93.29,.09-1.48,0-2.95,.11-4.43,.16l-.72-.29c-2.2-9.66-4.42-19.32-6.59-28.99-.37-1.66-.55-3.37-.82-5.05,4.8-.05,9.59-.14,14.39-.16,22.88-.1,45.76-.18,68.64-.27,7.61,11.5,15.22,23,22.83,34.5Z"/>
      <path class="cls-3" d="M339.31,73.48c-22.88,.09-45.76,.17-68.64,.27-4.8,.02-9.59,.1-14.39,.16-.26-.17-.53-.34-.79-.51-4.68-11.38-9.36-22.77-14.04-34.15,20.22-.06,40.45-.11,60.67-.17,6.49,5.11,13.34,9.85,19.38,15.45,6.34,5.88,11.9,12.6,17.81,18.96Z"/>
      <circle class="cls-10" cx="193.96" cy="193.96" r="189.96"/>
    </g>
  </g>
</svg>