<?xml version="1.0" encoding="UTF-8"?>
<svg id="Layer_2" data-name="Layer 2" xmlns="http://www.w3.org/2000/svg" viewBox="0 0 387.92 387.92">
  <defs>
    <style>
      .cls-1 {
        fill: #ec3432;
      }

      .cls-2 {
        fill: #fccc0c;
      }

      .cls-3 {
        fill: #e02a28;
      }

      .cls-4 {
        fill: none;
        stroke: #292929;
        stroke-miterlimit: 10;
        stroke-width: 8px;
      }
    </style>
  </defs>
  <g id="Layer_1-2" data-name="Layer 1">
    <g>
      <path class="cls-1" d="M179.51,4.68c9.88,0,19.76,0,29.63,0,1.74,.44,3.48,.88,5.22,1.32,17,13.05,27.46,30.65,34.84,50.34,7.99,21.32,13.27,43.33,16.15,65.87,1.87,14.62,3.05,29.33,4.54,44h-54.03c-7.43-22.8-14.74-45.27-22.48-69.04-7.8,23.94-15.12,46.41-22.56,69.28H97.91c20.42,14.84,39.62,28.78,58.97,42.85-7.41,22.87-14.71,45.39-22.46,69.33,20.42-14.82,39.55-28.72,58.95-42.8,19.4,14.08,38.65,28.06,58.95,42.79-7.77-23.95-15.09-46.55-22.51-69.41,13.68-9.83,27.19-19.54,40.7-29.25-.44,16.6-.62,33.22-1.38,49.8-1.29,27.88-5.69,55.29-13.29,82.17-7.68,27.17-18.19,52.69-41.48,70.71-21.93,2.98-43.62,1.05-64.89-4.34-47.12-11.96-84.83-38.03-111.72-78.55C5.43,251.07-3.64,197.65,13.31,141.81,35.37,69.11,85.03,24.68,159.38,8.26c6.65-1.47,13.42-2.4,20.13-3.58Z"/>
      <path class="cls-3" d="M269.89,166.22c-1.49-14.67-2.67-29.38-4.54-44-2.89-22.54-8.17-44.56-16.15-65.87-7.38-19.7-17.83-37.29-34.84-50.34,13.01,2.62,26.53,3.75,38.94,8.1,69.02,24.2,111.78,72.23,127.69,143.79,1.64,7.36,2.5,14.9,3.73,22.36v28.15c-.23,.51-.57,1-.68,1.54-3.14,15.04-4.84,30.55-9.65,45.03-15.18,45.77-44.48,80.51-86.28,104.46-22.82,13.07-47.4,21.08-73.75,23.23,23.29-18.02,33.8-43.54,41.48-70.71,7.6-26.87,12-54.29,13.29-82.17,.77-16.59,.94-33.2,1.38-49.8,5.72-4.28,11.45-8.56,18.4-13.76h-19.03Z"/>
      <path class="cls-2" d="M269.89,166.22h19.03c-6.96,5.2-12.68,9.48-18.4,13.76-13.51,9.71-27.02,19.42-40.7,29.25,7.41,22.86,14.74,45.46,22.51,69.41-20.3-14.74-39.55-28.71-58.95-42.79-19.4,14.08-38.53,27.98-58.95,42.8,7.76-23.94,15.05-46.46,22.46-69.33-19.35-14.06-38.55-28.01-58.97-42.85h72.89c7.45-22.86,14.77-45.34,22.56-69.28,7.74,23.76,15.06,46.23,22.48,69.04h54.03Z"/>
      <circle class="cls-4" cx="193.96" cy="193.96" r="189.96"/>
    </g>
  </g>
</svg>