<svg width="48" height="36" viewBox="0 0 48 36" fill="none" xmlns="http://www.w3.org/2000/svg">
<path d="M3.21555 31.7982C5.35925 33.9419 7.86024 35.0138 10.9567 35.0138C13.9341 35.0138 16.435 33.9419 18.5787 31.7982C20.7224 29.6545 21.7943 27.1535 21.7943 24.0571C21.7943 21.6752 21.0797 19.6506 19.8888 17.9833C18.5787 16.3159 17.2687 15.125 15.8396 14.5295L21.7943 5.35925L13.815 0L3.09646 15.8396C2.02461 17.5069 1.19094 18.8169 0.714567 20.0079C0.238189 21.1988 0 22.6279 0 24.0571C0 27.1535 1.07185 29.6545 3.21555 31.7982ZM29.2972 31.7982C31.4409 33.9419 33.9419 35.0138 37.0384 35.0138C40.0157 35.0138 42.5167 33.9419 44.6604 31.7982C46.8041 29.6545 47.876 27.1535 47.876 24.0571C47.876 21.6752 47.1614 19.6506 45.9705 17.9833C44.6604 16.3159 43.3504 15.125 41.9212 14.5295L47.876 5.35925L39.8966 0L29.1781 15.8396C28.1063 17.5069 27.2726 18.8169 26.7963 20.0079C26.3199 21.1988 26.0817 22.6279 26.0817 24.0571C26.0817 27.1535 27.1535 29.6545 29.2972 31.7982Z" fill="url(#paint0_linear_2306_1972)"/>
<defs>
<linearGradient id="paint0_linear_2306_1972" x1="23.938" y1="0" x2="23.938" y2="35.0138" gradientUnits="userSpaceOnUse">
<stop stop-color="#FF7E35"/>
<stop offset="1" stop-color="#FFC75B"/>
</linearGradient>
</defs>
</svg>
