<svg width="562" height="286" viewBox="0 0 562 286" fill="none" xmlns="http://www.w3.org/2000/svg">
<g clip-path="url(#clip0_1288_2311)">
<path d="M96.8566 50.5127H102.762C102.897 50.4957 103.02 50.4301 103.11 50.3283C103.2 50.2265 103.249 50.0954 103.249 49.9597C103.249 49.824 103.2 49.693 103.11 49.5912C103.02 49.4894 102.897 49.4238 102.762 49.4067H96.8566C96.7221 49.4238 96.5984 49.4894 96.5088 49.5912C96.4191 49.693 96.3697 49.824 96.3697 49.9597C96.3697 50.0954 96.4191 50.2265 96.5088 50.3283C96.5984 50.4301 96.7221 50.4957 96.8566 50.5127Z" fill="white"/>
<path d="M100.357 52.9194V47.0001C100.34 46.8655 100.275 46.7418 100.173 46.652C100.071 46.5623 99.9405 46.5128 99.8049 46.5128C99.6693 46.5128 99.5384 46.5623 99.4367 46.652C99.335 46.7418 99.2694 46.8655 99.2524 47.0001V52.9194C99.2694 53.054 99.335 53.1778 99.4367 53.2675C99.5384 53.3572 99.6693 53.4067 99.8049 53.4067C99.9405 53.4067 100.071 53.3572 100.173 53.2675C100.275 53.1778 100.34 53.054 100.357 52.9194Z" fill="white"/>
<path d="M487.74 78.7465H493.645C493.78 78.7294 493.903 78.6638 493.993 78.562C494.083 78.4602 494.132 78.3292 494.132 78.1935C494.132 78.0578 494.083 77.9268 493.993 77.825C493.903 77.7232 493.78 77.6576 493.645 77.6405H487.74C487.605 77.6576 487.482 77.7232 487.392 77.825C487.302 77.9268 487.253 78.0578 487.253 78.1935C487.253 78.3292 487.302 78.4602 487.392 78.562C487.482 78.6638 487.605 78.7294 487.74 78.7465Z" fill="white"/>
<path d="M491.241 81.1886V75.2693C491.224 75.1347 491.158 75.0109 491.056 74.9212C490.955 74.8315 490.824 74.782 490.688 74.782C490.552 74.782 490.422 74.8315 490.32 74.9212C490.218 75.0109 490.153 75.1347 490.135 75.2693V81.1886C490.153 81.3232 490.218 81.447 490.32 81.5367C490.422 81.6264 490.552 81.6759 490.688 81.6759C490.824 81.6759 490.955 81.6264 491.056 81.5367C491.158 81.447 491.224 81.3232 491.241 81.1886Z" fill="white"/>
<path d="M110.206 27.7471H116.12C116.255 27.73 116.378 27.6645 116.468 27.5626C116.558 27.4608 116.607 27.3298 116.607 27.1941C116.607 27.0584 116.558 26.9274 116.468 26.8256C116.378 26.7238 116.255 26.6582 116.12 26.6411H110.206C110.071 26.6582 109.948 26.7238 109.858 26.8256C109.768 26.9274 109.719 27.0584 109.719 27.1941C109.719 27.3298 109.768 27.4608 109.858 27.5626C109.948 27.6645 110.071 27.73 110.206 27.7471Z" fill="white"/>
<path d="M113.715 30.1538V24.2345C113.698 24.0999 113.633 23.9761 113.531 23.8864C113.429 23.7967 113.299 23.7472 113.163 23.7472C113.027 23.7472 112.896 23.7967 112.795 23.8864C112.693 23.9761 112.627 24.0999 112.61 24.2345V30.1538C112.627 30.2884 112.693 30.4122 112.795 30.5019C112.896 30.5916 113.027 30.6411 113.163 30.6411C113.299 30.6411 113.429 30.5916 113.531 30.5019C113.633 30.4122 113.698 30.2884 113.715 30.1538Z" fill="white"/>
<path d="M442.07 182.409H447.984C448.118 182.392 448.242 182.326 448.332 182.224C448.421 182.122 448.471 181.991 448.471 181.856C448.471 181.72 448.421 181.589 448.332 181.487C448.242 181.385 448.118 181.32 447.984 181.303H442.07C441.935 181.32 441.811 181.385 441.722 181.487C441.632 181.589 441.583 181.72 441.583 181.856C441.583 181.991 441.632 182.122 441.722 182.224C441.811 182.326 441.935 182.392 442.07 182.409Z" fill="white"/>
<path d="M445.562 184.815V178.905C445.545 178.77 445.479 178.646 445.377 178.557C445.276 178.467 445.145 178.417 445.009 178.417C444.874 178.417 444.743 178.467 444.641 178.557C444.539 178.646 444.474 178.77 444.457 178.905V184.815C444.474 184.95 444.539 185.074 444.641 185.163C444.743 185.253 444.874 185.303 445.009 185.303C445.145 185.303 445.276 185.253 445.377 185.163C445.479 185.074 445.545 184.95 445.562 184.815Z" fill="white"/>
<path d="M150.633 155.723H156.548C156.682 155.706 156.806 155.641 156.896 155.539C156.985 155.437 157.035 155.306 157.035 155.17C157.035 155.035 156.985 154.904 156.896 154.802C156.806 154.7 156.682 154.634 156.548 154.617H150.633C150.499 154.634 150.375 154.7 150.286 154.802C150.196 154.904 150.147 155.035 150.147 155.17C150.147 155.306 150.196 155.437 150.286 155.539C150.375 155.641 150.499 155.706 150.633 155.723Z" fill="white"/>
<path d="M154.143 158.086V152.184C154.126 152.049 154.061 151.926 153.959 151.836C153.857 151.746 153.726 151.697 153.591 151.697C153.455 151.697 153.324 151.746 153.222 151.836C153.121 151.926 153.055 152.049 153.038 152.184V158.103C153.055 158.238 153.121 158.362 153.222 158.451C153.324 158.541 153.455 158.591 153.591 158.591C153.726 158.591 153.857 158.541 153.959 158.451C154.061 158.362 154.126 158.238 154.143 158.103V158.086Z" fill="white"/>
<path d="M388.222 113.528H394.136C394.271 113.511 394.395 113.445 394.484 113.343C394.574 113.241 394.623 113.11 394.623 112.975C394.623 112.839 394.574 112.708 394.484 112.606C394.395 112.504 394.271 112.439 394.136 112.422H388.222C388.088 112.439 387.964 112.504 387.874 112.606C387.785 112.708 387.735 112.839 387.735 112.975C387.735 113.11 387.785 113.241 387.874 113.343C387.964 113.445 388.088 113.511 388.222 113.528Z" fill="white"/>
<path d="M391.732 115.908V109.997C391.715 109.863 391.649 109.739 391.547 109.649C391.446 109.56 391.315 109.51 391.179 109.51C391.044 109.51 390.913 109.56 390.811 109.649C390.709 109.739 390.644 109.863 390.627 109.997V115.908C390.644 116.042 390.709 116.166 390.811 116.256C390.913 116.346 391.044 116.395 391.179 116.395C391.315 116.395 391.446 116.346 391.547 116.256C391.649 116.166 391.715 116.042 391.732 115.908Z" fill="white"/>
<path d="M402.827 4.04349H408.732C408.867 4.02643 408.99 3.96084 409.08 3.85904C409.17 3.75723 409.219 3.62619 409.219 3.49049C409.219 3.3548 409.17 3.22376 409.08 3.12195C408.99 3.02015 408.867 2.95456 408.732 2.9375H402.827C402.692 2.95456 402.568 3.02015 402.479 3.12195C402.389 3.22376 402.34 3.3548 402.34 3.49049C402.34 3.62619 402.389 3.75723 402.479 3.85904C402.568 3.96084 402.692 4.02643 402.827 4.04349Z" fill="white"/>
<path d="M406.327 6.45016V0.530909C406.31 0.396288 406.245 0.272514 406.143 0.182797C406.041 0.0930789 405.91 0.0435791 405.775 0.0435791C405.639 0.0435791 405.508 0.0930789 405.407 0.182797C405.305 0.272514 405.239 0.396288 405.222 0.530909V6.45016C405.239 6.58478 405.305 6.70856 405.407 6.79828C405.508 6.88799 405.639 6.93749 405.775 6.93749C405.91 6.93749 406.041 6.88799 406.143 6.79828C406.245 6.70856 406.31 6.58478 406.327 6.45016Z" fill="white"/>
<path d="M179.462 81.7371H185.377C185.511 81.72 185.635 81.6545 185.724 81.5526C185.814 81.4508 185.864 81.3198 185.864 81.1841C185.864 81.0484 185.814 80.9174 185.724 80.8156C185.635 80.7138 185.511 80.6482 185.377 80.6311H179.462C179.328 80.6482 179.204 80.7138 179.115 80.8156C179.025 80.9174 178.975 81.0484 178.975 81.1841C178.975 81.3198 179.025 81.4508 179.115 81.5526C179.204 81.6545 179.328 81.72 179.462 81.7371Z" fill="white"/>
<path d="M182.999 84.1437V78.2333C182.981 78.0987 182.916 77.9749 182.814 77.8852C182.713 77.7955 182.582 77.746 182.446 77.746C182.31 77.746 182.179 77.7955 182.078 77.8852C181.976 77.9749 181.911 78.0987 181.893 78.2333V84.1437C181.911 84.2783 181.976 84.4021 182.078 84.4918C182.179 84.5815 182.31 84.631 182.446 84.631C182.582 84.631 182.713 84.5815 182.814 84.4918C182.916 84.4021 182.981 84.2783 182.999 84.1437Z" fill="white"/>
<path d="M36.7323 156.219H42.6378C42.7723 156.202 42.896 156.136 42.9856 156.034C43.0753 155.933 43.1247 155.801 43.1247 155.666C43.1247 155.53 43.0753 155.399 42.9856 155.297C42.896 155.195 42.7723 155.13 42.6378 155.113H36.7323C36.5978 155.13 36.4742 155.195 36.3845 155.297C36.2949 155.399 36.2454 155.53 36.2454 155.666C36.2454 155.801 36.2949 155.933 36.3845 156.034C36.4742 156.136 36.5978 156.202 36.7323 156.219Z" fill="white"/>
<path d="M40.2332 158.625V152.706C40.2161 152.571 40.1506 152.448 40.0489 152.358C39.9471 152.268 39.8162 152.219 39.6806 152.219C39.545 152.219 39.4141 152.268 39.3124 152.358C39.2107 152.448 39.1451 152.571 39.1281 152.706V158.625C39.1451 158.76 39.2107 158.884 39.3124 158.973C39.4141 159.063 39.545 159.113 39.6806 159.113C39.8162 159.113 39.9471 159.063 40.0489 158.973C40.1506 158.884 40.2161 158.76 40.2332 158.625Z" fill="white"/>
<path d="M60.9995 99.1586H89.3687C89.5032 99.1415 89.6269 99.076 89.7165 98.9741C89.8062 98.8723 89.8556 98.7413 89.8556 98.6056C89.8556 98.4699 89.8062 98.3389 89.7165 98.2371C89.6269 98.1353 89.5032 98.0697 89.3687 98.0526H60.9995C60.865 98.0697 60.7413 98.1353 60.6517 98.2371C60.562 98.3389 60.5126 98.4699 60.5126 98.6056C60.5126 98.7413 60.562 98.8723 60.6517 98.9741C60.7413 99.076 60.865 99.1415 60.9995 99.1586Z" fill="#5E452C"/>
<path d="M84.7186 107.838H117.95C118.085 107.821 118.208 107.756 118.298 107.654C118.388 107.552 118.437 107.421 118.437 107.285C118.437 107.15 118.388 107.019 118.298 106.917C118.208 106.815 118.085 106.749 117.95 106.732H84.7186C84.5841 106.749 84.4604 106.815 84.3708 106.917C84.2812 107.019 84.2317 107.15 84.2317 107.285C84.2317 107.421 84.2812 107.552 84.3708 107.654C84.4604 107.756 84.5841 107.821 84.7186 107.838Z" fill="#5E452C"/>
<path d="M98.8104 99.1586H148.317C148.452 99.1415 148.575 99.076 148.665 98.9741C148.755 98.8723 148.804 98.7413 148.804 98.6056C148.804 98.4699 148.755 98.3389 148.665 98.2371C148.575 98.1353 148.452 98.0697 148.317 98.0526H98.8104C98.6759 98.0697 98.5522 98.1353 98.4626 98.2371C98.3729 98.3389 98.3235 98.4699 98.3235 98.6056C98.3235 98.7413 98.3729 98.8723 98.4626 98.9741C98.5522 99.076 98.6759 99.1415 98.8104 99.1586Z" fill="#5E452C"/>
<path d="M186.199 168.11H256.419C256.553 168.093 256.677 168.028 256.767 167.926C256.856 167.824 256.906 167.693 256.906 167.557C256.906 167.422 256.856 167.291 256.767 167.189C256.677 167.087 256.553 167.021 256.419 167.004H186.199C186.064 167.021 185.941 167.087 185.851 167.189C185.761 167.291 185.712 167.422 185.712 167.557C185.712 167.693 185.761 167.824 185.851 167.926C185.941 168.028 186.064 168.093 186.199 168.11Z" fill="#5E452C"/>
<path d="M145.771 168.11H177.747C177.882 168.093 178.005 168.028 178.095 167.926C178.185 167.824 178.234 167.693 178.234 167.557C178.234 167.422 178.185 167.291 178.095 167.189C178.005 167.087 177.882 167.021 177.747 167.004H145.771C145.637 167.021 145.513 167.087 145.423 167.189C145.334 167.291 145.284 167.422 145.284 167.557C145.284 167.693 145.334 167.824 145.423 167.926C145.513 168.028 145.637 168.093 145.771 168.11Z" fill="#5E452C"/>
<path d="M70.7241 200.042H0.53044C0.395932 200.06 0.272262 200.125 0.182619 200.227C0.0929764 200.329 0.0435181 200.46 0.0435181 200.595C0.0435181 200.731 0.0929764 200.862 0.182619 200.964C0.272262 201.066 0.395932 201.131 0.53044 201.148H70.7241C70.8586 201.131 70.9823 201.066 71.0719 200.964C71.1615 200.862 71.211 200.731 71.211 200.595C71.211 200.46 71.1615 200.329 71.0719 200.227C70.9823 200.125 70.8586 200.06 70.7241 200.042Z" fill="#5E452C"/>
<path d="M111.178 200.042H79.2021C79.0676 200.06 78.944 200.125 78.8543 200.227C78.7647 200.329 78.7152 200.46 78.7152 200.595C78.7152 200.731 78.7647 200.862 78.8543 200.964C78.944 201.066 79.0676 201.131 79.2021 201.148H111.178C111.313 201.131 111.436 201.066 111.526 200.964C111.616 200.862 111.665 200.731 111.665 200.595C111.665 200.46 111.616 200.329 111.526 200.227C111.436 200.125 111.313 200.06 111.178 200.042Z" fill="#5E452C"/>
<path d="M330.918 194.654H369.188C369.323 194.637 369.447 194.571 369.536 194.47C369.626 194.368 369.675 194.237 369.675 194.101C369.675 193.965 369.626 193.834 369.536 193.733C369.447 193.631 369.323 193.565 369.188 193.548H330.918C330.783 193.565 330.66 193.631 330.57 193.733C330.48 193.834 330.431 193.965 330.431 194.101C330.431 194.237 330.48 194.368 330.57 194.47C330.66 194.571 330.783 194.637 330.918 194.654Z" fill="#5E452C"/>
<path d="M356.485 185.461H394.755C394.89 185.444 395.013 185.379 395.103 185.277C395.193 185.175 395.242 185.044 395.242 184.908C395.242 184.773 395.193 184.641 395.103 184.54C395.013 184.438 394.89 184.372 394.755 184.355H356.485C356.35 184.372 356.226 184.438 356.137 184.54C356.047 184.641 355.998 184.773 355.998 184.908C355.998 185.044 356.047 185.175 356.137 185.277C356.226 185.379 356.35 185.444 356.485 185.461Z" fill="#5E452C"/>
<path d="M375.35 194.654H396.647C396.782 194.637 396.905 194.571 396.995 194.47C397.085 194.368 397.134 194.237 397.134 194.101C397.134 193.965 397.085 193.834 396.995 193.733C396.905 193.631 396.782 193.565 396.647 193.548H375.35C375.216 193.565 375.092 193.631 375.003 193.733C374.913 193.834 374.863 193.965 374.863 194.101C374.863 194.237 374.913 194.368 375.003 194.47C375.092 194.571 375.216 194.637 375.35 194.654Z" fill="#5E452C"/>
<path d="M543.364 196.008H505.094C504.959 196.025 504.835 196.09 504.746 196.192C504.656 196.294 504.607 196.425 504.607 196.561C504.607 196.697 504.656 196.828 504.746 196.929C504.835 197.031 504.959 197.097 505.094 197.114H543.364C543.499 197.097 543.622 197.031 543.712 196.929C543.802 196.828 543.851 196.697 543.851 196.561C543.851 196.425 543.802 196.294 543.712 196.192C543.622 196.09 543.499 196.025 543.364 196.008Z" fill="#5E452C"/>
<path d="M498.932 196.008H477.635C477.501 196.025 477.377 196.09 477.287 196.192C477.198 196.294 477.148 196.425 477.148 196.561C477.148 196.697 477.198 196.828 477.287 196.929C477.377 197.031 477.501 197.097 477.635 197.114H498.932C499.066 197.097 499.19 197.031 499.28 196.929C499.369 196.828 499.419 196.697 499.419 196.561C499.419 196.425 499.369 196.294 499.28 196.192C499.19 196.09 499.066 196.025 498.932 196.008Z" fill="#5E452C"/>
<path d="M416.839 113.094H455.109C455.244 113.077 455.368 113.011 455.457 112.91C455.547 112.808 455.596 112.677 455.596 112.541C455.596 112.405 455.547 112.274 455.457 112.172C455.368 112.071 455.244 112.005 455.109 111.988H416.839C416.704 112.005 416.581 112.071 416.491 112.172C416.401 112.274 416.352 112.405 416.352 112.541C416.352 112.677 416.401 112.808 416.491 112.91C416.581 113.011 416.704 113.077 416.839 113.094Z" fill="#5E452C"/>
<path d="M461.28 113.094H482.568C482.703 113.077 482.826 113.011 482.916 112.91C483.005 112.808 483.055 112.677 483.055 112.541C483.055 112.405 483.005 112.274 482.916 112.172C482.826 112.071 482.703 112.005 482.568 111.988H461.28C461.146 112.005 461.022 112.071 460.932 112.172C460.843 112.274 460.793 112.405 460.793 112.541C460.793 112.677 460.843 112.808 460.932 112.91C461.022 113.011 461.146 113.077 461.28 113.094Z" fill="#5E452C"/>
<g opacity="0.2">
<path d="M468.812 253.254C520.283 253.254 562.009 243.101 562.009 230.577C562.009 218.052 520.283 207.899 468.812 207.899C417.341 207.899 375.616 218.052 375.616 230.577C375.616 243.101 417.341 253.254 468.812 253.254Z" fill="#5E452C"/>
<path d="M173.159 232.921C171.476 233.233 169.973 234.171 168.953 235.546C167.933 236.922 167.471 238.633 167.66 240.336C167.66 240.531 167.66 240.734 167.66 240.929C167.66 253.457 133.253 263.606 90.8009 263.606C48.3488 263.606 13.968 253.457 13.968 240.929C13.968 228.4 48.3841 218.252 90.8274 218.252C94.9206 218.252 98.943 218.34 102.859 218.526C104.509 218.599 106.126 218.053 107.395 216.995C113.583 211.828 130.38 208.147 150.121 208.147C175.139 208.147 195.419 214.111 195.419 221.472C195.419 226.33 186.482 230.594 173.159 232.921Z" fill="#5E452C"/>
<path d="M153.586 143.779C178.609 143.779 198.894 137.813 198.894 130.454C198.894 123.095 178.609 117.129 153.586 117.129C128.563 117.129 108.279 123.095 108.279 130.454C108.279 137.813 128.563 143.779 153.586 143.779Z" fill="#5E452C"/>
<path d="M466.514 152.609C466.514 159.97 446.18 165.934 421.206 165.934C416.724 165.934 412.366 165.739 408.308 165.385C407.802 165.34 407.293 165.427 406.831 165.638C406.368 165.849 405.969 166.177 405.672 166.59C405.375 167.002 405.191 167.485 405.136 167.991C405.082 168.496 405.161 169.007 405.364 169.473C405.646 170.08 405.794 170.741 405.797 171.411C405.797 183.939 351.923 194.088 285.46 194.088C218.997 194.088 165.114 183.939 165.114 171.411C165.114 158.882 218.997 148.734 285.46 148.734C319.637 148.734 350.482 151.388 372.389 155.732C372.832 155.815 373.288 155.797 373.723 155.679C374.158 155.561 374.561 155.345 374.901 155.049C375.242 154.753 375.51 154.384 375.688 153.969C375.865 153.554 375.946 153.104 375.925 152.653V152.609C375.925 145.247 396.205 139.284 421.224 139.284C446.242 139.284 466.514 145.247 466.514 152.609Z" fill="#5E452C"/>
</g>
<path d="M231.568 49.9554H213.224L215.505 32.8435H229.287L231.568 49.9554Z" fill="#FF8A50"/>
<path opacity="0.2" d="M230.543 42.2488C228.04 43.6017 225.241 44.3101 222.396 44.3101C219.552 44.3101 216.752 43.6017 214.25 42.2488L215.505 32.8435H229.296L230.543 42.2488Z" fill="#5E452C"/>
<path d="M222.401 37.7187C231.843 37.7187 239.498 30.0575 239.498 20.6069C239.498 11.1562 231.843 3.495 222.401 3.495C212.958 3.495 205.303 11.1562 205.303 20.6069C205.303 30.0575 212.958 37.7187 222.401 37.7187Z" fill="#FF8A50"/>
<path d="M226.735 32.8537C233.501 30.4547 237.042 23.0211 234.645 16.2503C232.248 9.4795 224.82 5.93544 218.055 8.33444C211.29 10.7334 207.749 18.1671 210.146 24.9379C212.543 31.7087 219.97 35.2527 226.735 32.8537Z" fill="#FFD05C"/>
<g opacity="0.3">
<path d="M233.266 19.8547C233.143 18.3068 232.703 16.8008 231.973 15.4307C231.243 14.0606 230.238 12.8558 229.022 11.8916C227.795 10.938 226.388 10.2433 224.885 9.84947C223.382 9.4556 221.815 9.37072 220.279 9.59998C218.753 9.84006 217.295 10.4 216 11.2432C214.705 12.0864 213.602 13.1938 212.765 14.4929C211.881 15.8712 211.302 17.4225 211.065 19.043C210.829 20.6635 210.941 22.3158 211.394 23.8894C212.173 26.6187 213.997 28.9302 216.469 30.3218C218.882 31.6902 221.713 32.1247 224.425 31.5428C227.056 30.9786 229.413 29.5259 231.1 27.4285C232.769 25.3672 233.733 22.824 233.849 20.1732C233.849 20.0494 233.849 19.9432 233.743 19.9432C233.637 19.9432 233.628 20.0405 233.619 20.1644C233.56 21.2343 233.355 22.2911 233.009 23.3054C232.665 24.2973 232.199 25.2425 231.621 26.119C231.009 26.9842 230.293 27.7716 229.491 28.4637C228.663 29.1551 227.758 29.7488 226.794 30.2333C225.418 30.887 223.92 31.2438 222.397 31.2804C220.874 31.317 219.36 31.0326 217.954 30.4457C216.533 29.8451 215.258 28.9431 214.219 27.8021C213.18 26.6611 212.4 25.308 211.934 23.8363C211.459 22.3258 211.315 20.7307 211.511 19.1595C211.708 17.5884 212.241 16.0781 213.074 14.7318C213.876 13.4505 214.944 12.3567 216.205 11.5248C217.467 10.6928 218.892 10.1419 220.385 9.90965C222.383 9.59512 224.429 9.82329 226.309 10.5704C228.189 11.3174 229.835 12.556 231.073 14.1567C231.668 14.9984 232.149 15.9146 232.505 16.8818C232.85 17.8604 233.078 18.876 233.186 19.9078C233.186 19.9078 233.274 19.8901 233.266 19.8547Z" fill="#5E452C"/>
<path d="M231.745 19.8636C231.629 18.5359 231.243 17.2461 230.608 16.0742C229.974 14.9022 229.106 13.8731 228.059 13.0507C227.007 12.2403 225.805 11.6477 224.523 11.3074C223.24 10.9671 221.903 10.886 220.588 11.0687C219.274 11.2625 218.016 11.7324 216.896 12.4476C215.776 13.1628 214.82 14.1071 214.091 15.2184C213.313 16.4036 212.798 17.7417 212.58 19.1426C212.362 20.5436 212.446 21.975 212.826 23.3408C213.154 24.5249 213.714 25.6321 214.473 26.5981C215.232 27.5641 216.174 28.3696 217.247 28.9681C219.353 30.1573 221.825 30.526 224.186 30.0033C226.463 29.5228 228.504 28.2731 229.968 26.4641C231.402 24.6729 232.234 22.4744 232.346 20.1821C232.346 20.0759 232.302 19.9786 232.24 19.9786C232.178 19.9786 232.125 20.0582 232.116 20.1732C231.989 22.0176 231.371 23.7942 230.327 25.3189C229.282 26.8436 227.849 28.0608 226.176 28.8442C224.985 29.4239 223.686 29.7435 222.363 29.7816C221.04 29.8197 219.724 29.5756 218.502 29.0654C217.269 28.5482 216.165 27.7667 215.267 26.7761C214.369 25.7855 213.699 24.6098 213.304 23.3319C212.902 22.0263 212.786 20.6493 212.965 19.2949C213.143 17.9404 213.612 16.6405 214.338 15.4838C215.037 14.3945 215.961 13.468 217.049 12.7674C218.136 12.0667 219.361 11.6081 220.641 11.4227C222.36 11.1521 224.119 11.3448 225.738 11.9809C227.357 12.6169 228.778 13.6734 229.853 15.0415C230.37 15.7518 230.795 16.5247 231.117 17.3419C231.423 18.1763 231.63 19.0433 231.736 19.9255C231.736 19.9255 231.745 19.899 231.745 19.8636Z" fill="#5E452C"/>
<path d="M230.216 19.8724C230.103 18.7694 229.768 17.7008 229.232 16.7307C228.696 15.7605 227.969 14.909 227.095 14.2274C225.331 12.8801 223.109 12.2796 220.907 12.5551C219.807 12.703 218.751 13.0793 217.806 13.6598C216.86 14.2404 216.046 15.0123 215.417 15.9262C214.745 16.9232 214.294 18.0525 214.094 19.2382C213.895 20.4239 213.951 21.6387 214.259 22.801C214.526 23.8138 214.995 24.7622 215.638 25.5892C216.281 26.4163 217.083 27.1051 217.998 27.6143C219.793 28.6382 221.906 28.9538 223.921 28.4991C225.853 28.0642 227.576 26.9769 228.801 25.42C230.003 23.9012 230.705 22.0462 230.808 20.1113C230.808 20.0228 230.764 19.9432 230.702 19.9432C230.664 19.9497 230.629 19.9709 230.606 20.0022C230.583 20.0336 230.573 20.0727 230.578 20.1113C230.461 21.6637 229.937 23.1577 229.058 24.4425C228.18 25.7272 226.978 26.7572 225.574 27.4285C224.574 27.9296 223.478 28.2103 222.36 28.2515C221.242 28.2927 220.129 28.0935 219.094 27.6674C218.042 27.2366 217.099 26.5761 216.335 25.7343C215.57 24.8924 215.003 23.8903 214.674 22.801C214.347 21.6991 214.262 20.5393 214.426 19.4015C214.589 18.2636 214.996 17.1746 215.62 16.2093C216.213 15.3071 216.994 14.5441 217.91 13.9728C218.825 13.4016 219.854 13.0357 220.924 12.9002C222.344 12.7381 223.782 12.9108 225.124 13.4045C226.465 13.9123 227.643 14.7783 228.527 15.9085C228.962 16.4923 229.321 17.1284 229.597 17.802C229.858 18.4963 230.042 19.2173 230.145 19.952C230.145 19.952 230.225 19.8989 230.216 19.8724Z" fill="#5E452C"/>
<path d="M228.695 19.8901C228.586 19.0118 228.305 18.1638 227.866 17.3953C227.427 16.6268 226.841 15.953 226.14 15.413C224.729 14.3535 222.97 13.8668 221.216 14.0504C220.326 14.1522 219.467 14.4414 218.696 14.8988C217.925 15.3563 217.259 15.9717 216.743 16.7048C216.176 17.5132 215.791 18.4343 215.612 19.4055C215.434 20.3766 215.466 21.3748 215.708 22.3321C215.913 23.1747 216.291 23.9654 216.817 24.6539C217.344 25.3425 218.008 25.9137 218.767 26.3313C220.26 27.1666 222.012 27.4068 223.674 27.0038C225.259 26.6236 226.666 25.7119 227.661 24.4202C228.631 23.1709 229.198 21.6556 229.287 20.0759C229.287 19.9962 229.287 19.9343 229.19 19.9343C229.157 19.9365 229.125 19.9515 229.102 19.9762C229.079 20.0008 229.066 20.0333 229.066 20.067C228.949 21.3189 228.514 22.52 227.802 23.5561C227.091 24.5921 226.126 25.4287 225 25.9863C224.187 26.4119 223.291 26.6546 222.375 26.6974C221.459 26.7402 220.544 26.582 219.695 26.234C218.844 25.8784 218.083 25.3348 217.471 24.6438C216.859 23.9528 216.41 23.1323 216.159 22.2436C215.914 21.3474 215.866 20.4086 216.019 19.4921C216.172 18.5756 216.521 17.7031 217.043 16.9349C217.528 16.2219 218.161 15.623 218.9 15.1799C219.639 14.7368 220.466 14.4601 221.322 14.369C222.439 14.2696 223.564 14.4146 224.62 14.7937C225.682 15.1873 226.62 15.8596 227.334 16.7402C227.687 17.198 227.984 17.6971 228.218 18.2267C228.437 18.7781 228.6 19.3502 228.704 19.9343H228.748L228.695 19.8901Z" fill="#5E452C"/>
</g>
<path d="M352.878 49.9554H334.525L336.806 32.8435H350.597L352.878 49.9554Z" fill="#FF8A50"/>
<path opacity="0.2" d="M351.852 42.2488C349.35 43.6017 346.55 44.3101 343.706 44.3101C340.861 44.3101 338.062 43.6017 335.559 42.2488L336.823 32.8435H350.615L351.852 42.2488Z" fill="#5E452C"/>
<path d="M343.701 37.7187C353.144 37.7187 360.799 30.0575 360.799 20.6069C360.799 11.1562 353.144 3.495 343.701 3.495C334.259 3.495 326.604 11.1562 326.604 20.6069C326.604 30.0575 334.259 37.7187 343.701 37.7187Z" fill="#FF8A50"/>
<path d="M356.376 23.4716C357.957 16.465 353.564 9.50173 346.563 7.91885C339.562 6.33597 332.605 10.7328 331.023 17.7395C329.442 24.7462 333.835 31.7094 340.836 33.2923C347.837 34.8752 354.794 30.4783 356.376 23.4716Z" fill="#FFD05C"/>
<g opacity="0.3">
<path d="M354.566 19.8547C354.444 18.3068 354.004 16.8008 353.273 15.4307C352.543 14.0606 351.539 12.8558 350.323 11.8916C349.096 10.938 347.689 10.2433 346.186 9.84947C344.683 9.4556 343.116 9.37072 341.58 9.59998C340.053 9.84006 338.595 10.4 337.3 11.2432C336.005 12.0864 334.903 13.1938 334.065 14.4929C333.182 15.8712 332.602 17.4225 332.366 19.043C332.13 20.6635 332.242 22.3158 332.695 23.8894C333.474 26.6187 335.297 28.9302 337.769 30.3218C340.183 31.6902 343.014 32.1247 345.726 31.5428C348.358 30.9813 350.715 29.5281 352.4 27.4285C354.07 25.3672 355.033 22.824 355.15 20.1732C355.15 20.0494 355.15 19.9432 355.044 19.9432C354.938 19.9432 354.929 20.0405 354.92 20.1644C354.863 21.2339 354.661 22.2907 354.319 23.3054C353.958 24.3028 353.474 25.2511 352.878 26.1279C352.265 26.9931 351.55 27.7804 350.747 28.4726C349.921 29.1659 349.016 29.7598 348.051 30.2422C346.675 30.8959 345.176 31.2526 343.653 31.2892C342.13 31.3258 340.616 31.0414 339.21 30.4545C337.789 29.8539 336.515 28.952 335.476 27.811C334.436 26.6699 333.656 25.3169 333.19 23.8451C332.715 22.3347 332.571 20.7395 332.768 19.1684C332.965 17.5972 333.498 16.087 334.33 14.7406C335.133 13.4583 336.203 12.3639 337.466 11.5319C338.729 10.6999 340.156 10.1496 341.65 9.9185C343.655 9.59656 345.708 9.82013 347.597 10.5658C349.485 11.3114 351.138 12.5517 352.383 14.1567C352.979 14.9938 353.466 15.9036 353.833 16.8641C354.179 17.8476 354.405 18.8697 354.504 19.9078C354.504 19.9078 354.575 19.8901 354.566 19.8547Z" fill="#5E452C"/>
<path d="M353.046 19.8636C352.93 18.5359 352.543 17.2461 351.909 16.0742C351.275 14.9022 350.407 13.8731 349.359 13.0507C348.308 12.2403 347.106 11.6477 345.823 11.3074C344.541 10.9671 343.203 10.886 341.889 11.0687C340.575 11.2636 339.317 11.7339 338.197 12.449C337.078 13.1641 336.121 14.1078 335.391 15.2184C334.621 16.407 334.114 17.7466 333.903 19.1475C333.693 20.5484 333.784 21.9781 334.171 23.3408C334.499 24.5249 335.059 25.6321 335.818 26.5981C336.576 27.5641 337.519 28.3696 338.591 28.9681C340.698 30.1573 343.17 30.526 345.531 30.0033C347.807 29.5228 349.849 28.2731 351.313 26.4641C352.747 24.6729 353.579 22.4744 353.691 20.1821C353.691 20.0759 353.647 19.9786 353.585 19.9786C353.523 19.9786 353.47 20.0582 353.461 20.1732C353.334 22.0176 352.716 23.7942 351.671 25.3189C350.627 26.8436 349.194 28.0608 347.52 28.8442C346.33 29.4239 345.03 29.7435 343.707 29.7816C342.384 29.8197 341.068 29.5756 339.847 29.0654C338.614 28.5482 337.51 27.7667 336.612 26.7761C335.714 25.7855 335.044 24.6098 334.649 23.3319C334.246 22.026 334.131 20.6483 334.311 19.2935C334.491 17.9388 334.962 16.6391 335.692 15.4838C336.389 14.3929 337.313 13.4653 338.4 12.7644C339.488 12.0635 340.714 11.6058 341.995 11.4227C343.699 11.1694 345.44 11.3707 347.042 12.0061C348.644 12.6414 350.05 13.6884 351.118 15.0415C351.632 15.752 352.054 16.525 352.374 17.3419C352.679 18.1763 352.887 19.0433 352.993 19.9255C352.993 19.9255 353.055 19.899 353.046 19.8636Z" fill="#5E452C"/>
<path d="M351.525 19.8724C351.411 18.7699 351.075 17.7018 350.539 16.7318C350.003 15.7619 349.277 14.9102 348.404 14.2275C346.639 12.8836 344.418 12.2835 342.216 12.5552C341.115 12.7019 340.057 13.0776 339.11 13.6582C338.163 14.2388 337.348 15.0114 336.717 15.9263C336.046 16.9233 335.595 18.0526 335.395 19.2383C335.195 20.424 335.251 21.6388 335.559 22.8011C335.828 23.8133 336.298 24.761 336.94 25.5879C337.583 26.4148 338.385 27.1039 339.299 27.6144C341.094 28.6375 343.206 28.953 345.222 28.4992C347.148 28.0625 348.865 26.9752 350.084 25.4201C351.286 23.9013 351.988 22.0463 352.091 20.1113C352.091 20.0229 352.047 19.9432 351.985 19.9432C351.923 19.9432 351.87 20.014 351.861 20.1113C351.746 21.6619 351.224 23.1547 350.349 24.4393C349.473 25.7239 348.275 26.7549 346.875 27.4286C345.876 27.9301 344.782 28.2109 343.665 28.2522C342.549 28.2934 341.437 28.094 340.404 27.6675C339.352 27.2367 338.409 26.5762 337.644 25.7343C336.879 24.8925 336.312 23.8903 335.984 22.8011C335.655 21.6998 335.569 20.5404 335.731 19.4025C335.892 18.2647 336.298 17.1754 336.921 16.2094C337.514 15.308 338.296 14.5456 339.211 13.9744C340.127 13.4033 341.155 13.0369 342.225 12.9003C343.642 12.7383 345.077 12.911 346.415 13.4046C347.758 13.9157 348.937 14.781 349.828 15.9086C350.256 16.4948 350.612 17.1305 350.889 17.802C351.153 18.496 351.34 19.2171 351.446 19.9521C351.446 19.9521 351.525 19.899 351.525 19.8724Z" fill="#5E452C"/>
<path d="M350.005 19.8901C349.894 19.0113 349.611 18.1631 349.171 17.3946C348.731 16.6261 348.143 15.9526 347.441 15.4131C346.033 14.3541 344.277 13.8674 342.526 14.0505C341.634 14.1522 340.774 14.4412 340.001 14.8986C339.229 15.356 338.562 15.9715 338.043 16.7049C337.479 17.5125 337.093 18.4318 336.913 19.4009C336.733 20.3701 336.763 21.3666 337 22.3233C337.203 23.1679 337.581 23.9605 338.109 24.6495C338.638 25.3385 339.305 25.9085 340.068 26.3226C341.557 27.1581 343.307 27.3983 344.965 26.995C346.55 26.6149 347.957 25.7031 348.953 24.4114C349.922 23.1607 350.491 21.6468 350.588 20.0671C350.588 19.9874 350.544 19.9255 350.482 19.9255C350.448 19.9278 350.417 19.9427 350.394 19.9674C350.371 19.992 350.358 20.0245 350.358 20.0582C350.244 21.3108 349.809 22.513 349.097 23.5495C348.385 24.5859 347.419 25.422 346.292 25.9775C345.479 26.4031 344.583 26.6458 343.667 26.6886C342.751 26.7314 341.836 26.5732 340.987 26.2252C340.136 25.8696 339.375 25.326 338.763 24.635C338.151 23.944 337.702 23.1236 337.451 22.2348C337.206 21.3386 337.158 20.3998 337.311 19.4833C337.463 18.5668 337.813 17.6943 338.335 16.9261C338.819 16.2131 339.453 15.6142 340.192 15.1711C340.931 14.728 341.757 14.4513 342.614 14.3602C343.731 14.2609 344.856 14.4058 345.911 14.7849C346.975 15.1766 347.913 15.8492 348.625 16.7314C348.979 17.1894 349.276 17.6885 349.51 18.2179C349.73 18.7682 349.89 19.3408 349.987 19.9255H350.031C350.031 19.9255 350.005 19.9078 350.005 19.8901Z" fill="#5E452C"/>
</g>
<path d="M372.822 129.003H218.537V151.308H372.822V129.003Z" fill="#FF8A50"/>
<path d="M250.248 129.003L239.047 151.308H219.121L230.322 129.003H250.248Z" fill="white"/>
<path d="M291.091 129.003L279.891 151.308H259.964L271.156 129.003H291.091Z" fill="white"/>
<path d="M331.926 129.003L320.725 151.308H300.807L311.999 129.003H331.926Z" fill="white"/>
<path d="M372.769 129.003L361.568 151.308H341.641L352.834 129.003H372.769Z" fill="white"/>
<path d="M356.821 179.613H379.965L362.814 74.3844H339.679L356.821 179.613Z" fill="white"/>
<path d="M233.389 179.613H256.534L239.392 74.3844H216.248L233.389 179.613Z" fill="white"/>
<path opacity="0.2" d="M356.821 179.613H379.965L362.814 74.3844H339.679L356.821 179.613Z" fill="#5E452C"/>
<path opacity="0.2" d="M233.389 179.613H256.534L239.392 74.3844H216.248L233.389 179.613Z" fill="#5E452C"/>
<path d="M230.242 74.3844L228.801 83.25L227.254 92.7704L213.1 179.613H189.965L204.11 92.7704L205.666 83.25L207.107 74.3844H230.242Z" fill="white"/>
<path opacity="0.2" d="M226.892 74.3844C225.672 83.2323 224.363 91.9652 223.037 100.742L218.962 127.065L214.683 153.361L212.473 166.491L210.174 179.613L212.057 166.429L214.029 153.255L218.113 126.932L222.392 100.645C223.851 91.8856 225.327 83.1704 226.892 74.3844Z" fill="#5E452C"/>
<path d="M353.673 74.3844L352.232 83.25L350.685 92.7704L336.532 179.613H313.387L327.541 92.7704L329.088 83.25L330.529 74.3844H353.673Z" fill="white"/>
<path opacity="0.2" d="M350.252 74.3844C349.032 83.2323 347.715 91.9652 346.389 100.742L342.313 127.065L338.035 153.361L335.824 166.491L333.535 179.613L335.409 166.429L337.389 153.255L341.465 126.932L345.743 100.645C347.202 91.8856 348.678 83.1704 350.252 74.3844Z" fill="#5E452C"/>
<path d="M374.245 43.3549H192.246V83.2413H374.245V43.3549Z" fill="#FF8A50"/>
<path d="M229.65 43.3636L216.442 83.25H192.944L206.152 43.3636H229.65Z" fill="white"/>
<path d="M277.831 43.3636L264.623 83.25H241.116L254.324 43.3636H277.831Z" fill="white"/>
<path d="M326.003 43.3636L312.795 83.25H289.297L302.505 43.3636H326.003Z" fill="white"/>
<path d="M374.183 43.3636L360.976 83.25H337.469L350.676 43.3636H374.183Z" fill="white"/>
<path d="M346.53 133.002H192.246V155.308H346.53V133.002Z" fill="#FF8A50"/>
<path d="M223.957 133.002L212.765 155.308H192.838L204.03 133.002H223.957Z" fill="white"/>
<path d="M264.8 133.002L253.608 155.308H233.672L244.873 133.002H264.8Z" fill="white"/>
<path d="M305.643 133.002L294.442 155.308H274.515L285.716 133.002H305.643Z" fill="white"/>
<path d="M346.486 133.002L335.285 155.308H315.35L326.551 133.002H346.486Z" fill="white"/>
<path opacity="0.2" d="M228.801 83.25L227.254 92.7704H204.11L205.666 83.25H228.801Z" fill="#5E452C"/>
<path opacity="0.2" d="M352.232 83.25H329.088L327.541 92.7704H350.685L352.232 83.25Z" fill="#5E452C"/>
<path d="M173.097 123.605H128.099L128.665 121.632L129.549 118.465L133.483 104.751L137.019 92.4608L139.344 84.3738L142.88 72.084L144.816 65.3419C145.276 64.1923 146.068 63.2067 147.093 62.5125C148.117 61.8182 149.326 61.4471 150.563 61.4471C151.8 61.4471 153.008 61.8182 154.033 62.5125C155.057 63.2067 155.85 64.1923 156.309 65.3419L157.069 67.9963L158.254 72.1106L161.79 84.4003L164.115 92.4873L167.651 104.777L169.128 109.918L173.097 123.605Z" fill="#FF8A50"/>
<path d="M172.284 135.302H120.885C120.297 135.302 119.718 135.157 119.198 134.881C118.679 134.604 118.236 134.204 117.908 133.715C117.579 133.227 117.376 132.665 117.315 132.079C117.255 131.493 117.339 130.902 117.561 130.356L124.085 114.138C124.352 113.472 124.812 112.901 125.406 112.499C126 112.097 126.701 111.882 127.418 111.882H178.817C179.405 111.882 179.985 112.027 180.504 112.304C181.023 112.58 181.466 112.981 181.795 113.469C182.123 113.958 182.326 114.52 182.387 115.105C182.447 115.691 182.363 116.283 182.141 116.828L175.617 133.011C175.356 133.684 174.898 134.262 174.303 134.671C173.709 135.08 173.005 135.3 172.284 135.302Z" fill="#FF8A50"/>
<path d="M161.826 84.3737H139.371L142.898 72.084H158.298L161.826 84.3737Z" fill="white"/>
<path d="M167.678 104.75H133.518L137.046 92.4607H164.151L167.678 104.75Z" fill="white"/>
<path d="M127.471 120.473C131.109 122.116 134.941 123.284 138.876 123.95C142.775 124.621 146.73 124.917 150.686 124.835C152.658 124.703 154.638 124.685 156.601 124.384C157.582 124.251 158.581 124.189 159.554 124.012C160.526 123.835 161.507 123.641 162.48 123.473C162.975 123.384 163.47 123.313 163.947 123.198L165.397 122.836L168.314 122.137C170.242 121.615 172.134 120.969 174.096 120.456C172.284 121.34 170.445 122.225 168.571 122.933L165.698 123.924L164.257 124.402C163.77 124.543 163.275 124.649 162.78 124.773C161.799 125.021 160.809 125.26 159.819 125.49C158.829 125.72 157.812 125.817 156.813 125.994C154.793 126.279 152.76 126.462 150.722 126.543C146.64 126.617 142.565 126.177 138.593 125.233C134.623 124.349 130.852 122.735 127.471 120.473Z" fill="#5E452C"/>
<path opacity="0.2" d="M129.01 121.216C130.759 121.608 132.467 122.165 134.111 122.88C140.776 125.906 153.666 126.923 167.749 122.694C169.282 122.34 170.767 121.799 172.169 121.084L171.594 118.429C171.594 118.429 142.332 109.953 144.038 67.9697L142.863 72.084L139.326 84.3738L137.028 92.4608L133.492 104.751L129.01 121.216Z" fill="#5E452C"/>
<path d="M444.032 143.69H399.025L399.591 141.708L400.475 138.541L404.409 124.835L407.945 112.537L410.261 104.45L413.798 92.1688L415.734 85.4266C416.193 84.277 416.986 83.2914 418.01 82.5972C419.034 81.9029 420.243 81.5319 421.48 81.5319C422.717 81.5319 423.926 81.9029 424.95 82.5972C425.974 83.2914 426.767 84.277 427.226 85.4266L427.978 88.081L429.162 92.2041L432.699 104.485L435.015 112.572L438.551 124.871L440.027 130.002L444.032 143.69Z" fill="#FF8A50"/>
<path d="M443.219 155.378H391.82C391.232 155.379 390.653 155.235 390.134 154.96C389.614 154.684 389.171 154.285 388.841 153.797C388.512 153.31 388.308 152.749 388.246 152.163C388.184 151.578 388.267 150.987 388.487 150.441L395.02 134.25C395.287 133.586 395.746 133.017 396.338 132.616C396.931 132.216 397.63 132.002 398.344 132.002H449.743C450.331 132.001 450.91 132.145 451.43 132.421C451.949 132.697 452.393 133.096 452.722 133.583C453.051 134.071 453.255 134.632 453.317 135.217C453.379 135.802 453.296 136.394 453.076 136.939L446.543 153.131C446.274 153.794 445.815 154.361 445.223 154.761C444.631 155.162 443.933 155.376 443.219 155.378Z" fill="#FF8A50"/>
<path d="M432.761 104.45H410.297L413.833 92.1687H429.233L432.761 104.45Z" fill="white"/>
<path d="M438.613 124.835H404.444L407.981 112.537H435.077L438.613 124.835Z" fill="white"/>
<path d="M398.398 140.549C402.035 142.19 405.868 143.359 409.802 144.026C413.702 144.696 417.657 144.992 421.613 144.911C423.593 144.778 425.573 144.77 427.536 144.46C428.517 144.327 429.507 144.265 430.48 144.088C431.452 143.911 432.433 143.717 433.415 143.549C433.901 143.46 434.396 143.389 434.882 143.274L436.332 142.912L439.241 142.213C441.168 141.691 443.069 141.045 445.022 140.531C443.21 141.416 441.38 142.301 439.506 143.018L436.633 144L435.183 144.478C434.697 144.628 434.202 144.725 433.715 144.858C432.725 145.106 431.744 145.345 430.754 145.566C429.764 145.787 428.747 145.902 427.739 146.07C425.732 146.433 423.69 146.46 421.657 146.628C417.575 146.698 413.501 146.258 409.528 145.318C405.556 144.427 401.783 142.81 398.398 140.549Z" fill="#5E452C"/>
<path opacity="0.2" d="M399.945 141.328C401.693 141.72 403.401 142.277 405.046 142.991C411.703 146.017 424.601 147.035 438.64 142.805C440.175 142.457 441.66 141.916 443.06 141.195L442.494 138.541C442.494 138.541 413.285 130.064 414.973 88.0457L413.789 92.1688L410.253 104.45L407.928 112.537L404.391 124.835L399.945 141.328Z" fill="#5E452C"/>
<path d="M167.28 219.101H122.282L122.848 217.119L123.732 213.951L127.666 200.246L131.202 187.956L133.527 179.86L137.063 167.58L138.999 160.837C139.458 159.688 140.251 158.702 141.276 158.008C142.3 157.314 143.509 156.943 144.746 156.943C145.983 156.943 147.191 157.314 148.216 158.008C149.24 158.702 150.033 159.688 150.492 160.837L151.252 163.492L152.428 167.606L155.964 179.887L158.289 187.983L161.826 200.273L163.302 205.413L167.28 219.101Z" fill="#FF8A50"/>
<path d="M166.467 230.789H115.068C114.48 230.79 113.901 230.646 113.382 230.37C112.862 230.095 112.418 229.695 112.089 229.208C111.76 228.72 111.556 228.159 111.494 227.574C111.432 226.989 111.515 226.398 111.735 225.852L118.268 209.66C118.537 208.996 118.998 208.428 119.592 208.027C120.186 207.627 120.885 207.413 121.601 207.413H173C173.587 207.414 174.165 207.558 174.683 207.835C175.202 208.111 175.644 208.51 175.972 208.998C176.3 209.485 176.504 210.046 176.565 210.63C176.627 211.214 176.544 211.805 176.324 212.35L169.8 228.542C169.532 229.206 169.071 229.775 168.477 230.176C167.883 230.576 167.183 230.79 166.467 230.789Z" fill="#FF8A50"/>
<path d="M156.008 179.861H133.554L137.081 167.58H152.481L156.008 179.861Z" fill="white"/>
<path d="M161.861 200.246H127.692L131.229 187.956H158.334L161.861 200.246Z" fill="white"/>
<path d="M121.654 215.969C125.291 217.612 129.124 218.781 133.059 219.446C136.958 220.117 140.913 220.413 144.869 220.331C146.841 220.198 148.821 220.189 150.784 219.88C151.765 219.756 152.755 219.685 153.736 219.508C154.718 219.331 155.681 219.145 156.663 218.977C157.149 218.88 157.644 218.809 158.13 218.703L159.58 218.34L162.489 217.632C164.425 217.11 166.317 216.473 168.279 215.96C166.511 216.845 164.628 217.685 162.754 218.437L159.881 219.428L158.44 219.915C157.953 220.057 157.458 220.163 156.963 220.287C155.982 220.534 154.992 220.773 154.002 221.003C153.012 221.233 151.995 221.331 150.987 221.499C148.97 221.787 146.94 221.973 144.905 222.056C140.823 222.13 136.748 221.69 132.776 220.747C128.806 219.855 125.035 218.235 121.654 215.969Z" fill="#5E452C"/>
<path opacity="0.2" d="M123.193 216.774C124.942 217.16 126.65 217.714 128.293 218.428C134.959 221.463 147.849 222.472 161.887 218.243C163.423 217.896 164.908 217.354 166.308 216.632L165.733 213.978C165.733 213.978 136.506 205.475 138.195 163.492L137.028 167.579L133.492 179.86L131.167 187.956L127.63 200.246L123.193 216.774Z" fill="#5E452C"/>
<path d="M139.609 185.859L152.817 183.205C154.17 182.931 153.595 180.86 152.251 181.135L139.044 183.789C137.691 184.072 138.257 186.134 139.609 185.859Z" fill="#5E452C"/>
<path d="M140.131 189.602L153.171 191.575C154.514 191.779 155.098 189.708 153.736 189.505L140.697 187.576C139.353 187.372 138.769 189.443 140.131 189.646V189.602Z" fill="#5E452C"/>
<path d="M78.3358 240.088V247.282C76.6413 247.701 74.9188 247.996 73.1817 248.166C68.6821 248.659 64.1438 248.689 59.6381 248.255L57.9496 248.078C57.0125 247.972 56.0577 247.839 55.0675 247.689H54.8289C53.6293 247.484 52.4471 247.189 51.2926 246.804C50.1682 246.456 49.0693 246.03 48.004 245.53C47.2879 245.194 46.5895 244.822 45.9353 244.433C45.013 243.902 44.1269 243.311 43.2831 242.663C37.2716 238.018 34.5399 231.391 38.2352 227.223C42.9826 221.862 49.9047 225.613 54.6255 232.453C57.0036 235.912 61.7775 237.761 66.5514 238.788C68.4125 239.177 70.292 239.472 72.1828 239.672C74.7112 239.938 76.9124 240.026 78.3358 240.088Z" fill="#EFB065"/>
<path opacity="0.2" d="M78.3358 240.088V247.281C76.6413 247.7 74.9188 247.996 73.1817 248.166C68.6821 248.659 64.1438 248.689 59.6381 248.255C60.7343 244.017 63.9522 240.796 66.5779 238.77C68.439 239.159 70.3185 239.454 72.2093 239.655C74.7111 239.938 76.9124 240.026 78.3358 240.088Z" fill="#5E452C"/>
<path d="M120.381 214.686C120.806 218.03 120.664 223.534 120.381 229.019C120.328 230.232 120.249 231.435 120.178 232.612C120.134 233.187 120.098 233.753 120.054 234.31C119.975 235.576 119.886 236.806 119.789 237.947C119.789 238.531 119.718 239.097 119.665 239.628C119.559 241.035 119.479 242.282 119.409 243.229C119.318 244.007 119.289 244.791 119.32 245.574C119.612 246.078 120.753 248.007 119.612 248.361C118.551 248.53 117.477 248.598 116.403 248.564C114.352 248.564 112.124 248.502 112.124 248.502C112.164 248.645 112.197 248.79 112.221 248.936C112.225 248.954 112.225 248.972 112.221 248.989C112.336 249.547 112.407 250.405 111.885 250.653C111.099 251.006 94.452 251.723 93.5326 251.006C93.3921 250.899 93.2723 250.767 93.179 250.617C92.9969 250.306 92.8994 249.952 92.8961 249.591C92.8852 249.347 92.906 249.103 92.958 248.865H92.1535C90.0052 248.927 84.0114 249.069 79.1844 248.865C77.22 248.836 75.2631 248.617 73.3409 248.21C72.9744 248.145 72.6393 247.962 72.3861 247.688C71.1838 245.733 71.4136 242.84 72.3861 239.725C72.9827 237.845 73.7246 236.014 74.6051 234.248L74.941 233.576C75.4007 232.638 75.8958 231.718 76.3997 230.833C76.9036 229.948 77.381 229.126 77.8672 228.338C78.5214 227.267 79.1579 226.285 79.7149 225.445C80.1304 224.834 80.5017 224.295 80.8288 223.852C81.01 223.608 81.1782 223.354 81.3327 223.091C81.9187 222.211 82.377 221.251 82.6941 220.242C83.144 219.033 83.1905 217.711 82.8267 216.473C82.314 216.34 81.8189 216.199 81.3504 216.057L81.2089 216.004H81.1294C79.9243 215.618 78.7435 215.16 77.5932 214.633L77.3987 214.535C69.8489 210.925 69.1505 205.926 69.1505 205.926C50.939 206.811 40.8608 201.635 39.8 197.344C38.7391 193.053 52.0087 176.542 63.1566 169.676C70.7355 165.034 78.7474 161.141 87.079 158.05C92.9539 155.858 98.9557 154.023 105.052 152.556C106.095 152.308 107.129 152.069 108.137 151.848C108.959 151.662 109.773 151.494 110.568 151.326C111.806 151.078 112.999 150.857 114.104 150.645L116.562 150.22C117.623 150.052 118.64 149.892 119.594 149.76C123.385 149.186 127.204 148.82 131.034 148.663C131.034 148.663 139.052 164.828 142.385 177.949C143 180.251 143.441 182.597 143.702 184.966C143.782 185.797 143.826 186.585 143.826 187.337C143.809 203.307 120.231 213.544 120.381 214.686Z" fill="#EFB065"/>
<path d="M120.231 214.642C118.699 215.473 117.068 216.106 115.377 216.526C113.695 216.971 111.985 217.302 110.259 217.517C108.537 217.737 106.805 217.864 105.069 217.898C104.185 217.898 103.301 217.898 102.47 217.898C101.639 217.898 100.702 217.809 99.8712 217.721C101.639 217.544 103.319 217.393 105.034 217.243C106.749 217.092 108.455 216.916 110.153 216.677C111.85 216.438 113.548 216.208 115.227 215.88C116.919 215.573 118.591 215.159 120.231 214.642Z" fill="#5E452C"/>
<path d="M88.7941 230.762C87.9808 231.258 81.5891 229.453 77.8584 228.329C78.5126 227.259 79.1491 226.277 79.706 225.436C83.5251 227.25 89.5986 230.276 88.7941 230.762Z" fill="#E29E54"/>
<path d="M90.8539 224.896C90.1467 225.347 85.0899 224.109 81.3239 223.082C81.9098 222.202 82.3682 221.243 82.6853 220.233C86.5132 221.968 91.5877 224.436 90.8539 224.896Z" fill="#E29E54"/>
<path d="M84.0379 234.408C83.4102 234.894 78.7336 234.213 74.9322 233.567C75.3919 232.629 75.8869 231.709 76.3908 230.824C80.2011 232.178 84.6656 233.921 84.0379 234.408Z" fill="#E29E54"/>
<path d="M83.6135 232.364C84.3856 233.762 85.1253 235.163 85.8325 236.567L87.9631 240.787C88.6703 242.194 89.3776 243.592 90.1378 244.972C90.3146 245.317 90.518 245.654 90.7125 245.99C90.907 246.326 91.1015 246.671 91.3225 246.99C91.5178 247.328 91.7395 247.651 91.9855 247.954C92.2249 248.277 92.4975 248.573 92.7988 248.839C92.4414 248.656 92.1136 248.42 91.8264 248.14C91.5062 247.872 91.2103 247.576 90.9423 247.255C90.4271 246.643 89.9517 245.999 89.519 245.326C88.6561 243.989 87.8652 242.607 87.1497 241.185C85.7289 238.348 84.5461 235.397 83.6135 232.364Z" fill="#5E452C"/>
<path d="M80.9349 237.62C81.2013 237.163 81.5922 236.791 82.0618 236.548C82.5315 236.305 83.0605 236.201 83.587 236.248C84.1235 236.308 84.6352 236.506 85.0722 236.823C85.2829 236.978 85.4783 237.153 85.6557 237.345C85.8122 237.545 85.9512 237.759 86.0712 237.982C85.8237 237.894 85.6115 237.779 85.3993 237.682C85.1872 237.584 84.9661 237.487 84.754 237.416C84.355 237.255 83.9354 237.151 83.5075 237.107C83.0821 237.06 82.652 237.084 82.2344 237.177C81.79 237.289 81.3554 237.437 80.9349 237.62Z" fill="#5E452C"/>
<path d="M82.6322 216.358C84.0909 216.473 85.4789 216.659 86.8757 216.862C87.5741 216.978 88.2725 217.084 88.9797 217.216C89.6901 217.341 90.3926 217.506 91.0838 217.712C89.6493 217.946 88.1864 217.946 86.7519 217.712C86.0366 217.606 85.3303 217.446 84.639 217.234C83.9349 217.031 83.2603 216.736 82.6322 216.358Z" fill="#5E452C"/>
<path d="M78.044 206.687L67.6564 215.279C66.5956 216.163 68.1161 217.668 69.1681 216.792L79.5646 208.2C80.6255 207.316 79.1049 205.811 78.044 206.687Z" fill="#5E452C"/>
<path d="M75.7985 203.626L63.3688 208.05C62.0781 208.501 62.635 210.58 63.9346 210.111L76.3732 205.687C77.6639 205.227 77.1069 203.157 75.7985 203.617V203.626Z" fill="#5E452C"/>
<path d="M100.782 187.054C100.782 187.873 100.539 188.673 100.085 189.354C99.6299 190.035 98.9837 190.566 98.2277 190.88C97.4717 191.193 96.6398 191.275 95.8373 191.115C95.0347 190.955 94.2975 190.561 93.7189 189.982C93.1403 189.403 92.7462 188.665 92.5866 187.862C92.4269 187.059 92.5089 186.226 92.822 185.469C93.1352 184.713 93.6655 184.066 94.3458 183.611C95.0262 183.156 95.8261 182.913 96.6444 182.913C97.741 182.915 98.792 183.352 99.5674 184.128C100.343 184.905 100.779 185.956 100.782 187.054Z" fill="#5E452C"/>
<path d="M134.95 179.922C137.099 179.922 138.84 178.179 138.84 176.029C138.84 173.879 137.099 172.136 134.95 172.136C132.802 172.136 131.061 173.879 131.061 176.029C131.061 178.179 132.802 179.922 134.95 179.922Z" fill="#5E452C"/>
<path d="M114.166 182.117C113.76 183.207 113.518 184.352 113.45 185.514C113.423 185.731 113.446 185.95 113.518 186.156C113.591 186.362 113.709 186.548 113.866 186.7C114.158 186.912 114.44 186.886 114.891 186.7C115.824 186.146 116.658 185.441 117.358 184.612C118.137 183.766 118.872 182.88 119.559 181.957L120.054 181.32L120.708 181.745C121.511 182.252 122.354 182.693 123.228 183.063C123.992 183.44 124.848 183.587 125.694 183.488C126.03 183.364 126.225 183.223 126.287 182.94C126.302 182.522 126.201 182.108 125.995 181.745C125.539 180.855 124.981 180.021 124.333 179.259C125.228 179.808 126.018 180.512 126.667 181.338C127.055 181.801 127.29 182.373 127.339 182.975C127.335 183.16 127.308 183.345 127.259 183.523C127.198 183.704 127.108 183.875 126.994 184.028C126.752 184.307 126.45 184.528 126.11 184.674C124.975 185.041 123.746 184.991 122.644 184.532C121.625 184.189 120.649 183.729 119.736 183.161L120.885 182.94C120.17 183.946 119.375 184.893 118.507 185.771C118.064 186.218 117.592 186.635 117.093 187.018C116.56 187.441 115.963 187.775 115.324 188.009C114.948 188.144 114.547 188.195 114.149 188.16C113.715 188.105 113.311 187.91 112.999 187.602C112.847 187.449 112.724 187.269 112.637 187.071C112.549 186.894 112.495 186.702 112.478 186.505C112.42 186.16 112.42 185.807 112.478 185.461C112.782 184.233 113.359 183.09 114.166 182.117Z" fill="#5E452C"/>
<path d="M96.061 196.008C96.5118 198.131 93.6122 200.547 89.5897 201.396C85.5673 202.246 81.9427 201.228 81.4918 199.096C81.041 196.963 83.9406 194.557 87.9631 193.707C91.9855 192.858 95.6101 193.884 96.061 196.008Z" fill="#ED8585"/>
<path d="M143.526 184.815C140.944 184.727 138.964 183.762 138.637 182.223C138.31 180.683 139.795 178.94 142.217 177.799C142.83 180.101 143.267 182.447 143.526 184.815Z" fill="#ED8585"/>
<path d="M121.875 178.728C122.017 179.303 119.948 180.754 119.948 180.754C119.948 180.754 117.437 180.436 117.296 179.869C117.154 179.303 119.435 178.728 119.435 178.728C119.435 178.728 121.734 178.188 121.875 178.728Z" fill="#5E452C"/>
<path d="M85.0103 175.897C85.5231 176.923 94.7968 171.747 93.9393 169.889C93.0817 168.031 83.6489 173.171 85.0103 175.897Z" fill="#5E452C"/>
<path d="M127.303 160.59C127.1 161.474 135.384 162.979 135.79 161.404C136.197 159.829 127.798 158.245 127.303 160.59Z" fill="#5E452C"/>
<path d="M67.6918 198.335C67.6918 198.335 53.2729 199.556 53.0431 195.583C52.8132 191.611 64.0583 181.427 68.6289 178.038C68.6554 178.038 66.4099 194.044 67.6918 198.335Z" fill="#ED8585"/>
<path d="M53.3702 196.627C53.078 196.181 52.9615 195.642 53.0431 195.114C53.1064 194.587 53.2433 194.072 53.4497 193.583C53.8567 192.613 54.3633 191.688 54.9615 190.823C56.1678 189.105 57.5132 187.489 58.9839 185.992C61.9216 183.008 65.068 180.238 68.399 177.701L69.345 176.958L69.0532 178.144C68.6642 179.772 68.3018 181.444 68.0366 183.116C67.7714 184.789 67.5945 186.479 67.4531 188.16C67.3028 189.851 67.2497 191.55 67.294 193.247C67.321 194.95 67.4539 196.649 67.6918 198.335C67.2819 196.672 67.004 194.98 66.8608 193.274C66.7312 191.561 66.6987 189.841 66.7635 188.124C66.8343 186.408 67.0199 184.691 67.2586 182.993C67.4931 181.285 67.8236 179.593 68.2487 177.923L68.9118 178.374C65.5936 180.867 62.4288 183.559 59.4348 186.434C57.936 187.865 56.5498 189.409 55.2886 191.053C54.6474 191.877 54.0962 192.766 53.6442 193.707C53.4233 194.168 53.2629 194.656 53.1668 195.158C53.0561 195.657 53.1283 196.178 53.3702 196.627Z" fill="#5E452C"/>
<path opacity="0.2" d="M91.738 248.626C91.8813 248.702 92.0175 248.791 92.1446 248.892C89.9964 248.945 84.0114 249.095 79.1756 248.892C77.2141 248.863 75.26 248.644 73.3409 248.237C72.9725 248.17 72.6351 247.987 72.3773 247.715C71.1749 245.76 71.4048 242.866 72.3773 239.752C72.9739 237.872 73.7158 236.04 74.5962 234.275C76.3779 230.65 78.4474 227.173 80.7846 223.879C83.8611 219.588 82.9151 216.801 82.7737 216.473C85.0312 217.069 87.326 217.512 89.6428 217.8C89.6428 217.8 82.9593 228.046 82.7648 232.452C82.5704 236.859 85.6822 244.999 91.738 248.626Z" fill="#5E452C"/>
<path opacity="0.2" d="M103.584 217.915C98.0501 218.322 89.9434 218.411 82.8179 216.464C80.9931 215.99 79.2171 215.344 77.5136 214.535L77.3191 214.438C69.7693 210.828 69.0709 205.829 69.0709 205.829C50.8595 206.714 40.7813 201.538 39.7204 197.247C38.6596 192.955 51.9292 176.445 63.077 169.579C70.6542 164.936 78.6664 161.046 86.9995 157.962C86.9995 157.962 71.4578 184.037 79.8121 203.414C85.2314 215.96 96.3616 218.013 103.584 217.915Z" fill="#5E452C"/>
<path d="M120.045 234.311C119.966 235.576 119.877 236.806 119.78 237.947C116.668 237.797 108.5 237.345 107.403 236.593L107.775 236.054C109.755 235.257 117.225 234.549 120.045 234.311Z" fill="#E29E54"/>
<path d="M119.656 239.628C119.55 241.035 119.471 242.283 119.4 243.229C116.368 242.982 108.668 242.247 109.322 241.362C109.976 240.478 116.916 239.849 119.656 239.628Z" fill="#E29E54"/>
<path d="M120.372 229.02C120.319 230.232 120.24 231.435 120.169 232.612C117.782 232.408 112.681 231.93 110.825 231.311C111.046 230.94 111.284 230.568 111.514 230.179C114.439 229.604 117.398 229.217 120.372 229.02Z" fill="#E29E54"/>
<path d="M110.011 217.128C107.846 217.594 105.64 217.84 103.425 217.862C107.129 217.597 109.684 217.172 110.011 217.128Z" fill="#5E452C"/>
<path opacity="0.2" d="M111.939 248.449C111.939 248.449 111.505 247.715 109.224 246.308C108.765 246.025 106.378 237.956 106.378 237.956C106.378 237.956 113.017 228.418 115.528 222.914C115.528 222.914 112.946 243.822 112.876 245.308C112.805 246.406 115.006 247.795 116.253 248.485C114.166 248.529 111.939 248.449 111.939 248.449Z" fill="#5E452C"/>
<path d="M105.644 235.125C105.644 235.125 93.4795 239.947 93.0287 241.23C92.5778 242.513 106.599 238.788 106.599 238.788L105.644 235.125Z" fill="#E29E54"/>
<path d="M45.9707 244.45C45.0483 243.92 44.1623 243.329 43.3185 242.681C46.1828 239.548 50.3909 235.125 50.6385 235.992C50.886 236.859 48.1012 241.185 45.9707 244.45Z" fill="#E29E54"/>
<path d="M51.3192 246.857C50.1947 246.509 49.0958 246.084 48.0305 245.583C50.4086 242.406 55.483 235.771 55.8367 236.735C56.1903 237.699 53.1668 243.371 51.3192 246.857Z" fill="#E29E54"/>
<path d="M115.492 163.085C114.458 162.66 111.558 154.29 110.515 151.229C111.753 150.981 112.946 150.76 114.051 150.547C114.741 153.954 116.527 163.518 115.492 163.085Z" fill="#E29E54"/>
<path d="M108.924 161.315C108.146 160.988 106.272 156.139 104.999 152.467C106.042 152.22 107.076 151.981 108.084 151.76C108.827 155.909 109.728 161.643 108.924 161.315Z" fill="#E29E54"/>
<path d="M120.284 158.378C119.541 158.068 117.835 153.68 116.553 150.087C117.614 149.919 118.631 149.76 119.586 149.627C120.302 153.715 121.035 158.732 120.284 158.378Z" fill="#E29E54"/>
<path d="M57.9495 248.096C57.0124 247.989 56.0577 247.857 55.0675 247.706H54.8288C56.9948 244.167 59.8856 239.655 60.2569 240.407C60.6282 241.159 59.2314 244.742 57.9495 248.096Z" fill="#E29E54"/>
<path d="M106.846 240.327C106.846 240.327 96.8831 244.149 96.4411 245.441C95.9991 246.733 107.792 243.99 107.792 243.99L106.846 240.327Z" fill="#E29E54"/>
<path d="M104.539 229.94C104.539 229.94 94.5846 233.762 94.1337 235.045C93.6829 236.328 105.494 233.585 105.494 233.585L104.539 229.94Z" fill="#E29E54"/>
<path d="M103.655 226.79C104.265 228.692 104.804 230.603 105.335 232.514C105.865 234.426 106.378 236.337 106.899 238.248C107.421 240.159 107.916 242.079 108.482 243.964C108.623 244.433 108.765 244.901 108.95 245.353C109.031 245.568 109.132 245.776 109.251 245.972C109.313 246.114 109.552 246.255 109.746 246.414C110.512 247.053 111.244 247.733 111.939 248.449C111.125 247.874 110.33 247.282 109.499 246.76C109.254 246.633 109.035 246.462 108.853 246.255C108.701 246.04 108.568 245.812 108.455 245.574C108.226 245.114 108.04 244.645 107.854 244.176C107.138 242.309 106.599 240.389 106.086 238.469C105.573 236.549 105.114 234.611 104.716 232.665C104.318 230.718 103.92 228.763 103.655 226.79Z" fill="#5E452C"/>
<path d="M106.97 237.186L108.013 235.417C108.358 234.806 108.703 234.196 109.057 233.647C109.773 232.452 110.48 231.267 111.178 230.064L111.275 229.878H111.514L111.178 230.064C112.566 227.648 113.928 225.224 115.218 222.764C115.855 221.525 116.5 220.295 117.084 219.03C117.667 217.765 118.233 216.5 118.719 215.19C118.434 216.564 118.041 217.913 117.543 219.225C117.048 220.534 116.518 221.879 115.908 223.109C114.695 225.637 113.338 228.092 111.841 230.462L111.726 230.647H111.505L111.832 230.462C111.461 231.046 111.09 231.638 110.683 232.231L109.481 233.948C108.685 234.983 107.854 236.116 106.97 237.186Z" fill="#5E452C"/>
<path d="M58.5153 172.756C58.5153 172.756 52.4684 152.901 67.9658 134.312C80.0508 119.819 102.329 120.084 114.768 127.286C123.104 132.117 127.339 141.558 127.966 141.992C128.594 142.425 133.191 141.629 134.217 142.363C135.242 143.097 138.018 147.884 137.576 148.636C137.134 149.388 101.754 149.972 58.5153 172.756Z" fill="#F9BA2B"/>
<path d="M68.3548 133.869C68.3548 133.869 68.5935 128.162 69.2389 127.286C69.8842 126.41 80.6785 116.793 92.4894 118.615C93.9216 118.836 97.7937 124.322 97.7937 124.322L68.3548 133.869Z" fill="#F9BA2B"/>
<path opacity="0.2" d="M96.4234 122.482C97.2389 123.115 98.0071 123.807 98.722 124.552C99.4414 125.303 100.117 126.095 100.746 126.923C102.029 128.569 103.104 130.367 103.947 132.276L104.955 134.559L103.248 132.719C101.25 130.569 99.2436 128.41 97.1572 126.348C96.1588 125.288 95.0703 124.317 93.9039 123.446C93.312 123.096 92.6271 122.935 91.9413 122.986C91.2107 122.996 90.4871 123.13 89.8019 123.384C90.8066 122.863 91.9349 122.627 93.064 122.703C93.4641 122.713 93.8532 122.836 94.1868 123.057C95.4423 123.877 96.6253 124.804 97.723 125.826C99.8978 127.844 101.958 129.958 103.911 132.152L103.213 132.604C102.797 131.719 102.373 130.754 101.878 129.87C101.383 128.985 100.861 128.1 100.296 127.26C99.7298 126.419 99.1109 125.596 98.5275 124.791C97.944 123.986 97.1307 123.225 96.4234 122.482Z" fill="#5E452C"/>
<path opacity="0.2" d="M69.6809 132.444C70.8783 131.324 72.1742 130.314 73.553 129.427C74.9262 128.524 76.3586 127.714 77.8407 127.003C79.3203 126.288 80.8474 125.676 82.4112 125.171C83.9739 124.666 85.577 124.296 87.2028 124.065C85.6645 124.632 84.1351 125.18 82.6411 125.835C81.1471 126.49 79.6618 127.1 78.2208 127.808C76.7798 128.516 75.33 129.25 73.9067 130.029C72.4833 130.808 71.0689 131.586 69.6809 132.444Z" fill="#5E452C"/>
<path opacity="0.2" d="M125.005 142.505C122.291 142.974 119.586 143.469 116.889 144.035C114.193 144.602 111.505 145.15 108.827 145.805C103.522 147.07 98.1473 148.406 92.9138 150.061C87.6584 151.647 82.4886 153.505 77.4252 155.626C76.1522 156.139 74.9233 156.759 73.668 157.316L71.8026 158.201L70.0345 159.165L68.1515 160.147L67.2674 160.625L66.3834 161.165L62.8472 163.333C67.3132 160.08 72.1074 157.304 77.1511 155.051L80.9525 153.414C82.2256 152.874 83.534 152.432 84.8159 151.937L86.7608 151.211L88.7234 150.556C90.0318 150.123 91.3755 149.671 92.6574 149.264C97.9617 147.684 103.304 146.324 108.685 145.186C114.087 144.035 119.524 143.089 125.005 142.505Z" fill="#5E452C"/>
<path d="M396.117 234.142L402.588 189.575L404.462 190.46L407.468 191.823L420.455 197.689L432.098 202.998L439.762 206.466L451.405 211.775L457.788 214.659C458.831 215.287 459.666 216.209 460.189 217.309C460.711 218.41 460.898 219.64 460.725 220.846C460.553 222.052 460.028 223.18 459.218 224.09C458.408 224.999 457.348 225.649 456.17 225.958L453.474 226.33L449.23 226.905L436.58 228.63L428.243 229.763L415.583 231.532L410.279 232.249L396.117 234.142Z" fill="#FF8A50"/>
<path d="M436.535 228.63L439.762 206.386L451.405 211.651L449.186 226.905L436.535 228.63Z" fill="white"/>
<path d="M415.539 231.488L420.455 197.654L432.098 202.918L428.199 229.763L415.539 231.488Z" fill="white"/>
<path d="M405.779 189.407C403.633 192.773 401.927 196.401 400.705 200.202C399.473 203.965 398.606 207.837 398.115 211.766C397.955 213.739 397.681 215.712 397.708 217.694C397.708 218.685 397.611 219.676 397.646 220.667C397.681 221.658 397.734 222.658 397.761 223.649C397.761 224.144 397.761 224.649 397.814 225.144L397.964 226.631L398.247 229.612C398.477 231.603 398.848 233.567 399.069 235.585C398.477 233.665 397.885 231.727 397.416 229.754L396.85 226.772L396.585 225.268C396.514 224.773 396.479 224.259 396.426 223.755C396.32 222.746 396.232 221.738 396.143 220.72C396.055 219.703 396.143 218.685 396.081 217.668C396.011 215.633 396.276 213.598 396.408 211.563C396.926 207.511 397.948 203.54 399.45 199.742C400.903 195.935 403.049 192.431 405.779 189.407Z" fill="#5E452C"/>
<path opacity="0.2" d="M404.789 190.823C404.15 192.499 403.354 194.11 402.411 195.636C398.459 201.83 395.604 214.42 397.752 228.975C397.877 230.546 398.198 232.094 398.707 233.585L401.412 233.399C401.412 233.399 414.028 205.679 455.339 213.394L451.432 211.624L439.798 206.369L432.133 202.909L420.481 197.601L404.789 190.823Z" fill="#5E452C"/>
<path d="M384.677 231.656L392.068 180.754C392.153 180.172 392.379 179.619 392.727 179.145C393.075 178.671 393.534 178.289 394.064 178.033C394.593 177.777 395.177 177.655 395.765 177.678C396.352 177.7 396.925 177.866 397.434 178.162L412.463 186.965C413.09 187.317 413.596 187.852 413.911 188.498C414.227 189.145 414.339 189.873 414.231 190.584L406.84 241.486C406.755 242.068 406.528 242.621 406.181 243.095C405.833 243.57 405.374 243.951 404.844 244.207C404.315 244.463 403.731 244.585 403.143 244.563C402.556 244.54 401.983 244.374 401.474 244.079L386.445 235.284C385.822 234.925 385.321 234.388 385.006 233.741C384.69 233.095 384.576 232.368 384.677 231.656Z" fill="#FF8A50"/>
<path d="M405.98 212.412C407.197 201.588 405.253 192.483 401.638 192.076C398.024 191.669 394.107 200.114 392.89 210.938C391.673 221.761 393.617 230.866 397.232 231.273C400.846 231.68 404.763 223.236 405.98 212.412Z" fill="#5E452C"/>
<path d="M475.761 196.565C472.654 196.942 469.589 197.603 466.602 198.538C465.836 198.795 465.1 199.136 464.41 199.556C460.122 202.343 458.407 206.811 455.189 208.749C451.971 210.687 450.477 209.174 449.195 208.422C447.913 207.67 446.41 208.952 444.262 209.306C442.114 209.66 441.071 204.378 449.513 194.937C451.063 193.193 452.787 191.613 454.659 190.221C460.405 185.884 467.396 183.516 474.594 183.47L475.761 196.565Z" fill="white"/>
<path opacity="0.1" d="M475.761 196.565C472.654 196.942 469.589 197.603 466.602 198.538C465.055 192.84 458.929 190.867 454.659 190.195C460.405 185.857 467.396 183.49 474.594 183.444L475.761 196.565Z" fill="#5E452C"/>
<path d="M457.143 162.961C456.388 162.521 455.669 162.021 454.994 161.466C446.64 154.75 436.35 136.444 439.851 133.055C441.009 131.949 444.271 131.135 448.187 130.542H448.302C455.443 129.667 462.626 129.174 469.82 129.064C480.924 134.002 465.718 167.836 457.143 162.961Z" fill="white"/>
<path d="M458.822 155.67C458.822 155.67 445.438 141.859 447.003 139.302C448.886 136.24 470.51 138.93 470.51 138.93C470.51 138.93 461.475 149.087 458.822 155.67Z" fill="#ED8585"/>
<path d="M447.179 139.01C449.023 138.301 450.964 137.874 452.935 137.744C454.897 137.554 456.87 137.492 458.84 137.558C459.821 137.558 460.803 137.647 461.784 137.7C462.765 137.753 463.747 137.859 464.719 137.992L467.636 138.39C468.6 138.567 469.572 138.726 470.536 138.93C468.565 138.877 466.62 138.744 464.666 138.647C462.712 138.549 460.767 138.452 458.814 138.417C456.86 138.381 454.924 138.355 452.979 138.417C452.006 138.417 451.034 138.496 450.07 138.594C449.097 138.652 448.13 138.791 447.179 139.01Z" fill="#483723"/>
<path opacity="0.1" d="M457.143 162.961C456.388 162.521 455.67 162.021 454.994 161.466C456.612 159.696 458.531 157.369 460.767 154.387C462.078 152.756 462.814 150.738 462.863 148.645C462.942 144.734 460.493 140.983 457.558 137.93L457.487 137.851C454.832 135.149 451.864 132.772 448.647 130.772L448.285 130.551H448.338L448.285 130.436C455.426 129.561 462.609 129.068 469.802 128.958C480.924 134.002 465.718 167.836 457.143 162.961Z" fill="#5E452C"/>
<path d="M457.859 165.199L444.828 161.766C443.493 161.413 444.244 159.404 445.57 159.749L458.601 163.182C459.936 163.536 459.185 165.545 457.859 165.199Z" fill="#5E452C"/>
<path d="M457.107 168.916L443.97 170.145C442.609 170.269 442.246 168.155 443.626 168.031L456.754 166.801C458.115 166.677 458.522 168.792 457.107 168.916Z" fill="#5E452C"/>
<path d="M558.72 175.605C554.645 182.471 529.794 179.684 529.794 179.684C528.42 182.645 526.175 185.115 523.358 186.762C517.576 189.876 506.11 190.938 506.11 190.938C506.347 191.76 506.664 192.558 507.056 193.318C508.877 196.74 511.449 199.705 514.58 201.989C517.527 204.111 520.002 206.822 521.846 209.952C522.798 211.541 523.398 213.316 523.605 215.157C523.813 216.998 523.623 218.862 523.049 220.623C520.794 227.161 504.13 235.567 492.823 233.895C487.678 233.152 485.645 231.32 484.044 227.781C484.044 227.781 474.32 227.781 473.763 227.144C473.206 226.507 473.86 225.64 473.86 225.64H464.622C463.552 225.64 465.691 223.605 468.264 222.428C468.264 222.428 461.404 207.731 472.976 200.556C472.976 200.556 474.505 188.39 473.506 186.603C473.482 186.566 473.453 186.533 473.418 186.505C471.995 185.302 456.621 179.312 454.137 168.111C454.04 167.668 453.96 167.226 453.907 166.774C453.723 164.818 453.797 162.845 454.128 160.908C456.161 147.636 466.956 128.375 466.956 128.375C466.956 128.375 473.798 129.012 483.532 130.436C485.583 130.737 487.757 131.082 490.029 131.462C502.167 133.48 516.887 136.568 528.503 140.983C533.129 142.622 537.524 144.853 541.578 147.619C541.578 147.619 562.76 168.748 558.72 175.605Z" fill="white"/>
<path d="M492.328 169.411C491.789 166.571 492.664 163.784 492.699 160.952C492.699 156.272 488.933 153.688 487.731 149.45C484.867 139.372 494.37 133.25 503.423 134.081C516.401 135.267 524.242 146.592 521.431 159.378C518.682 171.88 506.941 178.25 501.363 177.737C499.16 177.512 497.09 176.58 495.461 175.079C493.832 173.578 492.733 171.59 492.328 169.411Z" fill="#EFB065"/>
<path d="M490.692 190.124C493.283 190.31 495.829 190.558 498.384 190.717C500.939 190.876 503.485 190.965 506.084 190.938C503.552 191.578 500.932 191.794 498.331 191.575C495.734 191.416 493.167 190.929 490.692 190.124Z" fill="#483723"/>
<path d="M503.511 206.493C502.944 208.643 502.22 210.748 501.345 212.792C500.509 214.853 499.523 216.85 498.393 218.765C498.956 216.614 499.68 214.508 500.558 212.465C501.394 210.404 502.381 208.408 503.511 206.493Z" fill="#483723"/>
<path d="M472.967 200.591C472.764 201.609 472.561 202.617 472.41 203.635C472.26 204.652 472.101 205.67 472.004 206.687C471.776 208.714 471.72 210.756 471.836 212.792C471.922 214.808 472.396 216.788 473.232 218.623C474.122 220.459 475.618 221.932 477.467 222.79C476.448 222.501 475.497 222.011 474.669 221.348C473.842 220.686 473.155 219.864 472.649 218.933C471.638 217.06 471.067 214.981 470.978 212.854C470.858 210.762 470.982 208.662 471.349 206.599C471.687 204.547 472.229 202.535 472.967 200.591Z" fill="#483723"/>
<path d="M520.618 185.116L531.606 192.938C532.729 193.734 531.315 195.353 530.201 194.557L519.221 186.744C518.089 185.939 519.504 184.32 520.618 185.116Z" fill="#5E452C"/>
<path d="M522.642 181.904L535.355 185.399C536.681 185.762 536.239 187.868 534.939 187.496L522.218 184.037C520.901 183.674 521.334 181.559 522.642 181.931V181.904Z" fill="#5E452C"/>
<path d="M496.342 167.527C496.375 168.343 496.65 169.131 497.131 169.791C497.613 170.451 498.278 170.953 499.045 171.234C499.811 171.516 500.643 171.563 501.437 171.371C502.23 171.179 502.949 170.756 503.502 170.156C504.055 169.555 504.418 168.804 504.545 167.997C504.672 167.19 504.557 166.363 504.214 165.622C503.872 164.88 503.317 164.257 502.621 163.83C501.925 163.404 501.118 163.194 500.302 163.226C499.208 163.272 498.176 163.751 497.434 164.557C496.691 165.363 496.298 166.431 496.342 167.527Z" fill="#5E452C"/>
<path d="M457.859 158.059C457.891 158.828 458.15 159.57 458.603 160.191C459.056 160.813 459.683 161.286 460.404 161.552C461.126 161.817 461.91 161.862 462.657 161.682C463.404 161.502 464.081 161.104 464.603 160.539C465.124 159.973 465.467 159.266 465.587 158.506C465.707 157.747 465.6 156.968 465.279 156.269C464.957 155.57 464.436 154.983 463.781 154.58C463.126 154.177 462.367 153.978 461.598 154.007C461.087 154.026 460.584 154.147 460.119 154.361C459.653 154.575 459.235 154.879 458.888 155.256C458.54 155.632 458.271 156.074 458.094 156.555C457.917 157.036 457.837 157.547 457.859 158.059Z" fill="#5E452C"/>
<path d="M482.763 163.138C483.227 164.21 483.525 165.347 483.647 166.509C483.683 166.724 483.669 166.944 483.606 167.153C483.543 167.362 483.433 167.553 483.284 167.712C483.001 167.933 482.718 167.916 482.267 167.712C481.304 167.206 480.436 166.536 479.704 165.73C478.89 164.934 478.13 164.031 477.405 163.164L476.884 162.536L476.247 162.987C475.468 163.534 474.643 164.01 473.781 164.412C473.034 164.817 472.187 164.998 471.341 164.934C470.996 164.828 470.792 164.695 470.722 164.412C470.686 163.996 470.769 163.579 470.96 163.209C471.385 162.303 471.91 161.449 472.525 160.66C471.654 161.244 470.894 161.978 470.28 162.828C470.007 163.119 469.815 163.476 469.725 163.865C469.635 164.253 469.649 164.659 469.767 165.04C469.838 165.22 469.936 165.387 470.059 165.536C470.304 165.801 470.606 166.007 470.943 166.137C472.088 166.461 473.311 166.364 474.391 165.863C475.399 165.48 476.357 164.978 477.246 164.368L476.088 164.2C476.846 165.172 477.68 166.083 478.581 166.925C479.035 167.358 479.523 167.754 480.04 168.11C480.577 168.5 481.174 168.798 481.808 168.995C482.185 169.114 482.583 169.147 482.975 169.092C483.408 169.024 483.807 168.812 484.106 168.491C484.254 168.332 484.368 168.146 484.442 167.942C484.525 167.764 484.573 167.572 484.584 167.376C484.622 167.027 484.601 166.674 484.522 166.332C484.177 165.151 483.576 164.06 482.763 163.138Z" fill="#5E452C"/>
<path d="M501.416 176.286C501.054 178.427 504.068 180.71 508.099 181.409C512.131 182.108 515.738 180.922 516.056 178.754C516.374 176.587 513.404 174.331 509.372 173.632C505.341 172.933 501.778 174.145 501.416 176.286Z" fill="#ED8585"/>
<path d="M458.54 164.952C458.425 166.5 456.63 167.703 454.119 168.155C454.022 167.712 453.942 167.27 453.889 166.819C453.705 164.862 453.779 162.89 454.11 160.952C456.842 161.74 458.672 163.297 458.54 164.952Z" fill="#ED8585"/>
<path d="M474.921 160.147C474.806 160.722 476.937 162.085 476.937 162.085C476.937 162.085 479.421 161.669 479.589 161.085C479.757 160.501 477.405 159.988 477.405 159.988C477.405 159.988 475.036 159.528 474.921 160.147Z" fill="#5E452C"/>
<path d="M511.644 155.723C511.167 156.767 501.699 151.972 502.477 150.087C503.255 148.203 512.891 152.972 511.644 155.723Z" fill="#5E452C"/>
<path d="M468.803 142.168C469.042 143.053 460.847 144.885 460.361 143.327C459.874 141.77 468.176 139.85 468.803 142.168Z" fill="#5E452C"/>
<path d="M530.943 175.392C530.943 175.392 550.118 174.056 550.658 171.101C551.294 167.562 533.41 155.175 533.41 155.175C533.41 155.175 533.348 168.712 530.943 175.392Z" fill="#ED8585"/>
<path d="M550.658 171.101C550.356 170.163 549.834 169.311 549.137 168.615C548.483 167.88 547.776 167.19 547.06 166.518C545.619 165.173 544.107 163.863 542.569 162.669C541.03 161.474 539.492 160.191 537.918 158.997C536.345 157.803 534.745 156.643 533.162 155.458L533.825 155.113C533.825 156.829 533.825 158.546 533.666 160.253C533.507 161.961 533.374 163.669 533.109 165.368C532.844 167.066 532.57 168.747 532.225 170.42C531.88 172.092 531.465 173.755 530.961 175.383C531.627 172.039 532.143 168.674 532.508 165.288C532.676 163.598 532.817 161.899 532.924 160.209C533.03 158.519 533.03 156.82 533.003 155.13V154.308L533.675 154.777C535.302 155.918 536.866 157.139 538.431 158.36C539.996 159.581 541.543 160.829 543.037 162.129C544.531 163.43 545.999 164.784 547.395 166.199C548.084 166.918 548.736 167.671 549.349 168.455C550.008 169.209 550.458 170.12 550.658 171.101Z" fill="#483723"/>
<path opacity="0.1" d="M488.279 189.814C483.232 189.208 478.255 188.114 473.418 186.55C471.995 185.346 456.621 179.356 454.137 168.155C454.04 167.712 453.96 167.27 453.907 166.819C453.723 164.862 453.797 162.89 454.128 160.952C456.161 147.681 466.956 128.419 466.956 128.419C466.956 128.419 473.798 129.056 483.532 130.489C474.753 141.549 463.013 158.962 465.647 170.154C469.493 186.488 486.131 189.487 488.279 189.814Z" fill="#5E452C"/>
<path d="M541.57 147.654C541.57 147.654 546.149 127.41 529.326 110.006C516.206 96.4422 493.963 98.3445 482.135 106.467C474.178 111.891 470.642 121.623 470.059 122.101C469.475 122.579 464.816 122.101 463.87 122.933C462.924 123.765 460.484 128.719 460.98 129.436C461.475 130.153 496.784 128.118 541.57 147.654Z" fill="#F9BA2B"/>
<path d="M528.91 109.599C528.91 109.599 528.256 103.928 527.531 103.096C526.806 102.264 515.357 93.4782 503.661 96.1591C502.256 96.4865 498.799 102.238 498.799 102.238L528.91 109.599Z" fill="#F9BA2B"/>
<path opacity="0.2" d="M500.081 100.309C499.31 101 498.592 101.748 497.933 102.547C497.27 103.344 496.656 104.18 496.094 105.051C494.939 106.779 494.001 108.642 493.3 110.599L492.416 112.944L493.99 110.988C495.829 108.697 497.668 106.405 499.595 104.193C500.514 103.061 501.529 102.01 502.627 101.052C503.203 100.653 503.889 100.442 504.59 100.45C505.32 100.397 506.054 100.478 506.756 100.689C506.074 100.38 505.338 100.208 504.59 100.185C504.209 100.17 503.827 100.191 503.449 100.247C503.053 100.294 502.675 100.444 502.353 100.68C501.172 101.593 500.072 102.606 499.064 103.706C497.04 105.874 495.148 108.13 493.327 110.475L494.052 110.873C494.397 109.918 494.75 108.971 495.183 108.051C495.617 107.131 496.067 106.219 496.571 105.326C497.075 104.432 497.623 103.556 498.198 102.733C498.783 101.893 499.411 101.083 500.081 100.309Z" fill="#5E452C"/>
<path opacity="0.2" d="M527.487 108.272C526.208 107.241 524.838 106.329 523.393 105.547C521.969 104.749 520.492 104.049 518.973 103.45C517.446 102.841 515.877 102.342 514.279 101.955C512.683 101.566 511.056 101.317 509.417 101.211C510.999 101.663 512.555 102.096 514.093 102.6C515.632 103.105 517.152 103.644 518.655 104.246C520.158 104.848 521.59 105.467 523.093 106.175C524.596 106.883 526.01 107.52 527.487 108.272Z" fill="#5E452C"/>
<path opacity="0.2" d="M473.047 122.385C475.787 122.641 478.519 122.933 481.251 123.269C483.983 123.606 486.705 123.986 489.419 124.42C494.848 125.304 500.267 126.233 505.606 127.499C510.984 128.697 516.295 130.173 521.519 131.923C522.819 132.347 524.092 132.869 525.383 133.338L527.31 134.064L529.193 134.949L531.076 135.771L532.022 136.178L532.906 136.656L536.566 138.559C531.874 135.643 526.89 133.227 521.696 131.347L517.789 130.003C516.48 129.551 515.137 129.206 513.819 128.808L511.83 128.224L509.823 127.72C508.488 127.384 507.171 127.012 505.81 126.72C500.417 125.54 494.986 124.579 489.517 123.836C484.044 123.101 478.554 122.553 473.047 122.385Z" fill="#5E452C"/>
<path d="M521.82 209.979C520.764 210.605 519.64 211.107 518.469 211.474C515.817 212.27 512.405 212.934 509.894 211.474C508.971 210.832 508.176 210.021 507.551 209.085C506.146 207.271 504.696 205.935 503.184 204.281C499.144 199.857 502.565 195.336 507.03 193.345C508.851 196.767 511.423 199.731 514.553 202.016C517.501 204.137 519.975 206.849 521.82 209.979Z" fill="#EFB065"/>
<path d="M484.018 227.834C483.762 226.119 484.116 224.369 485.017 222.888C485.977 221.414 487.398 220.301 489.057 219.72L490.303 219.331C490.723 219.226 491.148 219.144 491.577 219.083C492.461 218.924 493.256 218.862 494.105 218.756C495.785 218.579 497.464 218.429 499.144 218.278C502.512 218.03 505.889 217.853 509.178 217.34C510.805 217.039 512.529 216.747 513.474 215.349C514.448 213.983 514.973 212.347 514.977 210.669C515.135 212.395 514.725 214.125 513.81 215.597C513.557 215.96 513.26 216.289 512.926 216.579C512.741 216.703 512.564 216.854 512.369 216.969L511.777 217.261C510.972 217.575 510.141 217.818 509.293 217.986C507.627 218.311 505.945 218.544 504.254 218.685L499.206 219.136C497.526 219.251 495.846 219.375 494.167 219.535C492.51 219.629 490.869 219.899 489.269 220.34C487.663 220.795 486.261 221.787 485.296 223.15C484.331 224.514 483.861 226.166 483.965 227.834H484.018Z" fill="#483723"/>
<path d="M482.17 220.959C481.101 221.393 480.013 222.171 478.996 221.923C479.766 220.092 481.56 208.652 482.595 201.803C486.025 204.068 489.587 208.076 489.817 212.2C490.091 217.181 486.148 219.331 482.17 220.959Z" fill="#EFB065"/>
<path d="M473.851 225.693C474.105 225.231 474.458 224.832 474.886 224.525C475.3 224.207 475.731 223.911 476.176 223.64L477.494 222.835C477.923 222.586 478.324 222.289 478.687 221.95L478.767 221.87L478.714 221.932C478.661 221.985 478.714 221.932 478.714 221.853C478.736 221.795 478.754 221.736 478.767 221.676C478.767 221.552 478.846 221.446 478.873 221.313C478.899 221.18 479.005 220.8 479.058 220.534L479.359 218.95L479.916 215.756L480.994 209.35C481.357 207.218 481.728 205.077 482.126 202.945C482.524 200.812 482.904 198.68 483.355 196.556C482.992 200.883 482.471 205.192 481.817 209.483C481.487 211.624 481.124 213.763 480.729 215.898C480.526 216.969 480.305 218.03 480.075 219.101C479.96 219.632 479.827 220.163 479.677 220.685C479.615 220.95 479.527 221.216 479.447 221.481C479.405 221.619 479.355 221.755 479.297 221.888C479.276 221.958 479.249 222.026 479.217 222.091C479.177 222.193 479.113 222.284 479.032 222.357C478.617 222.703 478.163 223 477.679 223.242C477.22 223.489 476.751 223.702 476.291 223.941C475.829 224.165 475.381 224.416 474.948 224.693C474.52 224.951 474.148 225.291 473.851 225.693Z" fill="#483723"/>
<path d="M293.894 274.631C293.517 275.021 293.188 275.455 292.913 275.922L292.506 275.701C292.483 275.599 292.431 275.506 292.356 275.433C292.281 275.361 292.187 275.311 292.084 275.291C291.982 275.271 291.876 275.281 291.779 275.319C291.682 275.358 291.599 275.425 291.539 275.51C291.479 275.595 291.445 275.697 291.441 275.801C291.437 275.905 291.464 276.009 291.518 276.098C291.571 276.188 291.65 276.26 291.744 276.306C291.838 276.351 291.943 276.369 292.046 276.356C292.102 276.348 292.156 276.33 292.205 276.303L292.603 276.515C292.382 277.007 292.222 277.524 292.126 278.055L292.789 278.17C292.997 277.011 293.548 275.941 294.371 275.1L293.894 274.631Z" fill="#F9FBFC"/>
<path d="M298.747 272.596H298.296L298.226 272.038C298.337 271.954 298.418 271.835 298.454 271.701C298.491 271.566 298.482 271.423 298.428 271.294C298.374 271.165 298.279 271.058 298.158 270.989C298.036 270.92 297.895 270.894 297.757 270.914C297.675 270.923 297.595 270.948 297.523 270.988C297.45 271.029 297.387 271.083 297.336 271.148C297.284 271.213 297.247 271.288 297.225 271.368C297.203 271.448 297.198 271.531 297.209 271.613C297.222 271.72 297.261 271.822 297.323 271.91C297.385 271.998 297.467 272.069 297.563 272.118L297.625 272.666C296.996 272.769 296.385 272.963 295.812 273.241L296.095 273.843C296.923 273.447 297.83 273.245 298.747 273.25C299.184 273.249 299.62 273.296 300.047 273.392L300.188 272.728C299.714 272.635 299.231 272.591 298.747 272.596Z" fill="#F9FBFC"/>
<path d="M304.582 274.852C304.683 274.838 304.778 274.796 304.856 274.729C304.933 274.663 304.99 274.576 305.02 274.478C305.049 274.38 305.049 274.276 305.021 274.178C304.992 274.079 304.936 273.992 304.859 273.925C304.782 273.858 304.687 273.815 304.586 273.8C304.485 273.786 304.382 273.801 304.289 273.844C304.197 273.886 304.118 273.955 304.063 274.041C304.009 274.127 303.98 274.228 303.981 274.33L303.618 274.648C303.243 274.265 302.825 273.926 302.372 273.64L302.018 274.206C303.01 274.83 303.796 275.731 304.281 276.798L304.891 276.524C304.672 276.034 304.393 275.574 304.06 275.153L304.414 274.843C304.469 274.855 304.526 274.858 304.582 274.852Z" fill="#F9FBFC"/>
<path d="M298.261 281.629C297.916 281.629 297.58 281.629 297.236 281.629C296.502 281.633 295.769 281.58 295.043 281.47C294.663 281.414 294.287 281.329 293.92 281.213C294.454 282.153 295.253 282.913 296.217 283.399C297.181 283.885 298.268 284.075 299.339 283.944C300.411 283.814 301.42 283.369 302.24 282.666C303.059 281.963 303.653 281.032 303.946 279.992C303.271 280.426 302.539 280.763 301.771 280.992C300.629 281.338 299.451 281.552 298.261 281.629Z" fill="#F9FBFC"/>
<path d="M298.747 273.94C298.049 273.931 297.356 274.06 296.708 274.319C296.06 274.578 295.469 274.963 294.97 275.451C294.47 275.94 294.072 276.522 293.798 277.164C293.524 277.807 293.379 278.497 293.372 279.196C293.369 279.571 293.41 279.946 293.496 280.311C294.088 280.736 295.883 281.098 298.217 280.957C300.334 280.952 302.396 280.284 304.114 279.046C304.122 278.875 304.122 278.703 304.114 278.532C303.938 277.241 303.294 276.06 302.305 275.213C301.315 274.366 300.049 273.913 298.747 273.94ZM296.838 279.7C296.514 279.7 296.198 279.604 295.929 279.425C295.66 279.245 295.451 278.989 295.327 278.69C295.203 278.391 295.171 278.062 295.234 277.744C295.297 277.427 295.453 277.135 295.681 276.906C295.91 276.677 296.201 276.521 296.519 276.458C296.836 276.395 297.165 276.427 297.464 276.551C297.762 276.675 298.018 276.885 298.198 277.154C298.377 277.423 298.473 277.74 298.473 278.063C298.473 278.278 298.431 278.491 298.349 278.69C298.267 278.888 298.146 279.069 297.994 279.221C297.842 279.373 297.662 279.494 297.464 279.576C297.265 279.658 297.053 279.7 296.838 279.7ZM301.028 278.895C300.79 278.895 300.558 278.825 300.36 278.692C300.162 278.56 300.008 278.372 299.917 278.152C299.826 277.933 299.803 277.691 299.849 277.457C299.895 277.224 300.01 277.009 300.178 276.841C300.346 276.673 300.56 276.558 300.794 276.512C301.027 276.465 301.269 276.489 301.488 276.58C301.708 276.671 301.896 276.825 302.028 277.023C302.16 277.221 302.23 277.454 302.23 277.692C302.23 277.85 302.199 278.006 302.139 278.152C302.079 278.298 301.99 278.431 301.878 278.543C301.767 278.655 301.634 278.743 301.488 278.804C301.342 278.864 301.186 278.895 301.028 278.895Z" fill="#F9FBFC"/>
<path d="M312.892 275.586C312.51 275.415 312.09 275.345 311.672 275.383C311.562 275.382 311.453 275.406 311.352 275.453C311.252 275.499 311.163 275.567 311.092 275.651C311.02 275.735 310.968 275.834 310.938 275.94C310.909 276.047 310.903 276.158 310.921 276.267V277.037H312.892V278.559H310.921V283.381H309.214V278.559H308.03V277.037H309.214V276.25C309.172 275.933 309.201 275.61 309.297 275.305C309.394 275.001 309.557 274.721 309.773 274.486C309.99 274.251 310.256 274.067 310.552 273.947C310.848 273.826 311.167 273.773 311.486 273.79C311.969 273.781 312.448 273.875 312.892 274.064V275.586Z" fill="#F9FBFC"/>
<path d="M317.047 278.541C316.895 278.513 316.742 278.499 316.587 278.497C316.401 278.485 316.215 278.514 316.041 278.583C315.868 278.652 315.712 278.758 315.584 278.894C315.457 279.03 315.361 279.193 315.303 279.371C315.246 279.548 315.229 279.736 315.253 279.922V283.381H313.546V277.037H315.2V277.727C315.392 277.439 315.657 277.206 315.967 277.051C316.277 276.896 316.622 276.824 316.968 276.842C317.312 276.831 317.651 276.934 317.931 277.134L317.047 278.541Z" fill="#F9FBFC"/>
<path d="M323.828 280.196C323.843 280.387 323.843 280.58 323.828 280.771H319.337C319.39 281.157 319.587 281.507 319.89 281.752C320.192 281.997 320.576 282.118 320.964 282.089C321.554 282.077 322.122 281.861 322.572 281.479L323.571 282.585C322.828 283.244 321.859 283.589 320.866 283.549C320.009 283.518 319.197 283.158 318.598 282.544C317.999 281.93 317.658 281.109 317.647 280.251C317.635 279.393 317.954 278.563 318.537 277.934C319.12 277.304 319.922 276.923 320.778 276.869C321.202 276.869 321.622 276.957 322.01 277.127C322.399 277.298 322.748 277.548 323.034 277.861C323.321 278.174 323.54 278.543 323.676 278.945C323.813 279.347 323.865 279.773 323.828 280.196ZM319.31 279.612H322.113C322.085 279.259 321.925 278.93 321.665 278.69C321.406 278.45 321.065 278.317 320.712 278.317C320.358 278.317 320.018 278.45 319.758 278.69C319.498 278.93 319.338 279.259 319.31 279.612Z" fill="#F9FBFC"/>
<path d="M330.635 280.196C330.645 280.388 330.645 280.579 330.635 280.771H326.135C326.19 281.157 326.39 281.508 326.693 281.753C326.997 281.998 327.382 282.118 327.771 282.089C328.359 282.077 328.924 281.861 329.371 281.479L330.37 282.585C329.627 283.245 328.657 283.59 327.665 283.549C326.808 283.517 325.997 283.156 325.398 282.541C324.8 281.926 324.461 281.105 324.451 280.247C324.44 279.389 324.76 278.56 325.343 277.931C325.927 277.303 326.729 276.922 327.585 276.869C328.009 276.869 328.429 276.957 328.818 277.127C329.206 277.298 329.555 277.548 329.842 277.861C330.128 278.174 330.347 278.543 330.484 278.945C330.62 279.347 330.672 279.773 330.635 280.196ZM326.118 279.612H328.867C328.828 279.266 328.663 278.947 328.404 278.715C328.145 278.483 327.809 278.354 327.461 278.354C327.113 278.354 326.778 278.483 326.519 278.715C326.259 278.947 326.094 279.266 326.056 279.612H326.118Z" fill="#F9FBFC"/>
<path d="M337.973 280.205C337.999 280.628 337.94 281.052 337.798 281.452C337.657 281.851 337.436 282.218 337.15 282.53C336.864 282.843 336.517 283.094 336.131 283.269C335.746 283.444 335.328 283.539 334.905 283.549C334.551 283.563 334.199 283.494 333.876 283.35C333.552 283.206 333.266 282.99 333.04 282.718V286H331.333V277.037H333.004V277.736C333.228 277.451 333.516 277.222 333.845 277.068C334.174 276.915 334.534 276.84 334.896 276.851C335.321 276.86 335.74 276.955 336.127 277.13C336.515 277.305 336.863 277.557 337.15 277.87C337.438 278.184 337.659 278.552 337.8 278.953C337.942 279.355 338 279.78 337.973 280.205ZM332.951 280.205C332.977 280.522 333.094 280.824 333.289 281.075C333.484 281.326 333.747 281.515 334.047 281.619C334.347 281.723 334.671 281.737 334.979 281.66C335.287 281.582 335.566 281.417 335.782 281.184C335.998 280.95 336.141 280.659 336.194 280.346C336.247 280.032 336.208 279.71 336.081 279.419C335.954 279.127 335.745 278.879 335.48 278.704C335.215 278.53 334.904 278.436 334.587 278.435C334.36 278.434 334.136 278.481 333.929 278.571C333.721 278.662 333.534 278.794 333.381 278.961C333.227 279.127 333.109 279.323 333.036 279.538C332.962 279.752 332.933 279.979 332.951 280.205Z" fill="#F9FBFC"/>
<path d="M340.713 274.958C340.711 275.173 340.646 275.382 340.526 275.56C340.405 275.738 340.235 275.876 340.036 275.957C339.837 276.038 339.619 276.058 339.408 276.015C339.198 275.972 339.005 275.868 338.854 275.716C338.703 275.563 338.6 275.369 338.559 275.158C338.517 274.947 338.54 274.729 338.622 274.531C338.705 274.332 338.844 274.163 339.023 274.044C339.201 273.924 339.411 273.861 339.626 273.861C339.769 273.861 339.912 273.889 340.044 273.945C340.177 274 340.297 274.081 340.398 274.183C340.499 274.285 340.579 274.406 340.633 274.539C340.687 274.672 340.714 274.814 340.713 274.958ZM340.483 283.381H338.777V277.037H340.483V283.381Z" fill="#F9FBFC"/>
<path d="M343.339 279.293L345.726 277.037H347.821L344.78 280.019L347.874 283.381H345.77L343.374 280.815V283.381H341.668V273.949H343.374L343.339 279.293Z" fill="#F9FBFC"/>
<path d="M226.98 283.328V282.39C226.737 282.723 226.419 282.995 226.052 283.184C225.685 283.373 225.28 283.474 224.867 283.478C223.241 283.478 222.082 282.24 222.082 280.205C222.082 278.17 223.223 276.904 224.867 276.904C225.281 276.911 225.688 277.014 226.055 277.206C226.422 277.398 226.739 277.674 226.98 278.01V274.684H227.953V283.328H226.98ZM226.98 281.629V278.789C226.768 278.484 226.487 278.234 226.16 278.058C225.832 277.883 225.468 277.788 225.097 277.78C223.842 277.78 223.09 278.816 223.09 280.205C223.09 281.594 223.842 282.611 225.097 282.611C225.466 282.607 225.829 282.516 226.156 282.345C226.483 282.174 226.765 281.929 226.98 281.629Z" fill="#F9FBFC"/>
<path d="M229.208 280.187C229.188 279.768 229.252 279.349 229.397 278.955C229.542 278.561 229.764 278.2 230.051 277.893C230.338 277.587 230.684 277.342 231.067 277.172C231.451 277.002 231.865 276.911 232.284 276.905C234.176 276.905 235.29 278.382 235.29 280.267V280.479H230.225C230.23 280.769 230.293 281.055 230.41 281.321C230.526 281.587 230.694 281.827 230.904 282.027C231.113 282.228 231.36 282.385 231.63 282.49C231.901 282.595 232.189 282.645 232.479 282.638C233.203 282.641 233.898 282.358 234.415 281.851L234.875 282.488C234.546 282.806 234.157 283.055 233.73 283.219C233.303 283.383 232.847 283.46 232.39 283.443C231.963 283.455 231.539 283.378 231.142 283.217C230.746 283.057 230.388 282.816 230.089 282.51C229.79 282.205 229.558 281.841 229.406 281.441C229.255 281.041 229.187 280.614 229.208 280.187ZM232.276 277.71C231.729 277.721 231.209 277.946 230.826 278.336C230.442 278.726 230.227 279.251 230.225 279.798H234.335C234.343 279.524 234.294 279.251 234.194 278.996C234.093 278.742 233.942 278.51 233.75 278.315C233.557 278.12 233.328 277.966 233.074 277.862C232.821 277.758 232.549 277.706 232.276 277.71Z" fill="#F9FBFC"/>
<path d="M235.989 282.496L236.492 281.797C236.758 282.076 237.078 282.298 237.432 282.45C237.786 282.603 238.167 282.681 238.552 282.682C239.516 282.682 240.029 282.231 240.029 281.603C240.029 280.09 236.157 281.019 236.157 278.701C236.157 277.727 237.041 276.931 238.49 276.931C238.916 276.915 239.341 276.985 239.739 277.137C240.137 277.289 240.5 277.52 240.807 277.816L240.356 278.488C240.119 278.231 239.83 278.028 239.508 277.893C239.186 277.757 238.839 277.691 238.49 277.701C237.606 277.701 237.102 278.125 237.102 278.683C237.102 280.054 240.975 279.152 240.975 281.585C240.975 282.638 240.135 283.478 238.517 283.478C238.05 283.501 237.584 283.426 237.148 283.256C236.713 283.087 236.318 282.828 235.989 282.496Z" fill="#F9FBFC"/>
<path d="M242.062 275.524C242.062 275.35 242.131 275.184 242.254 275.061C242.376 274.938 242.543 274.869 242.716 274.869C242.89 274.869 243.056 274.938 243.179 275.061C243.301 275.184 243.37 275.35 243.37 275.524C243.37 275.698 243.301 275.864 243.179 275.987C243.056 276.11 242.89 276.179 242.716 276.179C242.543 276.179 242.376 276.11 242.254 275.987C242.131 275.864 242.062 275.698 242.062 275.524ZM242.23 283.328V277.064H243.202V283.328H242.23Z" fill="#F9FBFC"/>
<path d="M244.811 284.903L245.298 284.177C245.541 284.477 245.852 284.714 246.206 284.868C246.56 285.022 246.946 285.089 247.331 285.062C247.592 285.099 247.859 285.076 248.11 284.996C248.362 284.916 248.592 284.781 248.784 284.6C248.977 284.419 249.126 284.198 249.222 283.952C249.318 283.705 249.357 283.441 249.338 283.178V282.293C249.103 282.632 248.79 282.911 248.425 283.105C248.061 283.298 247.655 283.402 247.243 283.408C245.616 283.408 244.458 282.196 244.458 280.169C244.458 278.143 245.598 276.913 247.243 276.913C247.655 276.917 248.06 277.019 248.424 277.212C248.789 277.404 249.102 277.681 249.338 278.019V277.073H250.31V283.133C250.31 285.204 248.86 285.859 247.331 285.859C246.867 285.893 246.4 285.826 245.965 285.661C245.53 285.496 245.136 285.237 244.811 284.903ZM249.338 281.497V278.763C249.132 278.458 248.856 278.207 248.533 278.031C248.21 277.856 247.849 277.76 247.481 277.754C246.217 277.754 245.474 278.745 245.474 280.134C245.474 281.523 246.217 282.523 247.481 282.523C247.841 282.509 248.193 282.411 248.51 282.238C248.826 282.064 249.097 281.82 249.302 281.523L249.338 281.497Z" fill="#F9FBFC"/>
<path d="M256.154 283.328V279.231C256.154 278.125 255.597 277.78 254.757 277.78C254.394 277.791 254.038 277.884 253.717 278.053C253.395 278.222 253.116 278.461 252.9 278.754V283.328H251.955V277.064H252.927V277.948C253.205 277.627 253.547 277.366 253.93 277.182C254.313 276.997 254.73 276.894 255.155 276.878C255.429 276.838 255.708 276.864 255.97 276.952C256.232 277.041 256.47 277.189 256.664 277.386C256.859 277.584 257.004 277.823 257.089 278.087C257.174 278.351 257.196 278.63 257.153 278.904V283.328H256.154Z" fill="#F9FBFC"/>
<path d="M258.382 280.187C258.361 279.768 258.426 279.349 258.57 278.955C258.715 278.561 258.938 278.2 259.225 277.893C259.512 277.587 259.858 277.342 260.241 277.172C260.625 277.002 261.039 276.911 261.458 276.905C263.35 276.905 264.464 278.382 264.464 280.267V280.479H259.407C259.412 280.769 259.473 281.055 259.589 281.32C259.705 281.586 259.872 281.826 260.08 282.027C260.289 282.228 260.536 282.385 260.805 282.49C261.075 282.595 261.363 282.645 261.653 282.638C262.376 282.641 263.072 282.358 263.589 281.851L264.048 282.488C263.72 282.806 263.331 283.055 262.904 283.219C262.477 283.383 262.021 283.46 261.564 283.443C261.137 283.455 260.712 283.378 260.316 283.217C259.92 283.057 259.562 282.816 259.263 282.51C258.964 282.205 258.731 281.841 258.58 281.441C258.428 281.041 258.361 280.614 258.382 280.187ZM261.449 277.71C260.903 277.719 260.382 277.943 260 278.334C259.618 278.725 259.405 279.251 259.407 279.798H263.509C263.516 279.524 263.468 279.251 263.367 278.996C263.267 278.742 263.116 278.51 262.923 278.315C262.731 278.12 262.501 277.966 262.248 277.862C261.995 277.758 261.723 277.706 261.449 277.71Z" fill="#F9FBFC"/>
<path d="M270.246 283.328V282.39C270.002 282.723 269.684 282.995 269.318 283.184C268.951 283.373 268.545 283.474 268.133 283.478C266.497 283.478 265.348 282.24 265.348 280.205C265.348 278.17 266.488 276.904 268.133 276.904C268.547 276.911 268.953 277.014 269.32 277.206C269.687 277.398 270.004 277.674 270.246 278.01V274.684H271.209V283.328H270.246ZM270.246 281.629V278.789C270.033 278.484 269.752 278.234 269.425 278.058C269.098 277.883 268.734 277.788 268.362 277.78C267.107 277.78 266.356 278.816 266.356 280.205C266.356 281.594 267.107 282.611 268.362 282.611C268.731 282.607 269.094 282.516 269.421 282.345C269.748 282.174 270.031 281.929 270.246 281.629Z" fill="#F9FBFC"/>
<path d="M275.824 283.328V274.684H276.796V278.01C277.033 277.671 277.348 277.394 277.714 277.202C278.08 277.009 278.487 276.907 278.9 276.904C280.536 276.904 281.685 278.205 281.685 280.205C281.685 282.204 280.536 283.478 278.9 283.478C278.489 283.473 278.085 283.371 277.72 283.182C277.355 282.994 277.039 282.722 276.796 282.39V283.328H275.824ZM278.662 282.611C279.926 282.611 280.677 281.585 280.677 280.205C280.677 278.824 279.926 277.78 278.662 277.78C278.293 277.787 277.931 277.882 277.606 278.058C277.282 278.233 277.004 278.484 276.796 278.789V281.629C277.01 281.933 277.293 282.181 277.622 282.352C277.952 282.523 278.317 282.612 278.688 282.611H278.662Z" fill="#F9FBFC"/>
<path d="M282.773 284.903C282.945 284.969 283.127 285.005 283.312 285.009C283.513 285.015 283.709 284.953 283.87 284.833C284.031 284.712 284.146 284.54 284.196 284.345L284.611 283.399L281.959 277.073H283.011L285.089 282.204L287.166 277.073H288.227L285.089 284.602C284.962 284.986 284.714 285.317 284.383 285.547C284.051 285.777 283.653 285.893 283.25 285.876C283.011 285.872 282.774 285.839 282.543 285.779L282.773 284.903Z" fill="#F9FBFC"/>
</g>
<defs>
<clipPath id="clip0_1288_2311">
<rect width="562" height="286" fill="white"/>
</clipPath>
</defs>
</svg>
