<?xml version="1.0" encoding="UTF-8"?>
<svg id="Layer_2" data-name="Layer 2" xmlns="http://www.w3.org/2000/svg" xmlns:xlink="http://www.w3.org/1999/xlink" viewBox="0 0 432 384">
  <defs>
    <style>
      .cls-1 {
        fill: url(#linear-gradient);
      }

      .cls-2 {
        fill: url(#linear-gradient-2);
      }
    </style>
    <linearGradient id="linear-gradient" x1="0" y1="287.77" x2="432" y2="287.77" gradientUnits="userSpaceOnUse">
      <stop offset="0" stop-color="#fc0"/>
      <stop offset="1" stop-color="#fc0"/>
    </linearGradient>
    <linearGradient id="linear-gradient-2" x1="214.22" y1="105.68" x2="336.36" y2="105.68" xlink:href="#linear-gradient"/>
  </defs>
  <g id="Layer_1-2" data-name="Layer 1">
    <g>
      <path class="cls-1" d="M0,332c.5-1.3,1.09-2.57,1.49-3.89,5.33-18.06,17.74-27.58,37.11-28.14,26.58-.76,52.21-5.68,76.47-16.93,25.23-11.7,47.22-27.73,65.64-48.66-12.54-8.48-31.52-8.46-43.97,.24-11.46,8.01-22.67,16.39-34.09,24.45-11.39,8.04-22.76,5.47-28.33-6.23-3.03-6.36-2.41-13.9,3.61-18.66,14.72-11.63,28.99-24.51,45.4-33.16,29.67-15.63,58.98-11.36,85.65,8.94,10.99,8.37,21.44,17.45,32.34,25.94,1.63,1.27,4.6,2.02,6.56,1.51,23.78-6.24,47.28-13.7,71.26-18.96,31.39-6.89,59.51,.61,82.31,24.09,13.1,13.49,21.45,30.28,30.57,46.48v11c-3.28,3.39-6,7.82-9.95,9.96-8.51,4.59-16.8,1.48-22.96-7.75-5.08-7.61-9.43-15.73-14.79-23.12-4.45-6.14-9.16-12.51-15.07-17.09-13.7-10.65-29.51-11.76-46.02-7.71-3.86,.95-6.29,2.63-8.05,6.31-16.52,34.5-40.36,62.9-71.82,84.72-27.21,18.87-57.05,31.27-89.99,35.87-5.8,.81-11.56,1.87-17.34,2.82H30c-.94-.54-1.82-1.31-2.83-1.6-13.46-3.85-21.94-12.52-25.52-26.05-.4-1.49-1.09-2.91-1.65-4.35,0-6.67,0-13.33,0-20Z"/>
      <path class="cls-2" d="M251,0c17.43,5.87,27.7,20.28,38.25,33.66,23.04,29.21,38.37,62.23,44.21,99.22,3.07,19.46,3.96,39.04,1.41,58.87-27.95,3.14-54.19,13.07-81.3,19.45-1.76,.41-4.34,.03-5.73-1.04-11.32-8.73-22.44-17.71-33.62-26.62,3.16-10.72,6.99-21.53,9.5-32.65,5.17-22.92,6.55-46.23,2.63-69.42-2.43-14.36-6.92-28.37-10.37-42.56-4.28-17.67,4.5-32.65,22.01-37.82C238.71,.87,239.33,.37,240,0c3.67,0,7.33,0,11,0Z"/>
    </g>
  </g>
</svg>