<?xml version="1.0" encoding="UTF-8"?>
<svg id="Layer_2" data-name="Layer 2" xmlns="http://www.w3.org/2000/svg" viewBox="0 0 495.65 434.69">
  <defs>
    <style>
      .cls-1 {
        fill: #fee07d;
      }

      .cls-2 {
        fill: #fed064;
      }

      .cls-3 {
        fill: #d29c6e;
      }
    </style>
  </defs>
  <g id="Layer_1-2" data-name="Layer 1">
    <g>
      <path class="cls-3" d="M80.69,356.85c-12.92,3.26-18.74,11.56-17.65,24.79,1.51,2.96,3.03,5.93,4.54,8.89,4.16,2.45,8.32,4.9,12.48,7.35,.15-6.51,.3-13.02,.46-19.54,.06-7.16,.11-14.33,.17-21.49Z"/>
      <path class="cls-3" d="M4.04,266.09c1.97,1.65,3.94,3.3,5.91,4.94,2.19-5.97,4.38-11.95,6.57-17.92,2.04-6.44,4.07-12.87,6.11-19.31-16.67,.22-24.58,8.16-22.22,25.17,1.21,2.37,2.42,4.74,3.63,7.11Z"/>
      <path class="cls-1" d="M80.69,356.85c-.06,7.16-.11,14.33-.17,21.49,24.78,11.11,50.38,19.54,77.47,22.64,84.14,9.61,157.75-18.5,225.51-64.95,44.7-30.64,77.36-70.89,88.41-125.6,7.55-37.37,1.93-73.4-12.74-108.27-11.16-16.18-12.13-34.91-13.43-53.56-12.69-2.64-25.38-5.27-38.07-7.91,.64,4.88,1.29,9.76,1.93,14.64,2.41,12.51,5.78,24.93,7.07,37.56,6.12,60-2.15,117.27-45.09,162.64-64.22,67.86-149.36,84.22-237.83,90.02-.62-.08-1.25-.15-1.87-.23l.05,.03c-17.39,2.47-35.34,2.46-51.25,11.5Z"/>
      <path class="cls-1" d="M22.63,233.8c-2.04,6.44-4.07,12.87-6.11,19.31,72.2,78.46,234.98,85.02,318.79,13.71,50.4-42.88,72.66-96.34,66.06-162.02-16.84,58.63-48.05,106.05-106.7,129.64-66.39,26.7-134.67,21.89-203.04,8.43-22.8-4.49-44.93-14.23-69.01-9.07Z"/>
      <path class="cls-2" d="M459.18,102.16c14.67,34.86,20.29,70.9,12.74,108.27-11.05,54.71-43.72,94.96-88.41,125.6-67.76,46.45-141.37,74.55-225.51,64.95-27.09-3.09-52.69-11.53-77.47-22.64-.15,6.51-.3,13.02-.46,19.54,71.99,42.45,147.63,46.93,225.48,19.93,62.18-21.56,117.88-53.39,157.6-108.09,44.81-61.71,43.1-150.55-3.97-207.56Z"/>
      <path class="cls-2" d="M401.37,104.81c6.6,65.68-15.67,119.14-66.06,162.02-83.82,71.31-246.6,64.74-318.79-13.71-2.19,5.97-4.38,11.95-6.57,17.92,33.2,37.03,74.53,60.72,121.99,74.32,0,0-.05-.03-.05-.03,.62,.08,1.25,.15,1.87,.23,88.47-5.8,173.61-22.16,237.83-90.02,42.93-45.37,51.21-102.64,45.09-162.64-1.29-12.63-4.66-25.04-7.07-37.56-2.75,16.49-5.49,32.98-8.24,49.47Z"/>
      <path class="cls-3" d="M407.68,40.7c12.69,2.64,25.38,5.27,38.07,7.91,.8-11.38,3.31-22.97,1.96-34.09-1.67-13.74-16.04-10.7-25.03-14.01-6.32-2.33-8.9,3.84-9.85,9.54-1.71,10.22-3.43,20.43-5.15,30.65Z"/>
    </g>
  </g>
</svg>