<?xml version="1.0" encoding="UTF-8"?>
<svg id="Layer_2" data-name="Layer 2" xmlns="http://www.w3.org/2000/svg" viewBox="0 0 452.95 453.29">
  <defs>
    <style>
      .cls-1 {
        fill: #fff;
      }

      .cls-2 {
        fill: #c8262c;
      }

      .cls-3 {
        fill: #ca272c;
      }

      .cls-4 {
        fill: #0772b8;
      }
    </style>
  </defs>
  <g id="Layer_1-2" data-name="Layer 1">
    <g>
      <circle class="cls-1" cx="226.04" cy="227.39" r="140.07"/>
      <path class="cls-3" d="M0,226.96C.09,117.16,96.6,13.72,187.97,2.07c159.81-20.38,267.41,113.52,264.94,225.24-2.78,125.87-101.51,226.11-227.99,225.98C100.37,453.17-.1,352.06,0,226.96Zm246.04,201.05c34.01-4.14,68.94-16.9,99.78-39.78,31.69-23.51,54.33-53.89,68.23-90.78,14.05-37.28,16.29-75.48,7.99-114.3C401.41,86.71,313.24,21.74,210.33,26.94,116.92,31.65,37.04,109.03,26.46,206.88c-6.3,58.29,11.31,110.68,49.49,154.43,43.24,49.54,100.64,68.59,170.09,66.69Z"/>
      <path class="cls-2" d="M226.36,394.29c-92.87,.07-167.77-73.86-167.2-166.55,.65-104.7,79.43-160.15,147.76-166.55,115.26-10.8,187.28,80.55,186.54,166.1-.8,92.76-74.35,166.93-167.1,167Zm133.89-210.85c-14.84-55.52-72.92-97.91-134.13-97.91-61.17,0-119.58,42.67-134.06,97.93-20,55.58,.67,120.8,49.97,157.73,48.95,36.67,117.98,36.66,168.2-.01,48.8-35.64,69.79-101.83,50.01-157.74Z"/>
      <path class="cls-4" d="M360.25,183.44c19.77,55.91-1.21,122.1-50.01,157.74-50.22,36.67-119.25,36.68-168.2,.01-49.31-36.93-69.97-102.15-49.97-157.73,.4,.31,.79,.62,1.18,.95,27.07,20.1,54.14,40.2,81.5,60.51-10.23,31.42-20.39,62.62-31.63,97.13,29.22-21.19,56.03-40.62,83.04-60.2,26.9,19.5,53.24,38.58,82.8,60.01-11.29-34.96-21.38-66.17-31.33-96.98,27.75-20.6,54.57-40.52,81.39-60.44,.41-.34,.82-.67,1.24-1Z"/>
      <path class="cls-4" d="M92.06,183.46c14.48-55.25,72.89-97.92,134.06-97.93,61.21,0,119.29,42.39,134.13,97.91-.42,.33-.83,.66-1.24,1-33.79,0-67.58,0-101.05,0-10.69-32.8-20.93-64.21-31.81-97.57-10.98,33.6-21.32,65.24-31.87,97.54H93.24c-.39-.32-.78-.64-1.18-.95Z"/>
    </g>
  </g>
</svg>