<?xml version="1.0" encoding="UTF-8"?>
<svg id="Layer_2" data-name="Layer 2" xmlns="http://www.w3.org/2000/svg" viewBox="0 0 334.92 417.03">
  <defs>
    <style>
      .cls-1 {
        fill: #c08dff;
      }

      .cls-2 {
        fill: #6e22f1;
      }
    </style>
  </defs>
  <g id="Layer_1-2" data-name="Layer 1">
    <g>
      <path class="cls-2" d="M185.91,237.37c-3.56,13.88-7.13,27.75-10.67,41.64-1.16,4.55-3.79,7.6-8.59,8.15-4.96,.56-8.16-2.04-10.47-6.24-9.55-17.36-19.26-34.63-28.76-52.02-3.83-7.02-8.86-8.58-16.12-5.18-17.94,8.39-36.03,16.47-54.03,24.73-4.35,2-8.54,2.22-12.16-1.16-3.73-3.49-3.84-7.64-1.88-12.31,7.71-18.36,15.17-36.82,22.83-55.2,2.83-6.79,1.39-11.83-5.31-15.21-17.44-8.79-34.82-17.7-52.31-26.38-4.41-2.19-7.62-5.02-8.44-10.04l.92-4.4c7.18-8.79,18.34-8.02,27.75-11.28,12.33-4.28,25.05-7.47,37.64-11.02,7.29-2.06,10.08-6.55,8.49-14.04-4.14-19.48-8.08-39.01-12.19-58.5-1.03-4.88-.18-9.02,4.17-11.78,4.23-2.68,8.27-1.63,12.16,1.14,16.13,11.47,32.37,22.79,48.43,34.35,6.52,4.69,11.72,3.89,16.78-2.28,12.47-15.22,25.18-30.25,37.73-45.4,3.13-3.78,6.82-5.99,11.75-4.39,4.91,1.6,6.62,5.47,6.89,10.43,1.06,19.64,2.41,39.26,3.37,58.9,.4,8.17,4.15,11.86,12.37,11.96,19.8,.24,39.6,.89,59.4,1.22,4.91,.08,8.58,1.86,10.3,6.47,1.73,4.65-.08,8.46-3.65,11.65-14.96,13.38-29.86,26.83-44.85,40.17-5.48,4.88-5.86,9.97-1.44,15.72,12.15,15.82,24.21,31.72,36.39,47.52,3.04,3.94,4.18,8.06,1.57,12.44-2.64,4.42-6.82,5.19-11.72,4.35-14-2.41-28.04-4.6-42.06-6.87q-28.9-5.02-34.26,22.86Z"/>
      <path class="cls-1" d="M185.91,237.37q5.36-27.89,34.26-22.86c36.28,55.56,72.57,111.12,108.86,166.68,11.77,18.03,5.57,32.39-15.5,35.84l-6.59-1.38c-5.8-2.89-9.35-7.87-12.79-13.14-36.02-55.09-72.14-110.11-108.23-165.15Z"/>
    </g>
  </g>
</svg>