<?xml version="1.0" encoding="UTF-8"?>
<svg id="Layer_2" data-name="Layer 2" xmlns="http://www.w3.org/2000/svg" viewBox="0 0 196.08 383.72">
  <defs>
    <style>
      .cls-1 {
        fill: #f5301b;
      }

      .cls-2 {
        fill: #ffbcb5;
      }

      .cls-3 {
        fill: #ff5b4b;
      }
    </style>
  </defs>
  <g id="Layer_1-2" data-name="Layer 1">
    <g>
      <path class="cls-1" d="M15.57,383.72c-1.95-2.5-3.89-5-5.84-7.51,.53-1.27,1.13-2.48,2.16-3.46,6.04-5.77,11.32-12.26,17.32-18.09,17.33-16.86,33.92-34.46,50.86-51.7,10.39-10.57,21.13-20.83,31.17-31.73,10.31-11.2,21.51-21.5,31.9-32.59,5.45-5.82,11.03-11.51,16.6-17.22,4.63-4.74,4.41-9.17-.59-13.72-.55-.5-1.19-.94-1.06-1.83,.12-.02,.25-.08,.37-.06,8.32,1.52,19.64-5.08,24.43,5.44,4.78,10.49-6.84,14.9-12.4,20.64-47.55,49.13-95.5,97.87-143.37,146.68-1.89,1.92-4.19,3.44-6.3,5.15h-5.25Z"/>
      <path class="cls-3" d="M158.08,205.87c7.93,4.58,8.33,10.27,2.17,16.57-50.15,51.28-100.35,102.52-150.53,153.77,1.57-4.63,2.72-9.46,4.77-13.87,16.93-36.33,34.03-72.58,51.39-109.51-11.5,0-22.41,.05-33.32-.01-12.26-.07-15.28-5.7-9.51-16.26,12.89-23.6,25.84-47.17,39.17-71.49-17.52,0-34.42,.25-51.3-.09-9.91-.2-13.61-5.52-8.91-14.6C26.9,102.36,51.99,54.47,76.97,6.51c1.89-3.63,4.56-5.9,8.77-5.89,28.1,.02,56.2,.07,84.3,.11,6.8,1.83,9.37,8.06,5.64,14.25-2.57,4.27-5.28,8.47-8.07,12.61-12.8,18.91-25.08,38.16-37.88,57.08-.98,1.44-2.02,2.86-2.49,4.58-1.52,5.68,1.02,10.27,6.61,11.92,.94,.28,2.01,.3,2.58,1.3,10.19,.15,20.39,.3,30.58,.45,5.89,1.25,7.8,8.42,5.14,13.27-2.04,3.72-4.52,7.16-6.95,10.64-14.11,20.25-28.07,40.6-42.11,60.89-.71,1.02-1.42,2.05-1.99,3.16-2.74,5.35-.87,10.57,4.62,12.99,1.24,.54,2.71,.62,3.63,1.8,9.57,.07,19.15,.13,28.72,.2Z"/>
      <path class="cls-1" d="M129.37,205.67c-4.29,.15-7.56-1.81-9.56-5.41-2.1-3.79-1.47-7.55,1.02-11.16,15.97-23.09,31.79-46.3,47.9-69.29,4.52-6.46,5.19-11.89-1.7-16.9,5.48-.08,11.09-.97,16.4-.05,9.25,1.6,11.09,7.65,6.09,15.04-19.89,29.36-40.07,58.53-60.14,87.77Z"/>
      <path class="cls-1" d="M136.44,102.46c-4.54,.5-8-1.58-9.79-5.4-1.79-3.82-1.4-7.79,1.15-11.62,15.22-22.87,30.23-45.87,45.47-68.73,4.44-6.66,4.18-11.93-3.23-15.99,8.24,1.29,18.82-4.64,24.32,4.41,5.73,9.42-4.44,15.59-8.71,22.33-15.99,25.26-32.75,50.04-49.21,75Z"/>
      <path class="cls-2" d="M94.5,21.92c-5.66,10.2-10.76,19.8-16.45,29.05-.64,1.04-5.04,.79-6.97-.22-2.83-1.48-3.13-4.81-1.72-7.59,4.04-7.98,8.09-15.96,12.68-23.62,1.02-1.7,4.43-3.09,6.43-2.75,2.02,.34,3.66,2.99,6.02,5.14Z"/>
    </g>
  </g>
</svg>