<?xml version="1.0" encoding="UTF-8"?>
<svg id="Layer_2" data-name="Layer 2" xmlns="http://www.w3.org/2000/svg" viewBox="0 0 297.1 297.11">
  <defs>
    <style>
      .cls-1 {
        fill: #ffd3bb;
      }

      .cls-2 {
        fill: #ff4800;
      }
    </style>
  </defs>
  <g id="Layer_1-2" data-name="Layer 1">
    <g>
      <path class="cls-2" d="M24.77,0c13.68,0,24.78,11.16,24.74,24.86-.04,13.66-11.26,24.73-24.96,24.65C11.06,49.43,.03,38.34,0,24.84-.03,11.15,11.09,0,24.77,0Z"/>
      <path class="cls-2" d="M148.39,0c13.71-.07,24.89,11.01,24.92,24.69,.03,13.69-11.1,24.84-24.78,24.82-13.51-.01-24.62-11.02-24.72-24.5C123.7,11.3,134.73,.07,148.39,0Z"/>
      <path class="cls-2" d="M272.16,49.51c-13.64-.08-24.68-11.33-24.56-25.04C247.71,10.84,259-.16,272.73,0c13.48,.16,24.41,11.3,24.37,24.84-.04,13.66-11.24,24.75-24.94,24.67Z"/>
      <path class="cls-1" d="M0,148.54c0-13.66,11.18-24.78,24.86-24.74,13.65,.04,24.72,11.25,24.64,24.96-.07,13.46-11.19,24.52-24.67,24.55C11.16,173.34,0,162.2,0,148.54Z"/>
      <path class="cls-1" d="M148.59,173.31c-13.67,.01-24.81-11.14-24.79-24.81,.02-13.66,11.21-24.75,24.91-24.7,13.48,.05,24.56,11.13,24.6,24.62,.05,13.69-11.06,24.88-24.72,24.9Z"/>
      <path class="cls-1" d="M247.6,148.53c0-13.66,11.18-24.77,24.87-24.73,13.64,.04,24.72,11.26,24.64,24.97-.08,13.46-11.2,24.52-24.68,24.54-13.68,.03-24.84-11.11-24.83-24.78Z"/>
      <path class="cls-1" d="M49.51,272.3c.02,13.67-11.13,24.83-24.8,24.81C11.06,297.09-.05,285.9,0,272.21c.05-13.48,11.12-24.56,24.6-24.61,13.7-.05,24.89,11.04,24.9,24.7Z"/>
      <path class="cls-1" d="M148.62,297.11c-13.67,.02-24.83-11.12-24.82-24.79,.01-13.66,11.19-24.77,24.88-24.72,13.49,.04,24.57,11.11,24.63,24.59,.06,13.69-11.05,24.9-24.69,24.92Z"/>
      <path class="cls-1" d="M272.29,247.6c13.68-.02,24.83,11.11,24.82,24.79-.01,13.65-11.21,24.77-24.89,24.72-13.48-.05-24.57-11.13-24.62-24.6-.05-13.7,11.04-24.89,24.69-24.91Z"/>
    </g>
  </g>
</svg>