<?xml version="1.0" encoding="UTF-8"?>
<svg id="Layer_2" data-name="Layer 2" xmlns="http://www.w3.org/2000/svg" xmlns:xlink="http://www.w3.org/1999/xlink" viewBox="0 0 400.44 381.83">
  <defs>
    <style>
      .cls-1 {
        fill: #f6ee87;
      }

      .cls-2 {
        fill: #eccf76;
      }

      .cls-3 {
        fill: #e7899e;
      }

      .cls-4 {
        fill: #a3ddfc;
      }

      .cls-5 {
        fill: #505860;
      }

      .cls-6 {
        filter: url(#drop-shadow-1);
      }
    </style>
    <filter id="drop-shadow-1" filterUnits="userSpaceOnUse">
      <feOffset dx="-7" dy="7"/>
      <feGaussianBlur result="blur" stdDeviation="12"/>
      <feFlood flood-color="#ffd283" flood-opacity=".75"/>
      <feComposite in2="blur" operator="in"/>
      <feComposite in="SourceGraphic"/>
    </filter>
  </defs>
  <g id="Layer_1-2" data-name="Layer 1">
    <g class="cls-6">
      <g>
        <path class="cls-3" d="M329.19,40.82c23.17,2.41,41.3,14.47,57.6,30.05l2.5,8.63c-.91,17.2-12.74,29.46-19.83,43.87-24.31-13.47-48.63-26.94-72.94-40.41,9.39-15.21,12.4-35.36,32.67-42.14Z"/>
        <path class="cls-1" d="M367.98,175.3c10.47,36.06,21.1,72.07,31.33,108.2,4.73,16.71-5.78,35.13-24.43,40.71-54.37,16.27-108.98,31.77-163.49,47.57-9.52-1.84-19.19-2.99-27.17-9.49-16.36-13.32-15.78-33.91-22.33-51.42-2.73-7.31-6.69-13.2-13.65-16.96-16.12-8.71-30.29,1.39-44.83,5.15-26.83,6.94-40.17,2.66-55.16-20C32.52,224.94,16.55,170.89,1.2,116.66c-5.09-17.97,6.56-36.23,25.57-41.77C111.05,50.36,195.36,25.91,279.69,1.52c17.51-5.07,36.81,3.04,42.07,17.32-14.22,4.69-24.61,13.47-31.63,26.97-8.88,17.06-18.79,33.59-28.25,50.34-3.84-11.76-12.8-14.42-23.83-13.39-4.29-9.91-11.45-14.57-22.04-10.62-8.16,3.05-11.26,9.73-9.83,18.32,.6,3.59,2.85,5.69,6.55,5.06,3.7-.64,5.05-3.38,4.49-6.96-.5-3.2,.49-5.52,3.73-6.26,3.46-.79,5.43,.98,6.1,4.34-7.89,4.15-12.47,10.63-11.34,19.57,1.05,8.4,7.17,12.69,15.14,14.32,6.96,1.42,13.53,0,19.8-3.13-7.22,13.65-14.43,27.29-21.65,40.94-43.12,12.54-86.23,25.1-129.35,37.6-4.11,1.19-8.24,2.61-6.54,7.92,1.59,4.99,5.77,4.05,9.71,2.9,39.06-11.3,78.12-22.56,117.19-33.83-7.57,14.2-15.15,28.4-22.72,42.6-19.82,5.83-39.64,11.67-59.48,17.46-3.89,1.13-6.95,3.02-5.64,7.57,1.32,4.57,4.99,4.49,8.83,3.38,16.03-4.61,32.07-9.19,48.1-13.78-8.8,19.93-5.04,40.52-3.21,61.01,3.32,37.21,27.96,53.77,59.46,40.62,32.25-13.46,57.85-32.73,73.17-65.99,14.34-31.16,32.82-60.41,49.48-90.5ZM127.34,120.23c3.34-4.86,.08-9.3-1-13.81-.86-3.59-3.37-5.67-7.18-4.59-3.83,1.09-4.64,4.1-3.67,7.69,.77,2.87,1.64,5.71,2.46,8.57-14.04,1.43-25.82,6.82-25.95,22.66-.09,11.93,9.76,16.16,20.39,16.09,12.39-.07,22.28-5.49,25.54-18.15,2.23-8.66-2.06-15.17-10.59-18.46Zm45.34-6.43c8.08-2.4,12.53-5.78,15.72-10.83,2.12-3.36,3.22-6.89-.82-9.43-4.01-2.52-6.55-.19-8.74,3.34-3.19,5.15-8.09,7.07-13.83,5.22-4.4-1.42-9.4-4.67-11.22,2.17-1.72,6.45,4.41,7.68,8.77,8.78,3.97,1,8.27,.65,10.11,.76Z"/>
        <path class="cls-4" d="M296.52,82.96c24.31,13.47,48.63,26.94,72.94,40.41-3.54,6.7-7.07,13.4-10.61,20.1-2.23,4.03-4.46,8.07-6.68,12.1-21.78,39.51-43.56,79.03-65.34,118.54-13.77,.35-26.65-.87-33.74-15.54-1.12-2.31-5.19-4.85-7.62-4.6-16.13,1.66-24.98-7.68-32.16-20,2.06-4.19,4.11-8.38,6.17-12.57,2.64-4.8,5.28-9.59,7.93-14.39,8.02-14.51,16.04-29.02,24.05-43.53,2.45-4.47,4.91-8.94,7.36-13.41,12.56-22.36,25.12-44.73,37.68-67.09Zm-22.81,135.5c1.21-.78,2.08-1.04,2.41-1.61,6-10.57,12.13-21.09,17.73-31.87,1.16-2.24-.45-5.26-3.3-6.33-2.78-1.05-5.37-.15-6.81,2.4-5.39,9.55-10.76,19.12-15.73,28.89-.8,1.57-.13,4.54,.92,6.18,.86,1.35,3.3,1.68,4.78,2.35Z"/>
        <path class="cls-2" d="M48.24,279.06c14.99,22.66,28.34,26.95,55.16,20,14.54-3.76,28.71-13.86,44.83-5.15,6.96,3.76,10.91,9.65,13.65,16.96,6.55,17.51,5.97,38.1,22.33,51.42,7.99,6.5,17.66,7.66,27.17,9.49-57.95,19.56-101.61,10.59-134.69-27.24-16.51-18.88-22.11-42.3-28.46-65.49Z"/>
        <path class="cls-2" d="M219.49,221.39c-2.06,4.19-4.11,8.38-6.17,12.57-7.29,12.12-7.93,25.22-5.74,38.74,.79,8.29,1.52,16.59,2.38,24.88,1.23,11.92,11.96,18.85,22.92,14.22,8.21-3.47,15.97-8.02,23.93-12.08,12.93-5.11,23.3-13.22,30.01-25.61,21.78-39.52,43.56-79.03,65.34-118.54,2.22-4.04,4.46-8.07,6.68-12.1,3.04,10.61,6.09,21.23,9.13,31.84-16.66,30.09-35.13,59.35-49.48,90.5-15.31,33.26-40.92,52.53-73.17,65.99-31.5,13.15-56.14-3.41-59.46-40.62-1.83-20.49-5.59-41.08,3.21-61,10.14-2.93,20.27-5.85,30.41-8.78Z"/>
        <path class="cls-2" d="M296.52,82.96c-12.56,22.36-25.12,44.73-37.68,67.09-9.95,2.76-19.91,5.52-29.86,8.28,7.22-13.65,14.43-27.29,21.65-40.94,7.15-5.28,12.96-11.27,11.24-21.24,9.46-16.76,19.37-33.28,28.25-50.34,7.03-13.51,17.42-22.29,31.63-26.97,2.48,7.33,4.95,14.65,7.43,21.98-20.27,6.78-23.28,26.93-32.67,42.14Z"/>
        <path class="cls-5" d="M228.98,158.34c9.95-2.76,19.91-5.52,29.86-8.28-2.45,4.47-4.91,8.94-7.36,13.41-10.5,3.16-20.99,6.31-31.49,9.47-39.06,11.27-78.13,22.54-117.19,33.83-3.95,1.14-8.12,2.08-9.71-2.9-1.7-5.31,2.43-6.73,6.54-7.92,43.13-12.51,86.24-25.06,129.35-37.6Z"/>
        <path class="cls-3" d="M127.34,120.23c8.53,3.29,12.82,9.8,10.59,18.46-3.25,12.67-13.15,18.08-25.54,18.15-10.63,.06-20.49-4.16-20.39-16.09,.12-15.84,11.91-21.23,25.95-22.66,2.32,4.25,5.65,4.11,9.39,2.14Z"/>
        <path class="cls-3" d="M261.87,96.16c1.72,9.98-4.09,15.96-11.24,21.24-6.27,3.13-12.85,4.55-19.8,3.13-7.97-1.63-14.08-5.92-15.14-14.32-1.12-8.94,3.45-15.42,11.34-19.57,1.99,2.17,4.14,3.91,7.35,2.68,3.04-1.16,3.55-3.76,3.66-6.56,11.03-1.02,19.99,1.63,23.83,13.39Z"/>
        <path class="cls-2" d="M219.99,172.94c10.5-3.16,20.99-6.31,31.49-9.47-8.02,14.51-16.04,29.02-24.06,43.53-10.05,2.84-20.1,5.69-30.15,8.53,7.57-14.2,15.15-28.4,22.72-42.6Z"/>
        <path class="cls-5" d="M197.26,215.53c10.05-2.84,20.1-5.69,30.15-8.53-2.64,4.8-5.29,9.59-7.93,14.39-10.14,2.93-20.27,5.85-30.41,8.78-16.04,4.59-32.07,9.17-48.1,13.78-3.84,1.11-7.51,1.19-8.83-3.38-1.31-4.55,1.75-6.44,5.64-7.57,19.84-5.78,39.65-11.63,59.48-17.46Z"/>
        <path class="cls-5" d="M238.04,82.76c-.1,2.81-.62,5.4-3.66,6.56-3.22,1.23-5.36-.52-7.35-2.68-.67-3.36-2.65-5.13-6.1-4.34-3.23,.74-4.23,3.06-3.73,6.26,.56,3.58-.79,6.33-4.49,6.96-3.7,.64-5.95-1.47-6.55-5.06-1.43-8.59,1.67-15.27,9.83-18.32,10.59-3.96,17.76,.71,22.04,10.62Z"/>
        <path class="cls-5" d="M172.68,113.8c-1.84-.11-6.15,.24-10.11-.76-4.36-1.1-10.49-2.33-8.77-8.78,1.83-6.84,6.82-3.58,11.22-2.17,5.74,1.85,10.64-.07,13.83-5.22,2.19-3.53,4.73-5.86,8.74-3.34,4.04,2.54,2.94,6.07,.82,9.43-3.19,5.05-7.64,8.43-15.72,10.83Z"/>
        <path class="cls-5" d="M127.34,120.23c-3.74,1.96-7.07,2.11-9.39-2.14-.82-2.85-1.69-5.7-2.46-8.56-.97-3.59-.15-6.61,3.67-7.69,3.81-1.08,6.31,.99,7.18,4.59,1.08,4.51,4.35,8.95,1,13.81Z"/>
        <path class="cls-5" d="M207.59,272.7c16.41,9.01,32.82,18.01,49.23,27.02-7.96,4.07-15.72,8.62-23.93,12.08-10.96,4.63-21.69-2.3-22.92-14.22-.86-8.29-1.59-16.59-2.38-24.88Z"/>
      </g>
    </g>
  </g>
</svg>