<?xml version="1.0" encoding="UTF-8"?>
<svg id="Layer_2" data-name="Layer 2" xmlns="http://www.w3.org/2000/svg" viewBox="0 0 417.13 407.54">
  <defs>
    <style>
      .cls-1 {
        fill: #fc6454;
      }

      .cls-2 {
        fill: none;
        stroke: #fc6454;
        stroke-miterlimit: 10;
        stroke-width: 4px;
      }
    </style>
  </defs>
  <g id="Layer_1-2" data-name="Layer 1">
    <g>
      <path class="cls-2" d="M27.91,216.43c32.89,7.85,59.91-4.47,70.6-31.95,11.08-28.48-.63-54.97-32.13-72.43,8.93-24.29,16.53-49.26,27.69-72.51,2.96-6.17,18.03-11.6,25.48-9.62,23.98,6.37,47,16.36,70.33,24.93,16.66-31.43,44.09-43.4,72.98-32.12,26.92,10.51,39.76,39,31.36,70.45,22.72,8.35,45.53,16.64,68.26,25.11,14.53,5.41,19.34,15.72,14.09,30.29-8.19,22.75-16.64,45.41-24.96,68.04,33.36,22.11,43.2,44.7,32.02,73.19-10.47,26.71-34.66,37.62-70.53,31.6-6.25,17.01-12.52,34.08-18.79,51.15-13.87,37.74-15.85,38.65-53.76,24.72-16.96-6.23-33.93-12.46-50.84-18.68,4.57-40.02-6.82-62.88-35.73-72.02-27.58-8.71-52,3.08-68.93,33.42-24.18-8.88-48.97-16.55-72.22-27.5-6.2-2.92-12.36-17.13-10.5-23.98,6.62-24.45,16.7-47.97,25.57-72.11Z"/>
      <path class="cls-1" d="M56.99,197.86c32.89,7.85,59.91-4.47,70.6-31.95,11.08-28.48-.63-54.97-32.13-72.43,8.93-24.29,16.53-49.26,27.69-72.51,2.96-6.17,18.03-11.6,25.48-9.62,23.98,6.37,47,16.36,70.33,24.93C235.62,4.84,263.05-7.12,291.94,4.16c26.92,10.51,39.76,39,31.36,70.45,22.72,8.35,45.53,16.64,68.26,25.11,14.53,5.41,19.34,15.72,14.09,30.29-8.19,22.75-16.64,45.41-24.96,68.04,33.36,22.11,43.2,44.7,32.02,73.19-10.47,26.71-34.66,37.62-70.53,31.6-6.25,17.01-12.52,34.08-18.79,51.15-13.87,37.74-15.85,38.65-53.76,24.72-16.96-6.23-33.93-12.46-50.84-18.68,4.57-40.02-6.82-62.88-35.73-72.02-27.58-8.71-52,3.08-68.93,33.42-24.18-8.88-48.97-16.55-72.22-27.5-6.2-2.92-12.36-17.13-10.5-23.98,6.62-24.45,16.7-47.97,25.57-72.11Z"/>
    </g>
  </g>
</svg>