<?xml version="1.0" encoding="UTF-8"?>
<svg id="Layer_2" data-name="Layer 2" xmlns="http://www.w3.org/2000/svg" xmlns:xlink="http://www.w3.org/1999/xlink" viewBox="0 0 511.18 511.12">
  <defs>
    <style>
      .cls-1 {
        fill: #fff6dc;
      }

      .cls-2 {
        fill: #fedf7d;
      }

      .cls-3 {
        fill: #fee9a7;
      }

      .cls-4 {
        fill: #fecf64;
      }

      .cls-5 {
        filter: url(#drop-shadow-1);
      }
    </style>
    <filter id="drop-shadow-1" filterUnits="userSpaceOnUse">
      <feOffset dx="-8" dy="8"/>
      <feGaussianBlur result="blur" stdDeviation="12"/>
      <feFlood flood-color="#ffe9c5" flood-opacity=".75"/>
      <feComposite in2="blur" operator="in"/>
      <feComposite in="SourceGraphic"/>
    </filter>
  </defs>
  <g id="Layer_1-2" data-name="Layer 1">
    <g id="Layer_1-2" data-name="Layer 1-2" class="cls-5">
      <g>
        <path class="cls-1" d="M222.28,486.76L91.93,356.83c9.99,4.22,19.95,3.24,26.05-2.57,6.32-6.03,7.52-16.33,3.11-26.68,43.45,43.31,86.9,86.62,130.35,129.92l-29.16,29.25h0Z"/>
        <path class="cls-1" d="M366.9,430.76L182.68,247.13c13.27,6.8,25.76,7.03,32.62,.56,7.12-6.7,7.13-19.58,.03-33.32,61.41,61.21,122.82,122.42,184.23,183.62l-32.65,32.76h-.01Z"/>
        <path class="cls-1" d="M394.15,392.1L140.68,139.46c17.05,10.57,31.93,13.19,38.88,6.8,7.2-6.62,4.79-21.9-6.23-39.56,84.49,84.21,168.98,168.43,253.47,252.64l-32.65,32.76h0Z"/>
        <path class="cls-1" d="M391.45,237.38L260.61,106.97c9.93,4.33,19.75,3.53,25.66-2.1,6.13-5.84,7.14-15.99,2.62-26.28,43.61,43.47,87.23,86.94,130.84,130.41l-28.29,28.38h.01Z"/>
        <path class="cls-1" d="M418.88,208.96l-102.32-101.98c8.37,2.78,17.2,1,23.09-4.67,6.1-5.88,8.11-15.03,5.2-23.71,34.11,33.99,68.21,67.99,102.32,101.98l-28.29,28.38h0Z"/>
        <path class="cls-1" d="M249.26,459.65l-109.39-109.03c8.84,3.08,18.08,1.38,24.15-4.46,6.29-6.05,8.22-15.63,5-24.79,36.46,36.34,72.93,72.69,109.39,109.03l-29.16,29.25h.01Z"/>
        <path class="cls-2" d="M401.45,334.4c9.27-7.62,17.96-5.73,23.4,5.1,5.87,11.71,11.73,23.42,17.54,35.15,2.62,5.29,6.26,7.25,12.48,6.02,13.93-2.76,27.98-5.02,42.05-6.96,7.08-.98,11.03,4.06,14.26,9.54v7.98c-10.31,10.64-20.34,21.57-31.02,31.83-7.74,7.44-8.52,8.99-3.61,18.59,3.16,6.17,6.34,12.32,9.51,18.48-12.64,.33-25.46,2.13-37.9,.72-32.98-3.75-57.71-21.29-75.37-49.06-3.42-5.38-6.3-11.1-9.43-16.67,6.14-.97,12.26-2.13,18.42-2.85,5.78-.67,9.63-3.18,10.5-9.22,1.4-9.77,2.49-19.59,4.24-29.29,1.18-6.54,3.26-12.92,4.93-19.37h0Z"/>
        <path class="cls-3" d="M11.15,0c1.95,1.78,3.97,3.49,5.84,5.36,50.81,50.78,101.6,101.58,152.4,152.37,1.4,1.4,2.93,2.68,4.4,4.02,1.34,1.47,2.62,3,4.02,4.41,62.29,62.31,124.61,124.6,186.85,186.97,2.22,2.23,3.69,5.21,5.12,7.29-3.53,9.85-9.47,11.21-16.05,4.63-35.86-35.84-71.71-71.7-107.57-107.55-1.4-1.4-2.93-2.68-4.4-4.02-1.34-1.47-2.61-3-4.02-4.4C160.06,171.37,82.37,93.68,4.69,16-1.7,9.6-1.58,5.66,5.16,0h5.99Z"/>
        <path class="cls-3" d="M301.65,102.76c-6.61-6.76-13.16-13.57-19.83-20.26-21.57-21.62-43.18-43.2-64.77-64.79-7.94-7.95-8.04-9.36-1.3-17.71h5.99c2.08,1.9,4.23,3.71,6.22,5.7,33.39,33.36,66.76,66.74,100.15,100.1,1.4,1.4,2.93,2.67,4.41,4.01,12.37,12.52,24.74,25.04,37.1,37.57,5.52,5.6,5.17,9.52-1.03,14.01-5.34,1.31-8.97-.93-12.52-4.51-18.03-18.14-36.25-36.1-54.4-54.12h-.02Z"/>
        <path class="cls-4" d="M334.55,401.27c6.32-1.67,12.61-3.48,18.97-4.94,3.2-.73,6.55-.82,9.83-1.2,3.13,5.56,6.01,11.29,9.43,16.67,17.66,27.77,42.39,45.31,75.37,49.06,12.45,1.41,25.26-.38,37.9-.72,2.82,5.44,5.76,10.83,8.44,16.35,2.93,6.02,2.01,10.88-2.58,15.41-4.45,4.4-9.57,5.32-15.47,2.33-12.43-6.28-24.87-12.57-37.11-19.21-5.31-2.88-9.34-1.99-13.32,2.13-9.23,9.56-18.53,19.05-27.86,28.51-5.68,5.76-11.02,6.87-16.98,3.77-5.72-2.97-7.97-7.83-6.78-15.52,2.05-13.24,4.03-26.5,6.55-39.66,1.15-6-.97-9.52-6.05-12.04-11.74-5.82-23.45-11.69-35.16-17.55-10.87-5.44-12.78-14.09-5.17-23.38h0Z"/>
        <path class="cls-3" d="M160.86,358.3c11.17,11.33,22.3,22.69,33.53,33.96,2.1,2.11,4.53,3.88,6.24,5.32v7.61c-4.98,6.7-9.41,6.86-15.9,.39-16.92-16.85-33.78-33.77-50.68-50.64-1.28-1.28-2.68-2.46-4.02-3.68-7.09-7.24-14.13-14.53-21.28-21.7-21.72-21.78-43.51-43.49-65.22-65.27-6.15-6.17-6.07-9.93,.22-15.6h8.25c.99,1.26,2.45,3.55,4.32,5.43,33.35,33.43,66.75,66.81,100.15,100.18,1.4,1.4,2.94,2.68,4.41,4.01h-.02Z"/>
        <path class="cls-3" d="M221.7,274.51c2.27,2.41,4.48,4.88,6.82,7.22,27.92,27.95,55.87,55.88,83.8,83.82,5.34,5.34,5.51,7.39,1.26,13.73-4.16,3.18-7.97,2.5-11.52-1.05-45.58-45.58-91.17-91.15-136.73-136.75-3.63-3.64-3.61-8.51-.16-11.85,3.37-3.27,8.03-3.12,11.92,.74,13.68,13.57,27.27,27.23,40.92,40.85,1.17,1.17,2.47,2.2,3.7,3.3h-.01Z"/>
        <path class="cls-2" d="M208.73,431.28c2.91-.56,5.82-1.12,9.83-1.89,1.01-6.14,2.09-12.74,3.18-19.33,.65-3.91,1.06-7.88,2.03-11.7,1.57-6.19,8.16-8.12,12.8-3.74,1.76,1.66,3.1,3.88,4.23,6.06,4.05,7.77,7.93,15.63,11.99,23.68,5.63-1.15,10.76-2.2,15.9-3.25,3.9-.55,7.82-1,11.69-1.69,4.43-.78,8.58-.36,10.65,4.06,1.92,4.1,.65,7.85-2.6,11.23-6.52,6.79-12.73,13.86-19.6,21.39,1.81,3.65,4.35,8.8,6.89,13.95-6.9-.32-13.99,.23-20.68-1.13-21.83-4.43-37.35-17.12-46.3-37.64h-.01Z"/>
        <path class="cls-4" d="M208.73,431.28c8.96,20.52,24.47,33.2,46.3,37.64,6.69,1.36,13.77,.81,20.68,1.13,2.03,3.76,4.83,7.33,5.85,11.35,.77,3.05,.21,7.29-1.48,9.87-2.15,3.27-6.16,3.07-9.85,1.1-8.6-4.58-17.29-8.99-25.67-13.32-6.12,5.82-11.98,11.37-17.81,16.96-1.55,1.49-2.76,3.76-4.59,4.44-2.84,1.07-6.68,2.33-8.96,1.2-2.26-1.12-4.29-5.06-4.32-7.8-.08-5.55,1.25-11.12,2-16.68,.87-4.64,1.75-9.27,2.65-14.04-10.19-5.14-19.96-10.07-29.73-15.01h0c-4.16-8-2-12.53,7.03-14.19,5.93-1.09,11.93-1.79,17.89-2.66h.01Z"/>
        <path class="cls-3" d="M112.97,367.25c14.44,14.62,28.91,29.21,43.3,43.87,1.91,1.94,3.42,4.27,5.04,6.31-.98,2.68-1.71,4.68-2.45,6.69-2.91,.91-5.82,1.82-7.74,2.42-26.72-26.71-52.54-52.53-79.01-78.99v-5.19c4.98-6.46,8.66-6.77,14.25-1.29,8.87,8.72,17.74,17.45,26.61,26.17h0Z"/>
        <path class="cls-3" d="M211.67,363.23c-6.58,3.44-9.34,3.02-14.58-2.14-6.39-6.28-12.8-12.54-19.2-18.81-3.45-3.38-4.96-5.01-20.78-21.41-4.03-4.18-7.9-8.29-6.91-12.52,.55-2.35,2.55-4.49,5.01-5.41,4.34-1.63,8.14,1.25,8.37,1.43,8.62,8.42,17.32,17.15,26.1,26.18,8.44,8.69,16.59,17.3,24.47,25.83-1.14,3.13-1.81,4.99-2.49,6.84h.01Z"/>
        <path class="cls-3" d="M379.45,313.41c-6.43,4.32-8.37,4.1-14.1-1.62-55.37-55.36-110.73-110.73-166.11-166.09-1.4-1.4-2.94-2.67-4.41-4.01-13.79-13.93-27.69-27.74-41.22-41.91-1.91-2.01-3.09-5.95-2.6-8.64,.4-2.21,3.6-5.14,5.88-5.46,2.56-.36,6.17,1.15,8.14,3.06,13.49,13.06,26.66,26.44,39.94,39.71,57.34,57.34,114.66,114.68,172.04,171.98,3.89,3.89,6.4,7.74,2.43,12.96v.02Z"/>
        <path class="cls-2" d="M380.42,182.7c3.51-.76,7.02-1.53,10.42-2.27,1.57-10.07,3.12-19.66,4.52-29.28,.6-4.15,2.77-6.76,6.86-7.36,4.1-.6,6.97,1.33,8.8,5.04,4.33,8.77,8.74,17.51,13.36,26.75,5.08-1.02,10.02-2.01,14.96-3.01,3.92-.54,7.83-1.15,11.76-1.61,4.65-.54,9.46-1.39,12.19,3.98,2.58,5.09-.42,8.31-3.62,11.75-6.12,6.56-11.96,13.36-18.75,20.99,1.75,3.41,4.46,8.67,7.16,13.92-5.96-.2-12.02,.27-17.85-.71-23.25-3.91-39.9-16.74-49.81-38.2h0Z"/>
        <path class="cls-4" d="M380.42,182.7c9.91,21.46,26.56,34.3,49.81,38.2,5.82,.98,11.89,.51,17.85,.71,1.84,3.52,3.59,7.1,5.55,10.55,2.2,3.86,2.12,8.04-1.38,10.22-2.6,1.61-7.14,2.11-9.96,.97-7.35-2.95-14.22-7.07-21.29-10.72-1.6-.83-3.22-1.62-3.97-2-7.58,7.08-14.7,13.76-21.86,20.4-5.06,4.69-10.97,4.22-13.66-1.4-.98-2.06-.91-4.81-.71-7.19,.32-3.94,1.13-7.84,1.74-11.76,.53-2.56,1.13-5.1,1.59-7.67,.46-2.59,.78-5.2,1.25-8.45-8.46-4.26-17.07-8.44-25.5-12.96-2.17-1.16-4.4-3.09-5.48-5.24-2.23-4.44,.16-9.52,4.99-10.5,6.94-1.41,14.02-2.14,21.04-3.16h0Z"/>
        <path class="cls-3" d="M284.63,118.75c12.19,12.36,24.35,24.74,36.58,37.06,3.72,3.75,7.64,7.31,11.15,10.65v6.38c-.87,1.2-1.84,2.52-2.8,3.85-4.53,3.24-8.54,1.76-12-1.69-23.5-23.41-47.01-46.83-70.29-70.46-2.28-2.31-3.09-6.08-4.27-8.54,5.83-8.01,9.95-8.41,15.76-2.7,8.62,8.48,17.26,16.96,25.88,25.44h-.01Z"/>
        <path class="cls-3" d="M383.43,114.78c-6.15,4.16-8.46,3.94-13.7-1.23-7.04-6.94-14.1-13.86-21.14-20.79-6.73-6.85-13.46-13.71-20.19-20.56-4.54-4.62-5.1-9.47-1.51-13.04,3.57-3.55,8.41-2.99,13.01,1.59,14.08,14.05,28.12,28.14,42.21,42.17,3.67,3.65,4.72,7.47,1.34,11.85h-.02Z"/>
      </g>
    </g>
  </g>
</svg>