<?xml version="1.0" standalone="no"?>
<!DOCTYPE svg PUBLIC "-//W3C//DTD SVG 20010904//EN"
 "http://www.w3.org/TR/2001/REC-SVG-20010904/DTD/svg10.dtd">
<svg version="1.0" xmlns="http://www.w3.org/2000/svg"
 width="960.000000pt" height="960.000000pt" viewBox="0 0 960.000000 960.000000"
 preserveAspectRatio="xMidYMid meet">
<metadata>
Created by potrace 1.14, written by Peter Selinger 2001-2017
</metadata>
<g transform="translate(0.000000,960.000000) scale(0.100000,-0.100000)"
fill="#000000" stroke="none">
<path d="M5097 9074 c-1 -1 -76 -4 -167 -8 -91 -3 -176 -8 -190 -10 -14 -3
-52 -7 -85 -11 -112 -11 -130 -13 -165 -19 -19 -4 -62 -11 -95 -17 -613 -103
-1232 -360 -1745 -723 -86 -61 -194 -143 -240 -183 -14 -11 -63 -54 -110 -93
-87 -74 -310 -294 -390 -385 -25 -28 -59 -66 -76 -86 -16 -19 -73 -90 -125
-159 -482 -630 -776 -1363 -864 -2150 -27 -247 -28 -721 0 -935 2 -16 7 -52
10 -80 12 -91 15 -115 30 -200 6 -33 26 -138 40 -207 2 -9 19 -77 39 -150 287
-1085 986 -2015 1953 -2596 200 -121 477 -255 688 -334 92 -34 338 -116 369
-122 12 -3 55 -14 96 -25 41 -11 111 -27 155 -36 44 -9 89 -19 100 -21 11 -2
49 -9 85 -14 36 -6 76 -13 90 -16 14 -2 50 -7 80 -10 30 -3 65 -7 78 -9 159
-27 823 -27 965 1 10 2 46 6 80 9 34 3 69 8 77 10 8 2 29 6 45 9 124 20 218
38 267 51 31 8 67 16 80 19 286 59 831 276 1092 434 37 23 70 42 72 42 6 0
234 146 269 172 6 5 60 45 120 90 61 45 112 84 115 88 3 3 41 35 85 70 167
135 473 455 631 660 103 133 295 421 327 490 4 8 19 35 33 60 40 70 138 267
173 350 18 41 38 89 46 105 100 229 229 691 261 935 2 19 6 46 9 60 4 23 11
74 21 155 27 238 27 773 -1 965 -2 14 -7 50 -10 80 -4 30 -9 64 -11 75 -2 10
-6 37 -9 60 -22 153 -101 475 -160 650 -203 602 -535 1157 -954 1598 -147 154
-217 220 -376 355 -357 301 -813 568 -1258 733 -45 17 -86 32 -92 33 -5 2 -17
6 -25 9 -101 42 -505 145 -634 162 -21 3 -41 7 -45 9 -3 2 -35 7 -71 11 -36 4
-67 8 -70 10 -3 2 -36 6 -75 10 -38 4 -86 8 -105 10 -19 2 -102 7 -185 10 -82
4 -171 7 -198 9 -26 1 -49 1 -50 0z"/>
</g>
</svg>
