<svg width="42" height="31" viewBox="0 0 42 31" fill="none" xmlns="http://www.w3.org/2000/svg">
<path d="M2.8209 27.8955C4.70149 29.7761 6.89552 30.7164 9.61194 30.7164C12.2239 30.7164 14.4179 29.7761 16.2985 27.8955C18.1791 26.0149 19.1194 23.8209 19.1194 21.1045C19.1194 19.0149 18.4925 17.2388 17.4478 15.7761C16.2985 14.3134 15.1493 13.2687 13.8955 12.7463L19.1194 4.70149L12.1194 0L2.71642 13.8955C1.77612 15.3582 1.04478 16.5075 0.626866 17.5522C0.208955 18.597 0 19.8507 0 21.1045C0 23.8209 0.940299 26.0149 2.8209 27.8955ZM25.7015 27.8955C27.5821 29.7761 29.7761 30.7164 32.4925 30.7164C35.1045 30.7164 37.2985 29.7761 39.1791 27.8955C41.0597 26.0149 42 23.8209 42 21.1045C42 19.0149 41.3731 17.2388 40.3284 15.7761C39.1791 14.3134 38.0299 13.2687 36.7761 12.7463L42 4.70149L35 0L25.597 13.8955C24.6567 15.3582 23.9254 16.5075 23.5075 17.5522C23.0896 18.597 22.8806 19.8507 22.8806 21.1045C22.8806 23.8209 23.8209 26.0149 25.7015 27.8955Z" fill="black"/>
</svg>
