<svg width="48" height="36" viewBox="0 0 48 36" fill="none" xmlns="http://www.w3.org/2000/svg">
<path d="M44.6604 3.21557C42.5167 1.07187 40.0157 2.2201e-05 36.9193 2.19303e-05C33.9419 2.167e-05 31.4409 1.07187 29.2972 3.21557C27.1535 5.35927 26.0817 7.86026 26.0817 10.9567C26.0817 13.3386 26.7963 15.3632 27.9872 17.0305C29.2972 18.6979 30.6073 19.8888 32.0364 20.4843L26.0817 29.6545L34.061 35.0138L44.7795 19.1742C45.8514 17.5069 46.685 16.1969 47.1614 15.0059C47.6378 13.815 47.876 12.3858 47.876 10.9567C47.876 7.86026 46.8041 5.35928 44.6604 3.21557ZM18.5787 3.21557C16.435 1.07187 13.9341 1.99209e-05 10.8376 1.96502e-05C7.86024 1.93899e-05 5.35925 1.07187 3.21556 3.21557C1.07185 5.35927 -1.44086e-06 7.86025 -1.71156e-06 10.9567C-1.91979e-06 13.3386 0.714567 15.3632 1.90552 17.0305C3.21555 18.6979 4.52559 19.8888 5.95472 20.4843L-3.34618e-06 29.6545L7.97933 35.0138L18.6978 19.1742C19.7697 17.5069 20.6033 16.1969 21.0797 15.0059C21.5561 13.815 21.7943 12.3858 21.7943 10.9567C21.7943 7.86026 20.7224 5.35927 18.5787 3.21557Z" fill="url(#paint0_linear_2306_1973)"/>
<defs>
<linearGradient id="paint0_linear_2306_1973" x1="23.938" y1="35.0138" x2="23.938" y2="2.07955e-05" gradientUnits="userSpaceOnUse">
<stop stop-color="#FF7E35"/>
<stop offset="1" stop-color="#FFC75B"/>
</linearGradient>
</defs>
</svg>
