<svg width="42" height="31" viewBox="0 0 42 31" fill="none" xmlns="http://www.w3.org/2000/svg">
<path d="M39.1791 2.82091C37.2985 0.940315 35.1045 1.52588e-05 32.3881 1.52588e-05C29.7761 1.52588e-05 27.5821 0.940315 25.7015 2.82091C23.8209 4.70151 22.8806 6.89554 22.8806 9.61196C22.8806 11.7015 23.5075 13.4776 24.5522 14.9403C25.7015 16.403 26.8507 17.4478 28.1045 17.9702L22.8806 26.0149L29.8806 30.7164L39.2836 16.8209C40.2239 15.3582 40.9552 14.209 41.3731 13.1642C41.791 12.1194 42 10.8657 42 9.61196C42 6.89554 41.0597 4.70151 39.1791 2.82091ZM16.2985 2.82091C14.4179 0.940315 12.2239 1.52588e-05 9.50746 1.52588e-05C6.89552 1.52588e-05 4.7015 0.940315 2.8209 2.82091C0.940304 4.70151 0 6.89554 0 9.61196C0 11.7015 0.626869 13.4776 1.67165 14.9403C2.8209 16.403 3.97015 17.4478 5.22388 17.9702L0 26.0149L7 30.7164L16.403 16.8209C17.3433 15.3582 18.0746 14.209 18.4925 13.1642C18.9104 12.1194 19.1194 10.8657 19.1194 9.61196C19.1194 6.89554 18.1791 4.70151 16.2985 2.82091Z" fill="black"/>
</svg>
